<svg width="127" height="155" viewBox="0 0 127 155" fill="none" xmlns="http://www.w3.org/2000/svg">
<path d="M124.074 139.597L105.414 135.49L99.6302 153.748C99.2142 155.061 97.4363 155.253 96.7494 154.06L73.6646 113.958C85.0359 111.494 95.1535 105.655 102.922 97.5387L125.786 137.261C126.472 138.453 125.417 139.892 124.074 139.597Z" fill="#FD646F"/>
<path d="M124.074 139.597L106.826 135.8C106.026 135.624 105.224 136.087 104.977 136.868L99.6304 153.748C99.2145 155.06 97.4366 155.253 96.7496 154.059L76.973 119.702L73.6648 113.958C85.0361 111.494 95.1538 105.654 102.922 97.5384L106.205 103.238L125.787 137.261C126.472 138.453 125.417 139.892 124.074 139.597Z" fill="#FD646F"/>
<path d="M124.074 139.596L106.827 135.8C106.026 135.626 105.225 136.088 104.978 136.867L106.835 131.098C107.085 130.32 107.887 129.861 108.685 130.038L123.526 133.337L125.787 137.263C126.474 138.453 125.416 139.893 124.074 139.596Z" fill="#FC4755"/>
<path d="M52.702 113.477L29.2522 154.206C28.5652 155.399 26.7874 155.207 26.3714 153.894L21.0245 137.014C20.7772 136.234 19.975 135.771 19.1754 135.947L1.92751 139.743C0.584604 140.038 -0.470534 138.599 0.21548 137.407L22.0251 99.5167C30.1674 107.236 41.1503 111.575 52.702 113.477Z" fill="#FD646F"/>
<path d="M25.1118 105.153L5.67738 138.916L1.92852 139.742C0.585615 140.038 -0.46984 138.598 0.216174 137.406L18.7807 105.153L23.8009 96.4085C25.1526 97.6881 26.5646 98.9044 28.0366 100.048L25.1118 105.153Z" fill="#FC4755"/>
<path d="M31.5398 150.229L29.251 154.206C28.5641 155.399 26.7881 155.209 26.3702 153.895L21.0233 137.016C20.7764 136.234 19.9754 135.772 19.1745 135.946L25.0881 134.645C25.8877 134.469 26.6896 134.932 26.9369 135.712L31.5398 150.229Z" fill="#FC4755"/>
<path d="M22.5528 98.5526L37.9759 105.508L52.702 113.477L48.7533 120.331C37.7429 118.095 27.5271 112.97 19.0841 105.422C18.9828 105.334 18.8815 105.245 18.7802 105.152L22.5528 98.5526Z" fill="#FC4755"/>
<path d="M106.205 103.238L102.922 97.5386L85.5506 105.206L73.6646 113.958L75.0005 116.277L78.2811 121.975L96.7494 154.059C97.4363 155.253 99.2142 155.06 99.6302 153.747L100.806 150.035L82.4498 118.06C91.3363 114.968 99.426 109.937 106.205 103.238Z" fill="#FC4755"/>
<path d="M120.456 57.6283C120.456 73.1173 114.362 87.1839 104.443 97.5387C96.6746 105.655 86.5569 111.494 75.1856 113.958C71.257 114.809 67.1827 115.257 63.0007 115.257C59.8097 115.257 56.6819 114.996 53.6333 114.495C42.6736 112.691 32.7554 107.776 24.8157 100.682C24.3852 100.301 23.9641 99.9139 23.5462 99.517C22.0647 98.1136 20.6591 96.6304 19.3295 95.078C18.0569 93.5856 16.8602 92.0265 15.7427 90.4072C12.387 85.5523 9.75632 80.1509 8.00567 74.3655C6.40698 69.0693 5.5459 63.452 5.5459 57.6286C5.5459 25.8023 31.2706 0 63.0007 0C68.8035 0 74.4069 0.863611 79.6841 2.47054C85.4553 4.22024 90.837 6.85887 95.6806 10.2278C97.2951 11.3488 98.8495 12.549 100.334 13.8285C102.322 15.5304 104.19 17.3691 105.928 19.3249C114.966 29.5081 120.456 42.9267 120.456 57.6283Z" fill="#FAA515"/>
<path d="M63.0007 98.9043C85.7283 98.9043 104.153 80.4243 104.153 57.6279C104.153 34.8316 85.7283 16.3516 63.0007 16.3516C40.2731 16.3516 21.8488 34.8316 21.8488 57.6279C21.8488 80.4243 40.2731 98.9043 63.0007 98.9043Z" fill="#FAD207"/>
<path d="M104.152 57.6283C104.152 80.4238 85.7276 98.9041 63.0009 98.9041C40.2741 98.9041 21.8495 80.4238 21.8495 57.6283C21.8495 55.9071 21.954 54.2116 22.1598 52.548C24.6544 72.9492 41.9899 88.743 63.0009 88.743C84.0118 88.743 101.347 72.9492 103.842 52.548C104.048 54.2119 104.152 55.9074 104.152 57.6283Z" fill="#FAA515"/>
<path fill-rule="evenodd" clip-rule="evenodd" d="M63.0009 16.3529C40.2741 16.3529 21.8495 34.8332 21.8495 57.6287C21.8495 80.4241 40.2741 98.9044 63.0009 98.9044C85.7276 98.9044 104.152 80.4241 104.152 57.6287C104.152 34.8332 85.7276 16.3529 63.0009 16.3529ZM63.0009 94.1412C42.927 94.1412 26.5981 77.763 26.5981 57.6287C26.5981 37.4943 42.927 21.1161 63.0009 21.1161C83.0748 21.1161 99.4036 37.4943 99.4036 57.6287C99.4036 77.763 83.0748 94.1412 63.0009 94.1412Z" fill="#FAF063"/>
<path d="M64.4225 34.8031L70.0756 46.3507C70.3057 46.8211 70.7537 47.1472 71.2722 47.2216L83.9766 49.0469C85.2768 49.2337 85.7969 50.8315 84.8558 51.7476L75.6413 60.7203C75.2671 61.0846 75.0968 61.6098 75.1857 62.1243L77.3815 74.8109C77.6059 76.107 76.2431 77.0953 75.0806 76.4796L63.7419 70.471C63.2785 70.2254 62.7232 70.2254 62.2597 70.471L50.921 76.4796C49.7586 77.0956 48.3957 76.1073 48.6202 74.8109L50.8159 62.1243C50.9049 61.6098 50.7346 61.0846 50.3604 60.7203L41.1459 51.7476C40.2047 50.8312 40.7248 49.2337 42.025 49.0469L54.7294 47.2216C55.2476 47.1472 55.6956 46.8211 55.926 46.3507L61.5791 34.8031C62.1581 33.6203 63.8435 33.6203 64.4225 34.8031Z" fill="#FAA515"/>
</svg>
