<svg width="156" height="155" viewBox="0 0 156 155" fill="none" xmlns="http://www.w3.org/2000/svg">
<path d="M105.415 113.209L77.0471 116.328L48.9662 113.209C62.2488 113.209 66.9081 103.7 67.8157 91.1194C67.9373 89.454 67.9903 87.7356 67.9903 85.9797V84.7915C70.9344 85.4246 74.0999 85.7645 77.5024 85.7645C80.7833 85.7645 83.8459 85.4496 86.7026 84.8601V85.9797C86.7026 87.7574 86.7525 89.4976 86.871 91.1817C87.7318 103.731 92.1541 113.209 105.415 113.209Z" fill="#FAD207"/>
<path d="M116.019 119.815V130.362L77.1906 133.481L38.3627 130.362V119.815C38.3627 116.166 41.3192 113.209 44.9681 113.209H109.413C112.392 113.209 114.908 115.18 115.732 117.887C115.919 118.499 116.019 119.144 116.019 119.815Z" fill="#FAD207"/>
<path d="M115.732 117.887H46.1595C44.4379 117.887 43.0407 119.284 43.0407 121.006V130.362H38.3627V119.815C38.3627 116.166 41.3192 113.209 44.9681 113.209H109.413C112.392 113.209 114.908 115.18 115.732 117.887Z" fill="#FAA515"/>
<path d="M86.8711 91.1818C83.8709 91.7245 80.7273 92.0021 77.5025 92.0021C74.1655 92.0021 70.9127 91.7058 67.8158 91.1195C67.9374 89.4541 67.9904 87.7357 67.9904 85.9798V84.7916L77.5025 84.4208L86.7027 84.8602V85.9798C86.7027 87.7575 86.7526 89.4977 86.8711 91.1818Z" fill="#FAA515"/>
<path d="M155.003 31.6549C155.003 54.7833 136.184 73.6016 113.056 73.6016H106.974C109.703 70.7792 112.045 67.6012 114.057 64.2299C129.99 63.7465 143.083 51.7738 145.313 36.333H124.077C124.735 32.9367 125.2 29.7619 125.528 26.9769H150.324C152.907 26.9769 155.003 29.0726 155.003 31.6549Z" fill="#FAD207"/>
<path d="M121.813 63.051C121.052 64.5635 120.251 66.0231 119.412 67.4265C118.118 69.5971 116.727 71.643 115.251 73.5423C114.525 73.5829 113.792 73.6016 113.056 73.6016H106.974L107.666 69.1215L114.057 64.2298C114.057 64.2298 119.334 63.7433 121.813 63.051Z" fill="#FAA515"/>
<path d="M131.806 26.9769C131.777 27.217 131.749 27.4603 131.721 27.7066C131.378 30.6133 130.945 33.5106 130.424 36.333H124.077L121.772 31.6549L125.527 26.9769H131.806Z" fill="#FAA515"/>
<path d="M155.003 31.6549C155.003 54.0473 137.363 72.3978 115.251 73.5424C116.727 71.6431 118.118 69.5972 119.412 67.4266C120.251 66.0231 121.052 64.5636 121.813 63.051C134.085 59.6236 143.457 49.179 145.313 36.333H130.424C130.945 33.5106 131.378 30.6133 131.721 27.7066C131.749 27.4603 131.778 27.217 131.806 26.9769H150.325C152.907 26.9769 155.003 29.0726 155.003 31.6549Z" fill="#FAD207"/>
<path d="M48.0306 73.6016H41.9491C18.8208 73.6016 0.00244141 54.7833 0.00244141 31.6549C0.00244141 29.0726 2.09822 26.9769 4.68051 26.9769H29.4774C29.8049 29.7619 30.2695 32.9367 30.9276 36.333H9.69228C11.9222 51.7738 25.0145 63.7465 40.948 64.2299C42.9596 67.6012 45.3017 70.7792 48.0306 73.6016Z" fill="#FAD207"/>
<path d="M30.9276 36.333H24.5811C24.0602 33.5075 23.6267 30.6102 23.2837 27.7066C23.2556 27.4603 23.2275 27.217 23.1995 26.9769H29.4774L33.2495 31.7653L30.9276 36.333Z" fill="#FAA515"/>
<path d="M48.0306 73.6016H41.9491C41.2131 73.6016 40.4802 73.5829 39.7535 73.5423C38.2784 71.643 36.8874 69.5971 35.5932 67.4265C34.7542 66.0231 33.9527 64.5635 33.1918 63.051C35.6711 63.7433 40.948 64.2298 40.948 64.2298L46.7691 68.3478L48.0306 73.6016Z" fill="#FAA515"/>
<path d="M128.182 130.362H26.8234C23.3784 130.362 20.5859 133.155 20.5859 136.6V148.763C20.5859 152.208 23.3784 155 26.8234 155H128.182C131.626 155 134.419 152.208 134.419 148.763V136.6C134.419 133.155 131.626 130.362 128.182 130.362Z" fill="#50758D"/>
<path d="M33.0608 155H26.8234C23.3772 155 20.5859 152.209 20.5859 148.763V136.6C20.5859 133.153 23.3772 130.362 26.8234 130.362V148.763C26.8234 152.209 29.6146 155 33.0608 155Z" fill="#2B597F"/>
<path d="M126.31 15.9055C126.31 15.9055 126.31 18.2757 126.005 22.1429C125.892 23.565 125.736 25.193 125.527 26.9769C125.2 29.7619 124.735 32.9367 124.077 36.333C122.368 45.0997 119.362 55.3447 114.057 64.2299C112.045 67.6012 109.703 70.7792 106.974 73.6016C101.754 79.0033 95.1232 83.1199 86.7026 84.8602C83.8459 85.4496 80.7833 85.7646 77.5024 85.7646C74.0999 85.7646 70.9344 85.4247 67.9904 84.7916C59.7195 83.0202 53.1889 78.9378 48.0306 73.6016C45.3017 70.7792 42.9596 67.6012 40.948 64.2299C35.6431 55.3447 32.6366 45.0997 30.9276 36.333C30.2695 32.9367 29.8048 29.7619 29.4774 26.9769C29.2684 25.193 29.1125 23.565 29.0002 22.1429C28.6946 18.2757 28.6946 15.9055 28.6946 15.9055H126.31Z" fill="#FAD207"/>
<path d="M79.0743 29.6783L82.9059 41.4711H95.3056C96.9067 41.4711 97.5723 43.5198 96.2771 44.461L86.2454 51.7494L90.0771 63.5425C90.5717 65.0654 88.829 66.3316 87.5338 65.3903L77.5021 58.1019L67.4705 65.3903C66.1753 66.3316 64.4322 65.0651 64.9272 63.5425L68.7588 51.7494L58.7272 44.461C57.432 43.5198 58.0975 41.4711 59.6986 41.4711H72.0983L75.93 29.6783C76.4252 28.1554 78.5796 28.1554 79.0743 29.6783Z" fill="#FC4755"/>
<path d="M106.039 145.176H48.9662C47.6741 145.176 46.6272 144.129 46.6272 142.837C46.6272 141.545 47.6741 140.498 48.9662 140.498H106.039C107.331 140.498 108.378 141.545 108.378 142.837C108.378 144.129 107.331 145.176 106.039 145.176Z" fill="#2B597F"/>
<path d="M126.31 15.9055L75.4918 12.7867L34.932 15.9055H28.6946C28.6946 15.9055 28.6946 18.2757 29.0002 22.1429C29.1125 23.565 29.2684 25.193 29.4774 26.9769C29.8048 29.7619 30.2695 32.9367 30.9276 36.333C32.6366 45.0997 35.6431 55.3447 40.948 64.2299C42.9596 67.6012 45.3017 70.7792 48.0306 73.6016C53.1889 78.9378 59.7195 83.0201 67.9904 84.7916C70.9344 85.4247 74.0999 85.7646 77.5024 85.7646C78.5628 85.7646 79.5982 85.7334 80.6118 85.6679C78.3757 85.5245 76.2487 85.2251 74.2278 84.7916C65.957 83.0201 59.4264 78.9378 54.268 73.6016C51.5391 70.7792 49.197 67.6012 47.1854 64.2299C41.8805 55.3447 38.8741 45.0997 37.165 36.333C36.507 32.9367 36.0423 29.7619 35.7148 26.9769C35.7126 26.9591 35.7107 26.9413 35.7086 26.9236C35.4114 24.3765 37.4086 22.1429 39.9728 22.1429H126.005C126.31 18.2757 126.31 15.9055 126.31 15.9055Z" fill="#FAA515"/>
<path d="M28.5387 0H126.466C130.858 0 134.419 3.56063 134.419 7.95272C134.419 12.3448 130.858 15.9054 126.466 15.9054H28.5387C24.1466 15.9054 20.5859 12.3448 20.5859 7.95272C20.5859 3.56063 24.1466 0 28.5387 0Z" fill="#FAD207"/>
<path d="M34.7761 15.9054H28.5387C24.1475 15.9054 20.5859 12.3439 20.5859 7.95272C20.5859 5.75714 21.4779 3.7674 22.9156 2.32968C24.3533 0.891952 26.3431 0 28.5387 0H34.7761C32.5805 0 30.5908 0.891952 29.153 2.32968C27.7153 3.7674 26.8234 5.75714 26.8234 7.95272C26.8234 12.3439 30.3849 15.9054 34.7761 15.9054Z" fill="#FAA515"/>
</svg>
