<svg width="24" height="24" viewBox="0 0 24 24" fill="none" xmlns="http://www.w3.org/2000/svg">
<path d="M0 12C0 5.37258 5.37258 0 12 0C18.6274 0 24 5.37258 24 12C24 18.6274 18.6274 24 12 24C5.37258 24 0 18.6274 0 12Z" fill="#BFBFBF"/>
<path d="M16.6402 15.368C16.3876 14.7695 16.021 14.226 15.5608 13.7675C15.102 13.3078 14.5585 12.9412 13.9603 12.6881C13.955 12.6854 13.9496 12.684 13.9443 12.6814C14.7786 12.0787 15.321 11.097 15.321 9.9894C15.321 8.15458 13.8344 6.66797 11.9996 6.66797C10.1648 6.66797 8.67819 8.15458 8.67819 9.9894C8.67819 11.097 9.2206 12.0787 10.055 12.6827C10.0496 12.6854 10.0443 12.6867 10.0389 12.6894C9.4389 12.9425 8.90051 13.3055 8.43845 13.7689C7.97869 14.2277 7.61212 14.7711 7.35899 15.3693C7.11031 15.9549 6.9762 16.5828 6.9639 17.2189C6.96354 17.2332 6.96605 17.2474 6.97127 17.2607C6.9765 17.274 6.98433 17.2861 6.99432 17.2964C7.0043 17.3066 7.01624 17.3147 7.02941 17.3203C7.04259 17.3258 7.05675 17.3287 7.07104 17.3287H7.87462C7.93354 17.3287 7.98042 17.2818 7.98176 17.2242C8.00854 16.1903 8.42372 15.222 9.15765 14.4881C9.91703 13.7287 10.9255 13.3108 11.9996 13.3108C13.0737 13.3108 14.0822 13.7287 14.8416 14.4881C15.5755 15.222 15.9907 16.1903 16.0175 17.2242C16.0188 17.2831 16.0657 17.3287 16.1246 17.3287H16.9282C16.9425 17.3287 16.9566 17.3258 16.9698 17.3203C16.983 17.3147 16.9949 17.3066 17.0049 17.2964C17.0149 17.2861 17.0227 17.274 17.028 17.2607C17.0332 17.2474 17.0357 17.2332 17.0353 17.2189C17.0219 16.5787 16.8893 15.9559 16.6402 15.368ZM11.9996 12.293C11.3849 12.293 10.8063 12.0532 10.371 11.618C9.93578 11.1827 9.69604 10.6041 9.69604 9.9894C9.69604 9.37467 9.93578 8.79609 10.371 8.36083C10.8063 7.92556 11.3849 7.68583 11.9996 7.68583C12.6143 7.68583 13.1929 7.92556 13.6282 8.36083C14.0635 8.79609 14.3032 9.37467 14.3032 9.9894C14.3032 10.6041 14.0635 11.1827 13.6282 11.618C13.1929 12.0532 12.6143 12.293 11.9996 12.293Z" fill="white"/>
</svg>
