<svg id="BACKGROUND" xmlns="http://www.w3.org/2000/svg"
     viewBox="0 0 1036.3 751.19">
    <defs>
        <style>
            .cls-1,.cls-10,.cls-11,.cls-4,.cls-5,.cls-6,.cls-8,.cls-9{fill:none;}.cls-2{fill:#fff;}.cls-3{clip-path:url(#clip-path);}.cls-4,.cls-8{stroke:#fcee21;}.cls-11,.cls-4,.cls-8,.cls-9{stroke-miterlimit:10;}.cls-4{stroke-width:10px;}.cls-10,.cls-11,.cls-5,.cls-6,.cls-9{stroke:#000;}.cls-10,.cls-5,.cls-6{stroke-linecap:round;stroke-linejoin:round;stroke-width:3px;}.cls-6{stroke-dasharray:0
            7.98;}.cls-7{fill:#fcee21;}.cls-8{stroke-width:5px;}.cls-10{stroke-dasharray:0
            7.89;}.cls-11{stroke-width:0.5px;}
        </style>
        <clipPath id="clip-path" transform="translate(110.53 129.02)">
            <rect class="cls-1" width="750" height="500"/>
        </clipPath>
    </defs>
    <rect class="cls-2" x="110.53" y="129.02" width="750" height="500"/>
    <g class="cls-3">
        <circle class="cls-4" cx="485.53" cy="514.16" r="34.75"/>
        <line class="cls-5" x1="316.22" y1="504.93" x2="316.22" y2="504.93"/>
        <line class="cls-6" x1="324.2" y1="504.93" x2="495.84" y2="504.93"/>
        <line class="cls-5" x1="499.84" y1="504.93" x2="499.84" y2="504.93"/>
        <line class="cls-5" x1="316.22" y1="511.27" x2="316.22" y2="511.27"/>
        <line class="cls-6" x1="324.2" y1="511.27" x2="495.84" y2="511.27"/>
        <line class="cls-5" x1="499.84" y1="511.27" x2="499.84" y2="511.27"/>
        <line class="cls-5" x1="316.22" y1="517.61" x2="316.22" y2="517.61"/>
        <line class="cls-6" x1="324.2" y1="517.61" x2="495.84" y2="517.61"/>
        <line class="cls-5" x1="499.84" y1="517.61" x2="499.84" y2="517.61"/>
        <line class="cls-5" x1="316.22" y1="523.96" x2="316.22" y2="523.96"/>
        <line class="cls-6" x1="324.2" y1="523.96" x2="495.84" y2="523.96"/>
        <line class="cls-5" x1="499.84" y1="523.96" x2="499.84" y2="523.96"/>
        <line class="cls-5" x1="316.22" y1="530.3" x2="316.22" y2="530.3"/>
        <line class="cls-6" x1="324.2" y1="530.3" x2="495.84" y2="530.3"/>
        <line class="cls-5" x1="499.84" y1="530.3" x2="499.84" y2="530.3"/>
        <line class="cls-5" x1="316.22" y1="536.64" x2="316.22" y2="536.64"/>
        <line class="cls-6" x1="324.2" y1="536.64" x2="495.84" y2="536.64"/>
        <line class="cls-5" x1="499.84" y1="536.64" x2="499.84" y2="536.64"/>
        <line class="cls-5" x1="316.22" y1="542.99" x2="316.22" y2="542.99"/>
        <line class="cls-6" x1="324.2" y1="542.99" x2="495.84" y2="542.99"/>
        <line class="cls-5" x1="499.84" y1="542.99" x2="499.84" y2="542.99"/>
        <line class="cls-5" x1="316.22" y1="549.33" x2="316.22" y2="549.33"/>
        <line class="cls-6" x1="324.2" y1="549.33" x2="495.84" y2="549.33"/>
        <line class="cls-5" x1="499.84" y1="549.33" x2="499.84" y2="549.33"/>
        <line class="cls-5" x1="316.22" y1="555.68" x2="316.22" y2="555.68"/>
        <line class="cls-6" x1="324.2" y1="555.68" x2="495.84" y2="555.68"/>
        <line class="cls-5" x1="499.84" y1="555.68" x2="499.84" y2="555.68"/>
        <line class="cls-5" x1="316.22" y1="562.02" x2="316.22" y2="562.02"/>
        <line class="cls-6" x1="324.2" y1="562.02" x2="495.84" y2="562.02"/>
        <line class="cls-5" x1="499.84" y1="562.02" x2="499.84" y2="562.02"/>
        <line class="cls-5" x1="316.22" y1="568.36" x2="316.22" y2="568.36"/>
        <line class="cls-6" x1="324.2" y1="568.36" x2="495.84" y2="568.36"/>
        <line class="cls-5" x1="499.84" y1="568.36" x2="499.84" y2="568.36"/>
        <line class="cls-5" x1="316.22" y1="574.71" x2="316.22" y2="574.71"/>
        <line class="cls-6" x1="324.2" y1="574.71" x2="495.84" y2="574.71"/>
        <line class="cls-5" x1="499.84" y1="574.71" x2="499.84" y2="574.71"/>
        <line class="cls-5" x1="316.22" y1="581.05" x2="316.22" y2="581.05"/>
        <line class="cls-6" x1="324.2" y1="581.05" x2="495.84" y2="581.05"/>
        <line class="cls-5" x1="499.84" y1="581.05" x2="499.84" y2="581.05"/>
        <line class="cls-5" x1="316.22" y1="587.39" x2="316.22" y2="587.39"/>
        <line class="cls-6" x1="324.2" y1="587.39" x2="495.84" y2="587.39"/>
        <line class="cls-5" x1="499.84" y1="587.39" x2="499.84" y2="587.39"/>
        <circle class="cls-7" cx="167.3" cy="601.26" r="41.43"/>
        <circle class="cls-4" cx="183.92" cy="335.67" r="25"/>
        <circle class="cls-7" cx="674.87" cy="448.98" r="62.52"/>
        <circle class="cls-7" cx="185.84" cy="181.1" r="71.93" transform="translate(36.91 313.48) rotate(-45)"/>
        <circle class="cls-8" cx="385.08" cy="349.9" r="12"/>
        <circle class="cls-7" cx="320.2" cy="346.6" r="18.3" transform="translate(9.53 262.91) rotate(-20.47)"/>
        <circle class="cls-8" cx="596.3" cy="485.59" r="9.4"/>
        <rect class="cls-7" x="626.2" y="182.69" width="97.33" height="8"/>
        <rect class="cls-7" x="92.59" y="493.75" width="145.17" height="8"/>
        <rect class="cls-7" x="60.7" y="508.11" width="145.17" height="8"/>
        <rect class="cls-7" x="30.7" y="471.62" width="145.17" height="8"/>
        <rect class="cls-7" x="569.56" y="146.89" width="145.17" height="8"/>
        <rect class="cls-7" x="537.68" y="161.25" width="145.17" height="8"/>
        <line class="cls-9" x1="665.2" y1="235.36" x2="789.53" y2="111.02"/>
        <line class="cls-9" x1="708.53" y1="264.56" x2="832.87" y2="140.23"/>
        <line class="cls-9" x1="732.37" y1="201.86" x2="799.2" y2="135.02"/>
        <line class="cls-9" x1="665.2" y1="274.77" x2="704.62" y2="235.36"/>
        <line class="cls-9" x1="802.7" y1="206.4" x2="842.12" y2="166.98"/>
        <line class="cls-9" x1="669.12" y1="202.4" x2="708.53" y2="162.98"/>
        <line class="cls-9" x1="99" y1="684.24" x2="223.34" y2="559.9"/>
        <line class="cls-9" x1="120.9" y1="627.8" x2="208" y2="540.7"/>
        <line class="cls-9" x1="228.45" y1="619.45" x2="278.84" y2="569.07"/>
        <line class="cls-9" x1="167.77" y1="544.71" x2="205" y2="507.47"/>
        <line class="cls-9" x1="195.4" y1="614.26" x2="272.11" y2="537.55"/>
        <line class="cls-9" x1="91.06" y1="636.61" x2="167.77" y2="559.9"/>
        <line class="cls-9" x1="233.75" y1="549.9" x2="281.38" y2="502.28"/>
        <line class="cls-9" x1="167.3" y1="382.52" x2="167.3" y2="390.52"/>
        <line class="cls-9" x1="171.3" y1="386.52" x2="163.3" y2="386.52"/>
        <line class="cls-9" x1="296.37" y1="603.63" x2="296.37" y2="611.63"/>
        <line class="cls-9" x1="300.37" y1="607.63" x2="292.37" y2="607.63"/>
        <line class="cls-9" x1="286.86" y1="471.62" x2="286.86" y2="479.62"/>
        <line class="cls-9" x1="290.86" y1="475.62" x2="282.86" y2="475.62"/>
        <line class="cls-9" x1="146.53" y1="432.49" x2="146.53" y2="440.49"/>
        <line class="cls-9" x1="150.53" y1="436.49" x2="142.53" y2="436.49"/>
        <line class="cls-9" x1="133.29" y1="448.98" x2="133.29" y2="456.98"/>
        <line class="cls-9" x1="137.29" y1="452.98" x2="129.29" y2="452.98"/>
        <line class="cls-9" x1="224.45" y1="504.02" x2="224.45" y2="512.02"/>
        <line class="cls-9" x1="228.45" y1="508.02" x2="220.45" y2="508.02"/>
        <line class="cls-9" x1="330.77" y1="485.59" x2="330.77" y2="493.59"/>
        <line class="cls-9" x1="334.77" y1="489.59" x2="326.77" y2="489.59"/>
        <line class="cls-9" x1="292.37" y1="524.46" x2="292.37" y2="532.46"/>
        <line class="cls-9" x1="296.37" y1="528.46" x2="288.37" y2="528.46"/>
        <line class="cls-9" x1="360.57" y1="593.26" x2="360.57" y2="601.26"/>
        <line class="cls-9" x1="364.57" y1="597.26" x2="356.57" y2="597.26"/>
        <line class="cls-9" x1="608.53" y1="360.46" x2="608.53" y2="368.46"/>
        <line class="cls-9" x1="612.53" y1="364.46" x2="604.53" y2="364.46"/>
        <line class="cls-9" x1="441.43" y1="278.25" x2="441.43" y2="286.25"/>
        <line class="cls-9" x1="445.43" y1="282.25" x2="437.43" y2="282.25"/>
        <line class="cls-9" x1="412.03" y1="289.42" x2="412.03" y2="297.42"/>
        <line class="cls-9" x1="416.03" y1="293.42" x2="408.03" y2="293.42"/>
        <line class="cls-9" x1="561.2" y1="518.16" x2="561.2" y2="526.16"/>
        <line class="cls-9" x1="565.2" y1="522.16" x2="557.2" y2="522.16"/>
        <line class="cls-9" x1="233.75" y1="520.46" x2="233.75" y2="528.46"/>
        <line class="cls-9" x1="237.75" y1="524.46" x2="229.75" y2="524.46"/>
        <line class="cls-9" x1="125.87" y1="540.71" x2="125.87" y2="548.71"/>
        <line class="cls-9" x1="129.87" y1="544.71" x2="121.87" y2="544.71"/>
        <line class="cls-9" x1="194.93" y1="329.67" x2="194.93" y2="337.67"/>
        <line class="cls-9" x1="198.93" y1="333.67" x2="190.93" y2="333.67"/>
        <line class="cls-9" x1="207.53" y1="333.9" x2="207.53" y2="341.9"/>
        <line class="cls-9" x1="211.53" y1="337.9" x2="203.53" y2="337.9"/>
        <line class="cls-9" x1="596.3" y1="376.89" x2="596.3" y2="384.89"/>
        <line class="cls-9" x1="600.3" y1="380.89" x2="592.3" y2="380.89"/>
        <line class="cls-9" x1="448.78" y1="288.12" x2="448.78" y2="296.12"/>
        <line class="cls-9" x1="452.78" y1="292.12" x2="444.78" y2="292.12"/>
        <line class="cls-9" x1="426.73" y1="330.88" x2="426.73" y2="338.88"/>
        <line class="cls-9" x1="430.73" y1="334.88" x2="422.73" y2="334.88"/>
        <line class="cls-9" x1="623.59" y1="383.46" x2="623.59" y2="391.46"/>
        <line class="cls-9" x1="627.59" y1="387.46" x2="619.59" y2="387.46"/>
        <line class="cls-9" x1="547.87" y1="510.16" x2="547.87" y2="518.16"/>
        <line class="cls-9" x1="551.87" y1="514.16" x2="543.87" y2="514.16"/>
        <line class="cls-9" x1="723.53" y1="376.89" x2="723.53" y2="384.89"/>
        <line class="cls-9" x1="727.53" y1="380.89" x2="719.53" y2="380.89"/>
        <line class="cls-9" x1="676.88" y1="171.36" x2="676.88" y2="179.36"/>
        <line class="cls-9" x1="680.88" y1="175.36" x2="672.88" y2="175.36"/>
        <line class="cls-9" x1="634.92" y1="149.13" x2="634.92" y2="157.13"/>
        <line class="cls-9" x1="638.92" y1="153.13" x2="630.92" y2="153.13"/>
        <line class="cls-9" x1="642.14" y1="142.89" x2="642.14" y2="150.89"/>
        <line class="cls-9" x1="646.14" y1="146.89" x2="638.14" y2="146.89"/>
        <line class="cls-9" x1="642.14" y1="189.03" x2="642.14" y2="197.03"/>
        <line class="cls-9" x1="646.14" y1="193.03" x2="638.14" y2="193.03"/>
        <line class="cls-9" x1="789.53" y1="210.32" x2="789.53" y2="218.32"/>
        <line class="cls-9" x1="793.53" y1="214.32" x2="785.53" y2="214.32"/>
        <line class="cls-9" x1="832.87" y1="207.24" x2="832.87" y2="215.24"/>
        <line class="cls-9" x1="836.87" y1="211.24" x2="828.87" y2="211.24"/>
        <line class="cls-9" x1="604.53" y1="168.89" x2="604.53" y2="176.89"/>
        <line class="cls-9" x1="608.53" y1="172.89" x2="600.53" y2="172.89"/>
        <line class="cls-9" x1="653.53" y1="214.32" x2="653.53" y2="222.32"/>
        <line class="cls-9" x1="657.53" y1="218.32" x2="649.53" y2="218.32"/>
        <line class="cls-9" x1="822.41" y1="229.3" x2="822.41" y2="237.3"/>
        <line class="cls-9" x1="826.41" y1="233.3" x2="818.41" y2="233.3"/>
        <line class="cls-9" x1="676.88" y1="404.19" x2="676.88" y2="412.19"/>
        <line class="cls-9" x1="680.88" y1="408.19" x2="672.88" y2="408.19"/>
        <line class="cls-9" x1="224.24" y1="599.63" x2="224.24" y2="607.63"/>
        <line class="cls-9" x1="228.24" y1="603.63" x2="220.24" y2="603.63"/>
        <circle class="cls-7" cx="435.05" cy="175.74" r="35.5"/>
        <line class="cls-5" x1="416.93" y1="191.14" x2="416.93" y2="191.14"/>
        <line class="cls-10" x1="424.82" y1="191.14" x2="586.65" y2="191.14"/>
        <line class="cls-5" x1="590.59" y1="191.14" x2="590.59" y2="191.14"/>
        <line class="cls-5" x1="416.93" y1="197.14" x2="416.93" y2="197.14"/>
        <line class="cls-10" x1="424.82" y1="197.14" x2="586.65" y2="197.14"/>
        <line class="cls-5" x1="590.59" y1="197.14" x2="590.59" y2="197.14"/>
        <line class="cls-5" x1="416.93" y1="203.14" x2="416.93" y2="203.14"/>
        <line class="cls-10" x1="424.82" y1="203.14" x2="586.65" y2="203.14"/>
        <line class="cls-5" x1="590.59" y1="203.14" x2="590.59" y2="203.14"/>
        <line class="cls-5" x1="416.93" y1="209.14" x2="416.93" y2="209.14"/>
        <line class="cls-10" x1="424.82" y1="209.14" x2="586.65" y2="209.14"/>
        <line class="cls-5" x1="590.59" y1="209.14" x2="590.59" y2="209.14"/>
        <line class="cls-5" x1="416.93" y1="215.14" x2="416.93" y2="215.14"/>
        <line class="cls-10" x1="424.82" y1="215.14" x2="586.65" y2="215.14"/>
        <line class="cls-5" x1="590.59" y1="215.14" x2="590.59" y2="215.14"/>
        <line class="cls-5" x1="416.93" y1="221.14" x2="416.93" y2="221.14"/>
        <line class="cls-10" x1="424.82" y1="221.14" x2="586.65" y2="221.14"/>
        <line class="cls-5" x1="590.59" y1="221.14" x2="590.59" y2="221.14"/>
        <line class="cls-5" x1="416.93" y1="227.14" x2="416.93" y2="227.14"/>
        <line class="cls-10" x1="424.82" y1="227.14" x2="586.65" y2="227.14"/>
        <line class="cls-5" x1="590.59" y1="227.14" x2="590.59" y2="227.14"/>
        <line class="cls-5" x1="416.93" y1="233.14" x2="416.93" y2="233.14"/>
        <line class="cls-10" x1="424.82" y1="233.14" x2="586.65" y2="233.14"/>
        <line class="cls-5" x1="590.59" y1="233.14" x2="590.59" y2="233.14"/>
        <line class="cls-5" x1="416.93" y1="239.14" x2="416.93" y2="239.14"/>
        <line class="cls-10" x1="424.82" y1="239.14" x2="586.65" y2="239.14"/>
        <line class="cls-5" x1="590.59" y1="239.14" x2="590.59" y2="239.14"/>
        <line class="cls-5" x1="416.93" y1="245.14" x2="416.93" y2="245.14"/>
        <line class="cls-10" x1="424.82" y1="245.14" x2="586.65" y2="245.14"/>
        <line class="cls-5" x1="590.59" y1="245.14" x2="590.59" y2="245.14"/>
        <line class="cls-5" x1="416.93" y1="251.14" x2="416.93" y2="251.14"/>
        <line class="cls-10" x1="424.82" y1="251.14" x2="586.65" y2="251.14"/>
        <line class="cls-5" x1="590.59" y1="251.14" x2="590.59" y2="251.14"/>
        <line class="cls-5" x1="416.93" y1="257.14" x2="416.93" y2="257.14"/>
        <line class="cls-10" x1="424.82" y1="257.14" x2="586.65" y2="257.14"/>
        <line class="cls-5" x1="590.59" y1="257.14" x2="590.59" y2="257.14"/>
        <line class="cls-5" x1="416.93" y1="263.14" x2="416.93" y2="263.14"/>
        <line class="cls-10" x1="424.82" y1="263.14" x2="586.65" y2="263.14"/>
        <line class="cls-5" x1="590.59" y1="263.14" x2="590.59" y2="263.14"/>
        <line class="cls-5" x1="416.93" y1="269.14" x2="416.93" y2="269.14"/>
        <line class="cls-10" x1="424.82" y1="269.14" x2="586.65" y2="269.14"/>
        <line class="cls-5" x1="590.59" y1="269.14" x2="590.59" y2="269.14"/>
    </g>
    <g class="cls-3">
        <path class="cls-11"
              d="M250,514.38c16.55-3.54,33.92-7,49.22-13.88,26.32-11.91,19.2-51,36.39-69.93,16.09-17.74,36.32-26.66,61.28-26.36,26.62.32,52.26,8,78.24,12.65,27.31,4.93,36.44-19.43,44.11-40.67,7.41-20.51,13.85-39.79,35.62-48.64,21.47-8.73,42.9-16.74,60.91-29.92,23.61-17.27,29.74-33.69,23.39-63.24-4.7-21.9,1-43.7,17-59.82,16.25-16.45,38-24.23,59.82-27.48,31-4.61,63.93,10.55,96.28,6.74,14.19-1.67,28.61-10.14,34.38-23.63"
              transform="translate(110.53 129.02)"/>
        <path class="cls-11"
              d="M252.51,516.51c16.71-3.77,34.15-7.31,49.77-13.88a36.89,36.89,0,0,0,4.84-2.52C329,486.82,325,453.2,340.48,435.26c15.62-18.14,34.9-27.55,59.67-27.53,26.45,0,51.46,7.46,77.19,12.44,24.05,4.66,34-12.05,41.81-31.52.92-2.29,1.79-4.79,2.68-7.33,6.33-18.05,11.46-37.29,29.23-47.23a56.76,56.76,0,0,1,6.05-2.94c20.63-8.54,40.5-16.48,59-28.9,8.89-6,18.59-13.47,24.13-21.72,8.37-12.45,7.83-25.53,4.61-41.23a118.66,118.66,0,0,1-2.72-19.94c-.44-14.15,6.73-29.38,15.93-39.68A77.66,77.66,0,0,1,677.57,164a107.75,107.75,0,0,1,38.53-12.68c14.5-1.95,29.55.72,44.06,2.67,17.52,2.36,35.77,5,53.48,2.89,14.36-1.75,28.13-10.24,34.56-23.42"
              transform="translate(110.53 129.02)"/>
        <path class="cls-11"
              d="M255,518.66c16.85-4,34.29-7.72,50.28-13.95a40.9,40.9,0,0,0,5-2.38c22.28-12.2,20.35-44.6,35.18-62.25,15.17-18.05,33.15-28.57,57.92-28.84,26.38-.28,50.57,6.9,76.1,12.18,23.86,4.93,34.05-10,42.2-29.57.94-2.26,1.84-4.75,2.73-7.3,6.28-17.84,11.39-39,29.06-48.92a54.9,54.9,0,0,1,5.85-2.86c19.85-8.25,38.93-16.08,56.82-27.87,9.12-6,18.83-13.34,25.36-21.4,10-12.37,12-24.7,9-41.27-1.11-6-2.46-13-3.15-19.89-1.44-14.29,3.74-28.55,12.44-39.6a69.14,69.14,0,0,1,18.18-16c11.46-7,24.77-11.22,37.93-13.19,14.77-2.22,30.08.4,44.89,2.13C778.65,159.76,797,162.3,815,160a46.26,46.26,0,0,0,34.71-23.21"
              transform="translate(110.53 129.02)"/>
        <path class="cls-11"
              d="M257.48,520.81c17-4.31,34.41-8.16,50.72-14.06a49.44,49.44,0,0,0,5.13-2.26c22.68-11.31,22.74-41.83,37.15-59.5,14.71-18,31.36-29.52,56-30.35,26.26-.88,49.82,6.41,75.09,11.87,22.59,4.88,34.68-7.29,42.61-27.44.9-2.26,1.89-4.69,2.79-7.23,6.14-17.28,11.25-41.1,28.9-50.66a61.66,61.66,0,0,1,5.64-2.8c19-8,37.23-15.53,54.41-26.82,9.32-6.12,18.81-13.43,26.09-21,11.16-11.67,16.38-23.91,13.76-41.26-.9-5.94-2.26-13-3.25-19.81-2-14.11.71-27.92,8.77-39.67A61.7,61.7,0,0,1,678,173.37c11.09-7.37,24.32-11.6,37.34-13.69,15.12-2.44,30.85.08,46,1.66,18.18,1.9,36.85,4.21,55.07,1.75a48.29,48.29,0,0,0,34.83-23"
              transform="translate(110.53 129.02)"/>
        <path class="cls-11"
              d="M260,523c17-4.64,34.5-8.64,51.1-14.25,1.82-.61,3.57-1.37,5.26-2.13,23-10.43,25.13-38.69,39.24-56.63,14.26-18.13,29.45-30.62,53.88-32,26.19-1.5,49.35,5.83,74.2,11.51,23.27,5.31,34.07-5.56,43-25.17,1-2.15,1.92-4.61,2.83-7.12C535.84,379.65,540.8,355.57,558,345a40.24,40.24,0,0,1,5.74-2.95c18.19-7.62,35.49-14.92,51.9-25.77A192.88,192.88,0,0,0,642,295.57c11.66-11.17,20.44-23.46,18.73-41.13-.57-5.91-1.78-12.93-2.93-19.7-2.25-13.34-2.06-27.92,5.15-39.91A56.21,56.21,0,0,1,678,178c10.68-7.76,23.9-12.06,36.77-14.21,15.53-2.59,31.75-.2,47.41,1.25,18.41,1.7,37.34,3.78,55.72,1.14,14.61-2.11,26.82-10.7,34.91-22.83"
              transform="translate(110.53 129.02)"/>
        <path class="cls-11"
              d="M262.47,525.12c17.1-5,34.65-9.28,51.43-14.48,1.85-.57,3.65-1.31,5.38-2,22.41-9.26,28.81-36,41.29-53.78,12.78-18.22,27.7-31.69,51.75-33.73,26-2.2,48.8,5.45,73.46,11.13,22.93,5.28,34-3.14,43.41-22.8,1-2.09,2-4.5,2.89-7,6.54-17.7,11.42-41.9,28.12-53.37a39.57,39.57,0,0,1,5.58-3.19c17.07-7.9,33.85-14.45,49.56-25a234.22,234.22,0,0,0,26.12-20.23c11.59-10.52,24-23.51,23.67-40.91A136.75,136.75,0,0,0,663,240.23c-2.24-13.13-3.81-27.82,1.83-40.29a46.54,46.54,0,0,1,13.42-17.28c10.24-8.18,23.47-12.47,36.3-14.68,16-2.76,32.69-.5,48.73.81,18.57,1.51,37.73,3.35,56.2.5,14.64-2.25,26.39-10.9,35-22.64"
              transform="translate(110.53 129.02)"/>
        <path class="cls-11"
              d="M265,527.27c17.11-5.37,34.68-9.76,51.7-14.77,1.88-.55,3.72-1.26,5.5-1.94,22.67-8.62,31-32.7,43.17-51.11s26-32.68,49.7-35.34c25.77-2.89,48.44,5.15,72.9,10.75,22.45,5.15,33.88-.91,43.77-20.4a71.85,71.85,0,0,0,2.94-6.8c6.77-17.82,11.67-42,28-54.12a37,37,0,0,1,5.49-3.39c16-8.06,32.3-14.43,47.15-24.62a290.71,290.71,0,0,0,25.43-19.76c11.9-10.33,26.59-23.43,28.33-40.62.59-5.85,0-12.59-1-19.21-2-13.18-4.41-27.51-.54-40.5a38.49,38.49,0,0,1,11.27-18c10.08-9,23.18-12.63,35.86-15.16,15.81-3.15,33.5-.35,49.86.34,18.64.78,38.11,2.82,56.49-.18,14.59-2.37,25.94-11.13,35-22.46"
              transform="translate(110.53 129.02)"/>
        <path class="cls-11"
              d="M267.43,529.41c17.11-5.78,34.69-10.27,51.93-15.12,1.92-.54,3.78-1.21,5.6-1.85,23.12-8.14,32.83-29.42,44.84-48.65,11.52-18.43,24.49-33.6,47.77-36.83,25.5-3.53,48.31,4.93,72.54,10.39,19.91,4.49,34.86,1.67,44.09-18,.94-2,2.06-4.22,3-6.58,7-17.84,12.08-42,28-54.47a36.22,36.22,0,0,1,5.45-3.56c15.16-8,30.85-14.63,44.82-24.58,8.33-5.93,16.74-12.68,24.51-19.28,12.7-10.78,27.65-23.54,32.19-40.27,1.51-5.56,1.37-12.27.67-18.73-1.42-13.22-4.3-27.18-1.8-40.37,1.33-7,3.77-14.09,8.86-19.22,9.48-9.58,22.75-13.06,35.33-15.66,16.05-3.32,34.07-.61,50.71-.19,18.65.47,38.23,2.32,56.53-.9,14.54-2.55,25.5-11.39,35-22.29"
              transform="translate(110.53 129.02)"/>
        <path class="cls-11"
              d="M269.89,531.53C287,525.32,304.55,520.74,322,516c1.94-.53,3.83-1.17,5.68-1.78C351.27,506.49,362,487.9,374,467.8c11-18.5,23.09-34.44,46-38.15,25.17-4.07,48.36,4.77,72.38,10,19,4.15,34.88,3.29,44.35-15.72,1-1.92,2.09-4,3-6.33,7.45-17.82,12.66-41.64,28.38-54.39a36.65,36.65,0,0,1,5.47-3.69c14.58-7.94,29.51-14.94,42.69-24.85,7.82-5.88,15.93-12.37,23.46-18.82,13.11-11.25,27.29-23.4,34.64-39.57,2.72-6,3.29-12.14,3-18.38-.49-13.13-3.5-26.73-1.93-39.84.86-7.16,2.69-14.84,6.85-20.52,7.74-10.58,22.13-13.8,34.23-16.46,16.13-3.55,34.41-.93,51.18-.8,18.58.13,38.19,1.77,56.31-1.68,14.47-2.75,25.08-11.65,35-22.12"
              transform="translate(110.53 129.02)"/>
        <path class="cls-11"
              d="M272.34,533.64c17-6.66,34.61-11.34,52.23-16,2-.52,3.88-1.13,5.76-1.71,24-7.43,35.53-23.54,47.43-44.51,10.52-18.54,21.84-35.2,44.44-39.27,24.84-4.48,48.71,5.25,72.42,9.69,17.88,3.36,34.63,5.05,44.55-13.56,1-1.82,2.16-3.86,3.2-6.07,8.32-17.66,13.2-40.92,28.9-53.84a36.51,36.51,0,0,1,5.54-3.77c14.37-7.9,28-14.81,41-25.42,7.44-6.09,15-12.13,22.22-18.4,13.12-11.45,26.85-23.45,35.82-38.72a41,41,0,0,0,5.75-18c.83-12.81-2-26.09-.94-38.88.6-7.22,1.94-15.18,5.52-21.54,6.72-12,20.39-14.94,32.51-17.93,15.87-3.91,34.43-1.3,51.2-1.49,18.4-.22,37.93,1.17,55.79-2.52,14.38-3,24.67-11.93,35-21.95"
              transform="translate(110.53 129.02)"/>
        <path class="cls-11"
              d="M274.78,535.74c17-7.14,34.51-11.92,52.29-16.47,2-.5,3.92-1.1,5.83-1.66,24.39-7.18,36.49-21.05,48.31-42.86,10.07-18.55,20.75-35.83,43.1-40.15,24.55-4.74,49.07,5.1,72.65,9.35,17,3.06,34.5,5.55,44.71-11.65,1-1.72,2.32-3.61,3.41-5.68,9.09-17.26,14-40,29.62-52.89a36.74,36.74,0,0,1,5.66-3.83c14.45-7.87,28-14.9,39.83-26.23,5-4.86,13-11.06,20.71-18,12.84-11.65,26-23.54,36-37.92,3.92-5.65,7.08-11.81,8.25-17.41,2.54-12.15.24-25.19,1.18-37.47.55-7.2,1.36-16.25,4.75-22.35,6.66-12,16.35-15.91,30.46-19.91,15.67-4.44,34-2.56,50.71-2.3,18.23.27,37.27.64,55-3.42,14.34-3.29,24.31-12.22,35-21.78"
              transform="translate(110.53 129.02)"/>
        <path class="cls-11"
              d="M277.2,537.82c16.84-7.64,34.44-12.53,52.31-17,2-.5,4-1.08,5.89-1.62,24.59-6.93,37.22-19,48.91-41.49,9.67-18.55,19.83-36.38,42-40.78,24.35-4.82,49.51,5,73.05,9,16.41,2.8,34.06,5.69,44.85-9.94,1.08-1.57,2.47-3.3,3.62-5.22,10-16.68,14.9-38.93,30.58-51.57a36.28,36.28,0,0,1,5.82-3.86c14.7-7.81,28.61-14.24,39.63-26.82,4.61-5.27,11.51-11.18,18.69-18.06,12.31-11.8,24.83-23.67,35.31-37.22A78,78,0,0,0,688,276.45c4.56-11.06,3.24-23.92,4.4-35.57.71-7.11,1.41-16.32,4.57-23,5.85-12.29,14.94-17.43,28.36-22.23,14.7-5.26,33.38-3.27,49.59-3.31,17.86,0,36.49-.09,53.81-4.39,14.25-3.53,24-12.5,35-21.6"
              transform="translate(110.53 129.02)"/>
        <path class="cls-11"
              d="M279.62,539.9c16.69-8.17,34.34-13.18,52.27-17.64,2-.5,4-1.06,5.93-1.59C362.4,514,375.63,503,387.07,480.28c9.29-18.44,19.13-36.85,41.21-41.11,24.26-4.7,49.93,4.77,73.55,8.54,16.12,2.57,33.44,6,45-8.43,1.12-1.4,2.58-3,3.8-4.71,11-15.92,16-37.59,31.79-49.91a37,37,0,0,1,6-3.86c15.13-7.73,29.36-13.3,40.23-27A242.83,242.83,0,0,1,645,335.11c11.6-11.95,23.34-23.87,34-36.71a132.7,132.7,0,0,0,11.17-15.84c6.17-10.2,6.85-22,8.61-33.39,1.07-6.95,1.89-16.25,5-23.34,5.35-12.36,13.86-18.6,26.63-24.45,13.63-6.24,32.17-4.56,47.56-4.85,17.32-.33,36.29-.45,52.29-5.44,13.83-4.3,23.06-13,35-21.41"
              transform="translate(110.53 129.02)"/>
        <path class="cls-11"
              d="M282,542c16.51-8.71,34.2-13.85,52.17-18.31,2-.5,4-1,6-1.57,24.28-6.44,38.22-16.8,49.36-39.53,9-18.35,18.68-37.25,40.69-41.15,24.34-4.32,50.23,4.52,74.14,8,16.11,2.36,32.74,5.69,45.34-7.21,1.18-1.21,2.41-2.54,3.7-4.12,12.12-14.92,17.42-36,33.26-47.9a38.55,38.55,0,0,1,6.25-3.83c15.64-7.6,30.41-12.2,41.33-26.94,4.42-6,8-12.73,14.08-19.62,10.68-12.16,21.57-24.17,32.11-36.46,4.41-5.15,8.39-10.62,11.75-15,7-9.13,10.1-19.58,13-30.76,1.77-6.79,2.85-16,5.95-23.5,5.11-12.38,13.25-20,25.21-26.68,12.47-7,30-6.11,44.86-6.75,16.84-.72,34.12-1.8,50.46-6.46,14.5-4.14,23.13-13.51,35.14-21.22"
              transform="translate(110.53 129.02)"/>
        <path class="cls-11"
              d="M284.43,544c16.3-9.27,34-14.54,52-19,2-.5,4-1,6-1.56,24.07-6.28,38.28-16.6,49.26-38.87,8.9-18.05,19.1-38.27,40.51-40.87,24.19-2.93,50,4,74.74,7.35,16,2.18,32.28,5.06,45.77-6.28a35.15,35.15,0,0,0,3.75-3.55C569.1,427,575.3,407,591.15,395.71a38.69,38.69,0,0,1,6.51-3.78c15.57-7,32.53-11.52,42.63-26.73,4.12-6.21,8.24-13.63,12.61-20.56,8.06-12.8,19.24-24.84,29.43-36.65,4.33-5,8.43-10.11,12-14.26a100.12,100.12,0,0,0,17.16-27.79c2.65-6.38,4.58-14.64,7.55-23.44,4.17-12.33,13.59-22.2,24.11-28.91,12-7.61,27.93-7.59,41.93-8.83,16.13-1.43,32.55-2.76,48-7.47,14.22-4.32,23-13.82,35.24-21"
              transform="translate(110.53 129.02)"/>
        <path class="cls-11"
              d="M286.84,546.1c16-9.87,33.8-15.28,51.82-19.81,2-.51,4-1.06,6-1.57,23.78-6.12,38.1-16.88,49-38.37,9-17.64,18.91-38,40.72-40.22,24.62-2.49,50.36,3.49,75.22,6.45,16,1.91,32,4.21,46.24-5.6a28.17,28.17,0,0,0,3.86-3c13.16-12.91,20.35-32.25,36.12-42.77a40.59,40.59,0,0,1,6.79-3.69c15.66-6.56,34.54-10.78,43.91-26.51,3.83-6.42,7.91-13.89,11.88-21.27,7.16-13.31,16.47-25.6,26.38-37.34,4.17-4.94,8.27-9.74,12-13.66,7.57-8.07,14.9-15.56,20.66-24.68,3.67-5.8,6.37-14.14,9.79-23.3,4.64-12.42,13.34-23,23.38-30.92,10.59-8.37,25.72-9.19,38.89-10.95,15.14-2,30.61-3.87,45.11-8.47,14-4.45,23-14.13,35.33-20.84"
              transform="translate(110.53 129.02)"/>
        <path class="cls-11"
              d="M289.26,548.18c15.73-10.49,33.52-16,51.55-20.67,2-.51,4-1.08,6-1.58,23.22-5.84,37.71-17.47,48.61-38.06,9.26-17.48,19-37.29,41.39-39.18,25.07-2.11,50.53,2.86,75.5,5.37,16,1.61,32,3.21,46.69-5.16a28.12,28.12,0,0,0,4-2.58c14-11.48,21.85-29.94,37.69-39.76a42.4,42.4,0,0,1,7.09-3.58c16-6.21,36-9.87,45-26.34,3.6-6.61,7.65-14.1,11.35-21.82a193.82,193.82,0,0,1,23.76-38.3,150.67,150.67,0,0,1,11.75-13.25c7.53-7.34,16.26-14.24,23.12-21.66,4.81-5.19,8.64-13.69,12.68-23.07a101.82,101.82,0,0,1,23.08-32.61c9.12-8.79,23.7-11,35.83-13,14-2.38,28.48-4.94,42-9.48s22.78-14.4,35.15-20.58"
              transform="translate(110.53 129.02)"/>
        <path class="cls-11"
              d="M291.69,550.27c15.38-11.13,33.2-16.85,51.23-21.57,2-.53,4-1.12,6-1.61,22.55-5.57,37.12-18.24,48.22-37.85,10-17.59,19.47-36,42.35-37.83,25.29-2,50.59,2,75.59,4.07,16,1.29,32,2.15,47.09-4.93a31.09,31.09,0,0,0,4.09-2.19c15-10,23.46-27.44,39.37-36.55a46.74,46.74,0,0,1,7.39-3.44c18.91-6.73,35.21-8.76,45.76-26.29,3.9-6.48,7.35-14.44,10.93-22.27,6.27-13.71,12.8-27.21,21.86-39.32A95.38,95.38,0,0,1,703,307.43c7.51-6.85,16.44-12.78,24.22-19,7.11-5.7,12-14.6,16.24-22.6a178.62,178.62,0,0,1,23.29-33.93c8-9.18,21.34-12.39,32.8-15,12.95-3,26.35-6,38.86-10.51,13.07-4.7,22.36-14.62,34.59-20.23"
              transform="translate(110.53 129.02)"/>
        <path class="cls-11"
              d="M294.14,552.39c15-11.78,32.82-17.71,50.84-22.56,2-.53,4-1.13,6-1.63,22-5.56,36.33-18.91,47.91-37.71,11.06-17.95,20.58-34,43.53-36.21,25-2.4,50.51,1.11,75.48,2.58,16,.95,32,1.11,47.39-4.87a36.29,36.29,0,0,0,4.2-1.86c15.63-8.55,25.24-24.89,41.16-33.24a50.35,50.35,0,0,1,7.7-3.28c19.83-6.44,35.67-7.7,46.08-26.41,3.74-6.71,7-14.78,10.58-22.64,6.16-13.64,12.43-27.81,20.88-40.2A70.11,70.11,0,0,1,707,311.24c7.36-6.44,16-11.73,24.18-17.22s14.89-13.32,20-21.63c7.33-11.92,15.64-23.57,24.05-34.84,7-9.42,19-13.61,29.9-16.82,11.94-3.53,24-7.24,35.76-11.51,12.63-4.57,21.71-14.75,33.7-19.8"
              transform="translate(110.53 129.02)"/>
        <path class="cls-11"
              d="M296.59,554.5C311.36,542.21,328.9,536,347,530.93c2-.55,4-1.14,6-1.66,21.69-5.78,35.5-19.51,47.69-37.56,12.05-17.84,22.43-31.73,44.91-34.38,24.67-2.89,50.28,0,75.15.9,16,.58,32,.1,47.55-5a43.48,43.48,0,0,0,4.3-1.6c16.1-7.27,27.08-22.26,43-29.87a54.9,54.9,0,0,1,8-3.11c20.71-6.1,35.79-6.84,45.95-26.72,3.56-6.95,6.67-15.13,10.24-23a418.33,418.33,0,0,1,20.9-40.78,55.85,55.85,0,0,1,10.81-13.45c7.23-6.24,16-10.84,24.12-16.09a94.69,94.69,0,0,0,22.61-20.42c8.7-10.8,17.38-23.44,25.43-35.34,6.67-9.85,16.76-14.2,27.19-18.43s22-8.13,32.72-12.46c11.93-4.8,21-14,32.55-19.31"
              transform="translate(110.53 129.02)"/>
        <path class="cls-11"
              d="M299,556.61c14.68-12.69,31.68-19.34,50-24.6,2-.57,4-1.13,6-1.71,21.33-6.31,35.14-20.09,47.61-37.38,12.08-16.75,25.36-29.4,46.43-32.33,24.43-3.39,49.79-1.21,74.57-1,16,.14,32-.83,47.58-5.24,1.45-.41,3-.84,4.39-1.38,16.46-6.22,28.85-19.64,44.92-26.56a59.21,59.21,0,0,1,8.27-2.9c21.55-5.72,35.56-6.22,45.34-27.23,3.35-7.2,6.32-15.33,9.86-23.27,6.31-14.18,14.92-27.53,21.94-40.84a50.1,50.1,0,0,1,10.62-14.1c7.28-6.33,16.46-10.68,24.69-15.73a120,120,0,0,0,23.28-19A217.05,217.05,0,0,0,792,247.93c5.74-9.28,15.07-15.44,24.75-19.82s19.84-9.1,29.77-13.33c11.3-4.83,19.94-14.14,31.18-18.78"
              transform="translate(110.53 129.02)"/>
        <path class="cls-11"
              d="M301.49,558.72c14.62-13.05,31-20.15,49.48-25.67,2-.58,4-1.17,5.95-1.81,20.74-7,34.55-20.51,47.74-37.05,12.71-15.93,28-26.68,48-30.1,24-4.08,49.23-2.68,73.75-3.1,15.88-.26,31.84-1.69,47.45-5.61,1.48-.37,3-.76,4.47-1.22,16.71-5.39,30.5-17.1,46.77-23.38a66.23,66.23,0,0,1,8.52-2.67c22.36-5.32,35-5.83,44.3-27.93,3.13-7.43,5.89-15.62,9.44-23.55,6.43-14.37,16.58-27,23.92-40.24,3.29-5.94,6.65-11.54,10.59-15.07,7.37-6.59,16.93-10.94,25.34-16.05a135.52,135.52,0,0,0,22.86-17.8c11-10.55,22-21.7,29.85-34.88,5.34-9,13.71-15.9,22.66-21,8.69-4.94,17.73-10,27-14.13,10.68-4.81,18.77-14.14,29.64-18.2"
              transform="translate(110.53 129.02)"/>
        <path class="cls-11"
              d="M303.94,560.83c14.48-13.43,30.44-20.94,49-26.72,2-.62,3.94-1.3,5.83-2,20.17-7.61,34.12-20.81,48.12-36.53,13.44-15.08,30.33-23.78,49.71-27.69,23.6-4.76,48.49-4.36,72.69-5.44a258.52,258.52,0,0,0,47.17-6.09c1.49-.35,3-.7,4.51-1.12,16.82-4.76,32.44-14.6,48.52-20.39a66,66,0,0,1,8.74-2.43c23-4.84,34.32-5.89,42.92-28.77,2.88-7.65,5.42-15.9,8.95-23.81,6.45-14.46,16.53-26.63,26-39.11,4.55-6,7.4-12.32,11.46-16.11,7.45-6.94,17.19-11.46,25.79-17a188.26,188.26,0,0,0,22.41-17c11.62-10.19,23.82-20.57,31.75-33.77a72.79,72.79,0,0,1,21-21.89c7.7-5.31,15.7-10.74,24.27-14.84,10-4.8,17.59-14,28-17.6"
              transform="translate(110.53 129.02)"/>
        <path class="cls-11"
              d="M306.39,563c14-13.58,30.31-22,48.57-27.86,1.93-.62,3.86-1.44,5.71-2.21,19.6-8.19,33.89-21,48.75-35.81,14-14,32.55-21.41,51.53-25.4,23.39-4.92,47.48-6,71.22-7.73a318.67,318.67,0,0,0,46.74-6.67c1.5-.34,3.07-.67,4.55-1.06,17.08-4.42,33.35-12.58,50-17.68a80.72,80.72,0,0,1,8.92-2.17c23.37-4.32,33.52-6.39,41.33-29.69,2.64-7.87,4.94-16.17,8.41-24.07,6.43-14.61,17.25-26.29,27.82-37.91,5.14-5.64,9.07-12.75,13.29-16.6,7.51-6.87,17.15-12.27,25.89-18.43,5.76-4.06,13.2-9.36,21.83-16.43,12-9.81,24.65-19.51,33.46-32.33,5.81-8.46,11.84-16,19.82-22.59,7.47-6.14,13.88-11.45,21.79-15.47,8.74-4.45,16.61-14.67,26.47-17"
              transform="translate(110.53 129.02)"/>
        <path class="cls-11"
              d="M308.84,565.06c13.82-13.94,30-22.63,48.06-29,1.89-.67,3.79-1.57,5.61-2.41,19.06-8.73,34-21.12,49.64-34.85,14.56-12.77,34.44-19.44,53-23.38,23-4.88,46.59-7.39,69.84-9.83a384.29,384.29,0,0,0,46.16-7.32c1.5-.34,3.08-.67,4.57-1,17.16-4.27,34-11,50.93-15.35,2.93-.75,6.1-1.39,9.23-1.88,23.75-3.73,32.79-7.14,39.84-30.64,2.41-8,4.47-16.38,7.84-24.28,6.33-14.82,17.81-26.09,29.46-36.75,5.73-5.25,11.31-12,15.74-16.31,7.5-7.25,17.22-13.71,25.68-20.48,5.33-4.27,12.51-9.53,21.12-16.15,12.2-9.37,25.82-18.29,35.05-30.69,6-8.06,11.94-16.1,19.22-23.12,6.81-6.55,12.24-12,19.55-16,8.06-4.43,15.6-14.47,25-16.46"
              transform="translate(110.53 129.02)"/>
        <path class="cls-11"
              d="M311.29,567.17c13.62-14.33,29.67-23.13,47.53-30.3,1.86-.75,3.72-1.7,5.51-2.59,18.58-9.24,34.42-21.19,50.79-33.65,15-11.43,35.76-17.69,54.05-21.65,22.57-4.89,45.8-8.58,68.56-11.72,15.12-2.08,30.57-4.38,45.48-8,1.49-.37,3.06-.71,4.55-1.08,17.19-4.31,34.4-9.75,51.58-13.47,2.95-.64,6.11-1.18,9.23-1.59,23.63-3.09,32.29-8.34,38.58-31.46,2.22-8.14,4.08-16.53,7.28-24.43,6.12-15.08,18.11-26.06,30.71-35.75,6.31-4.85,12.93-9.95,18.5-15,8.43-7.68,17.15-15.53,25.35-23.13a239.38,239.38,0,0,1,20.29-16.16c12.38-9.06,26.81-17.46,36.53-28.93,6.32-7.46,12.5-16,19.28-23.49,6.3-6.94,10.85-12.54,17.59-16.57,7.43-4.43,14.64-14.26,23.69-15.92"
              transform="translate(110.53 129.02)"/>
        <path class="cls-11"
              d="M313.74,569.28c13.43-14.73,29.24-23.54,47-31.6,1.83-.83,3.66-1.83,5.42-2.77,18.16-9.71,35.19-21.26,52.19-32.17,15.64-10,36.22-16.12,54.63-20.22,22.24-5,45.07-9.56,67.44-13.39,14.87-2.55,30.11-4.86,44.7-8.8,1.47-.4,3-.76,4.52-1.15,17.13-4.56,34.67-8.86,52-12,3-.55,6.08-1,9.18-1.34,23.07-2.6,31.2-10.62,37.38-32.11,2.29-8,3.81-16.57,6.79-24.47,5.79-15.36,18-26.2,31.41-35,6.83-4.49,14.6-9,20.49-13.45,9.6-7.24,17.58-16.49,25.91-25.54a123.47,123.47,0,0,1,19.31-16.47c12.37-8.79,27.47-16.59,37.55-27,6.73-7,12.59-17,20.35-23.85,3.64-8.29,9.43-13.11,16-17.08,10.1-6.14,17.46-16.1,22.46-15.42"
              transform="translate(110.53 129.02)"/>
        <path class="cls-11"
              d="M316.2,571.39c13.12-15,28.95-24.14,46.43-32.94,1.81-.91,3.61-1.94,5.34-2.93,17.8-10.16,36.34-21.18,53.82-30.41,16.27-8.58,36.09-14.82,54.73-19.13,22-5.1,44.34-10.2,66.46-14.81,14.65-3.05,29.66-5.25,43.88-9.61,1.45-.44,3-.84,4.46-1.27,17-5,34.79-8.32,52.17-11,3-.46,6.06-.79,9.1-1.12,22.11-2.44,29.79-12.36,36.31-32.51,2.51-7.75,3.79-16.48,6.49-24.4,5.33-15.6,17.46-26.52,31.42-34.51,7.26-4.15,15.27-8.56,22.22-12,12-5.84,19-17,26.76-27.24A80.72,80.72,0,0,1,794,300.42c12.28-8.66,27.38-15.92,38.36-25.45,7.88-6.85,14.26-16.22,22.11-23.85a37.34,37.34,0,0,1,14.69-17.61c9.22-6.12,16.27-15.68,21.33-14.94"
              transform="translate(110.53 129.02)"/>
        <path class="cls-11"
              d="M318.65,573.5c12.77-15.2,28.74-24.93,45.88-34.31,1.78-1,3.56-2.05,5.27-3.08,17.5-10.57,37.64-20.37,55.67-28.35a328.83,328.83,0,0,1,54.32-18.39c21.82-5.29,44-10.49,65.64-15.95,14.23-3.59,29.26-5.58,43.06-10.45,1.42-.5,2.93-1,4.38-1.43,16.75-5.58,34.75-8.15,52.1-10.47,2.93-.39,6.08-.6,9-.95,19.38-2.32,29.26-13.36,35.67-32.41,2.57-7.64,4-16.4,6.33-24.33,4.73-15.76,16.22-27,30.61-34.44,7.54-3.88,16.62-7.32,23.62-10.6,13.23-6.21,20.44-15.24,27.94-28.16a59.4,59.4,0,0,1,16.84-18c12.12-8.72,26.36-15.7,39-24.26,9.66-6.57,16.13-15.45,24.42-23.46,3.88-8.93,8.25-14.17,13.84-18.21,8.45-6.11,15.22-15.29,20.32-14.49"
              transform="translate(110.53 129.02)"/>
        <path class="cls-11"
              d="M321.1,575.62c12.37-15.34,28.6-25.9,45.34-35.71,1.75-1,3.52-2.15,5.21-3.22,17.3-10.93,38.91-18.79,57.69-26,17.19-6.59,35.21-13.33,53.41-18,21.62-5.52,43.47-10.9,65-16.83,14-3.87,29-5.81,42.33-11.3,1.37-.57,2.86-1.07,4.27-1.62,16.4-6.34,34.55-8.32,51.79-10.32,2.91-.34,6.11-.42,8.87-.8,17.73-2.46,28.26-14.13,35.52-31.75,3-7.23,5.81-15.15,7.15-23.52,2.52-15.73,13.87-28.61,28.22-35.51,7.66-3.69,17-6.57,24.25-9.77,13.17-5.82,24.46-14.29,29.88-27.88,2.47-6.18,7.42-13,15.27-19.27,11.84-9.4,26.71-15.65,39.27-23.51,10.05-6.29,18.68-13.94,27.14-22.72,4.44-9.33,8.28-14.83,13.48-18.94,7.76-6.12,14.3-14.92,19.42-14.05"
              transform="translate(110.53 129.02)"/>
        <path class="cls-11"
              d="M323.55,577.73c12-15.47,28.44-26.92,44.81-37.11,1.73-1.08,3.49-2.25,5.17-3.35,17.1-11.25,40.31-16.76,59.62-23.43,17.38-6,34.49-13,52.26-17.84,21.41-5.8,43-11.73,64.26-17.67,13.79-3.85,29-5.71,41.83-11.89,1.33-.64,2.77-1.22,4.15-1.85,15.94-7.27,34.15-8.82,51.24-10.58,2.87-.29,6.23-.2,8.69-.71,17.41-3.65,27-14.4,36-30.47a73.39,73.39,0,0,0,8.15-22.43c2.9-16,9.55-29.73,25.22-37.15,7.59-3.6,17-6.32,24.37-9.25,13.5-5.33,26.88-11.74,32.31-26.69,2.59-7.11,6-14.32,13.42-20.84,11.26-10,26.11-16.08,39.14-23.21,10.61-5.81,22.27-12.08,30.1-21.65,7.06-8.61,8.78-15.67,13.66-19.85,7.19-6.16,13.52-14.6,18.65-13.66"
              transform="translate(110.53 129.02)"/>
        <path class="cls-11"
              d="M326,579.84c11.62-15.66,28.23-27.92,44.3-38.52,1.72-1.14,3.46-2.33,5.14-3.47,17-11.55,42.2-14.6,61.39-20.73,16.91-5.4,33.65-12.86,50.94-17.87,21.16-6.12,42.61-12.69,63.52-18.56,13.5-3.79,29.36-5.12,41.66-12.11,1.28-.73,2.68-1.38,4-2.1,15.32-8.33,33.54-9.65,50.44-11.24,2.84-.27,6-.25,8.35-.83,16.46-4,27.16-14.11,37.13-28.39a60.52,60.52,0,0,0,9.26-21.12c3.72-16,5.56-31,21.93-39.2,7.29-3.63,16.48-6.25,23.94-9,13.92-5.05,27.38-10.86,34.6-25.11,3.55-7,5.2-15.44,11.94-22.39,10.38-10.72,25.15-16.7,38.4-23.37,11.43-5.75,23.88-11.53,33-20.45,8.43-8.26,9.91-16.56,14.54-20.83,6.73-6.22,12.89-14.3,18-13.29"
              transform="translate(110.53 129.02)"/>
        <path class="cls-11"
              d="M328.45,582C339.79,566.06,356.39,553,372.26,542c1.71-1.18,3.45-2.41,5.12-3.57,16.94-11.83,43.89-12.07,63.05-17.92,16.4-5,32.68-12.84,49.42-18,20.88-6.51,42.21-13.73,62.77-19.49,13.09-3.66,30.24-4.17,41.81-11.95,1.22-.82,2.59-1.56,3.86-2.39,14.57-9.48,32.7-10.79,49.43-12.28a52.7,52.7,0,0,0,8.08-1c15.66-4.05,27.79-13.37,38.78-25.68a46.55,46.55,0,0,0,10.49-19.59c3.78-14.4,4-33.25,18.87-41.2,6.7-3.57,15.26-6.65,22.64-9.18,15.37-5.25,27.12-10.89,36.25-23.5,4.49-6.21,5.57-16.12,11.42-23.66,9.08-11.67,23.65-17.66,36.88-24,12-5.77,25.1-11.05,35.43-19.56,10-8.25,11.85-17.12,16.3-21.51,6.4-6.3,12.39-14,17.5-12.95"
              transform="translate(110.53 129.02)"/>
        <path class="cls-11"
              d="M330.9,584.06c11.11-16.18,27.66-29.89,43.34-41.33,1.69-1.23,3.44-2.48,5.11-3.66,17-12.09,45.36-9.26,64.6-15,15.91-4.72,31.58-13,47.73-18.42,20.58-6.93,41.76-14.84,62-20.43,12.12-3.35,32-3.15,42.28-11.39,1.14-.91,2.49-1.76,3.69-2.71,13.69-10.72,31.46-12,48.17-13.73a52.41,52.41,0,0,0,7.93-1.18c15.11-4,28.86-12.2,40.85-22.42a36.93,36.93,0,0,0,11.82-17.88c4-13.43,3.15-34.16,15.88-43.31,5.77-4.16,13.73-7.41,20.84-9.59,15-4.59,27.6-10.38,37.34-21.81,5.15-6.05,7.36-16.48,12-24.76,7.2-12.74,21.58-19.09,34.34-25.14,12.41-5.89,27-10.85,37.36-19C874.34,266,878.61,258,885,250.41c5.38-6.37,12-13.82,17.14-12.66"
              transform="translate(110.53 129.02)"/>
        <path class="cls-11"
              d="M333.35,586.17c10.9-16.5,27.36-30.93,42.91-42.71,1.67-1.27,3.42-2.54,5.1-3.74,17.95-12.86,45.25-5.14,66.06-11.9,15.72-5.11,30.37-13.26,45.87-18.94,20.23-7.41,41.1-16.15,61.35-21.41,12-3.11,32.91-1.7,43.12-10.41,1.14-1,2.33-2,3.46-3C614,462,631.37,460.38,648,458.45a63.38,63.38,0,0,0,7.83-1.27,156.34,156.34,0,0,0,43.27-18.74,30.36,30.36,0,0,0,13.22-16c4.73-13.66,3.05-34.51,13.15-45.43,4.33-4.7,11.85-8.07,18.57-10.13,14.71-4.49,27.68-9.41,37.93-20,6.4-6.63,11.08-16.32,14.15-25.6,4.49-13.61,18.15-21.26,30.38-26.91,13-6,27.41-11.14,38.75-18.81,9.16-6.19,15.06-13.82,21.67-22.1,5.16-6.47,11.83-13.62,16.93-12.39"
              transform="translate(110.53 129.02)"/>
        <path class="cls-11"
              d="M335.8,588.29c10.7-16.83,27-32,42.5-44.08,1.67-1.3,3.43-2.59,5.12-3.81,18.53-13.35,45.9-1.31,67.34-8.64,15.08-5.16,29.13-13.72,44-19.68,19.77-7.94,40.46-17.51,60.68-22.41,12.25-3,33.57-.95,44.23-9.29a22.8,22.8,0,0,0,3.4-3.09c11.49-13.51,28.52-15.59,45.12-17.74,2.64-.34,5.34-.75,7.78-1.31,15.26-3.54,31.83-8.56,45.93-14.74,6-2.64,11.71-6.81,14.65-14.08,6-14.87,3.65-34.06,10.87-47.47,2.72-5,9.65-8.8,15.9-10.73,14.3-4.44,27.4-8.36,38-18.18,7.38-6.83,13.34-17.28,16.55-26.23a53.45,53.45,0,0,1,26.34-29.26c13-6.4,27.21-11.78,39.44-19,10.15-6,17.63-13.28,24.86-22.11,5.46-6.67,11.78-13.47,16.88-12.17"
              transform="translate(110.53 129.02)"/>
        <path class="cls-11"
              d="M338.25,590.4c10.45-17.16,26.56-33.15,42.13-45.43,1.67-1.31,3.43-2.62,5.13-3.84,19.24-13.84,46.29,3.22,68.65-5.1,14.57-5.42,27.73-14.45,41.93-20.74,19.26-8.53,39.85-18.86,60-23.42,12.52-2.83,34.32-.14,45.43-8.16a19.71,19.71,0,0,0,3.58-3c11.06-13.4,26.17-17.46,43.39-19.9,2.61-.37,5.25-.81,7.77-1.3,16-3.14,33.35-5.82,48.74-10.56,6.63-2.05,12.75-5.26,16.07-12.09,7.34-15.12,4.52-33.27,9.19-48.9,1.91-6.42,7.21-10,12.89-11.79,13.77-4.39,26.89-7.22,37.7-16.26,8.08-6.75,13.77-17.14,18.56-26.79,6.15-12.4,10-24.73,23.29-32,12.76-7,26.45-12.74,39-19.55,10.5-5.7,20.86-12.88,28.17-22,5.5-6.85,11.88-13.35,17-12"
              transform="translate(110.53 129.02)"/>
        <path class="cls-11"
              d="M340.7,592.51C351,575,366.76,558.24,382.48,545.76c1.67-1.33,3.46-2.64,5.16-3.86,20-14.28,46.66,8,70.1-1.3,14.07-5.58,26.2-15.43,39.66-22.07,18.74-9.25,39.22-20.18,59.33-24.45,12.8-2.73,35.15.73,46.72-7a21,21,0,0,0,3.75-3c12.77-13.84,22.33-18.81,41.86-21.87,2.61-.4,5.23-.81,7.78-1.25,17-3,34.88-3.32,51.58-6.35,7.15-1.29,13.9-3.86,17.43-10.13,8.2-14.57,5-33.55,7.86-49.65,1.25-7,5-11.53,10.06-13.21,13.1-4.36,26.14-6,37-14.32,8.65-6.63,14.82-17.37,20.14-27.26,5.92-11,10.28-27.53,21.29-35,11.67-8,24.8-14,37.4-20.5,11.28-5.82,22.91-12.18,31.43-21.77,6.33-7.13,12.12-13.26,17.29-11.83"
              transform="translate(110.53 129.02)"/>
        <path class="cls-11"
              d="M343.15,594.62a175.78,175.78,0,0,1,41.45-48c1.68-1.33,3.47-2.64,5.21-3.85,21.09-14.65,47,12.89,71.72,2.69,13.62-5.61,24.55-16.55,37.24-23.6,18.13-10.08,38.47-21.51,58.55-25.52,13.14-2.62,36.06,1.66,48.12-5.81a22.12,22.12,0,0,0,3.9-2.91c13.49-13.4,20.21-20.7,40.53-23.62,2.56-.37,5.23-.8,7.82-1.18,18.1-2.64,36.51-.78,54.34-2.25,7.59-.62,14.82-2.32,18.57-8.47,8.77-14.39,5.55-33.56,7-49.7.69-7.53,3.31-13.17,7.61-14.7,12.28-4.34,25.06-4.86,35.79-12.41,8.88-6.25,15.93-17.38,21.33-27.59,6.43-12.15,11.41-28.55,20.25-38.3s22.59-15.7,34.69-21.83,24.43-12.21,34.43-21.52c7.72-7.19,12.6-13.2,17.85-11.72"
              transform="translate(110.53 129.02)"/>
        <path class="cls-11"
              d="M345.6,596.73c10.17-18.22,24.92-36.47,41.14-49.29,1.69-1.34,3.51-2.64,5.27-3.83,22.11-14.92,47.38,17.83,73.51,6.8,13.37-5.65,22.72-17.47,34.76-25.27,17.36-11.26,37.74-22.83,57.65-26.6,13.63-2.59,37,2.65,49.58-4.62a21.42,21.42,0,0,0,4-2.85c13.6-12.88,19-22.13,39.43-25.12,2.55-.37,5.22-.78,7.87-1.08,19-2.17,38.46,1.45,56.87,1.56,7.85.05,15.42-1.48,19.42-7.17,9.6-13.65,6.37-33.21,6.8-49.08.21-7.88,2.17-14.46,5.68-16,10.64-4.72,23.81-3.86,34.22-10.71C791,377.4,798.31,366,804,355.71c7.44-13.57,14.07-29.22,20.21-41.6,5.24-10.56,19.49-17.73,30.88-23.56,12.6-6.44,25.76-12.55,36.93-21.37,8.76-6.92,13.39-13.05,18.77-11.52"
              transform="translate(110.53 129.02)"/>
        <path class="cls-11"
              d="M348.06,598.87c9.94-18.62,24.36-37.62,40.84-50.52,1.71-1.33,3.55-2.62,5.35-3.78,23.31-15.06,47.76,22.77,75.45,11,13.51-5.75,20.95-18.48,32.34-27,16.41-12.3,36.76-24.22,56.53-27.72,14-2.49,38,3.66,51.12-3.4a21.78,21.78,0,0,0,4.2-2.8c13.37-12.13,18.56-23.48,38.54-26.35,2.53-.36,5.27-.8,7.93-1,19.72-1.21,39.5,2.74,59,4.9,8.25.91,15.71-.93,20-6.13,10.54-12.67,7.5-32.46,7.22-47.88-.15-8.11,1.1-15.05,4.19-16.87,9.07-5.33,22.78-3.56,32.44-9.59,9.33-5.82,16.76-17.32,22.53-27.63,8-14.32,16.76-28.73,21.21-44.67,3.47-12.42,15.36-20,26-25.76,13-7.07,26.74-13,39-21.39,9.77-6.67,14.34-12.79,19.9-11.23"
              transform="translate(110.53 129.02)"/>
        <path class="cls-11"
              d="M350.52,601c9.54-19,23.86-38.84,40.58-51.67,1.73-1.32,3.6-2.58,5.43-3.71,24.46-15,48.24,27.62,77.56,15.16,13.66-5.8,19.83-19.23,30.08-28.78,14.66-13.66,35.66-25.66,55.11-28.88,14.51-2.4,39.08,4.68,52.7-2.19a20.32,20.32,0,0,0,4.34-2.75c13-11.36,18.61-24.61,37.9-27.28,2.51-.35,5.24-.71,8-.85,20.7-1.05,40.54,5.23,60.72,7.58,8.39,1,15.76-.57,20.49-5.25,11.61-11.47,9-31.25,8.29-46.17-.4-8.22.35-15.67,3.06-17.45,7.88-5.14,21.69-3.84,30.67-9,9.22-5.26,16.72-17.06,22.54-27.25,8.57-15,19.46-31.45,22.17-47,2.05-11.76,10.46-22.31,21.07-28.69,13.08-7.87,27.43-13.71,40.57-21.58,10.73-6.43,15.37-12.44,21.17-10.87"
              transform="translate(110.53 129.02)"/>
        <path class="cls-11"
              d="M353,603.13c9.24-19.31,23.34-40,40.36-52.75a57,57,0,0,1,5.52-3.63c25.74-14.88,48.71,32.32,79.79,19.32,13.83-5.78,19.43-19.87,28.14-30.5,12.2-14.89,34.5-27.19,53.29-30.09,15-2.31,40.19,5.7,54.33-1a20.75,20.75,0,0,0,4.47-2.7c12.71-10.68,18.93-25.42,37.48-27.95a71,71,0,0,1,8-.73c21-.45,41,8.1,61.67,9.36,8.31.5,15.68-.23,20.9-4.36,12.74-10.07,10.95-29.55,10-44-.53-8.22-.23-15.84,2.29-17.79,6.67-5.15,21.09-4.7,29-9,9-4.92,16.47-16.67,22.22-26.48,9-15.31,18.56-31.61,22.59-48.54,3.08-12.92,4.91-23.9,16.74-32,12.88-8.85,27.81-14.57,41.62-21.95,11.64-6.22,16.45-12,22.57-10.44"
              transform="translate(110.53 129.02)"/>
        <path class="cls-11"
              d="M355.44,605.25c9-19.61,22.83-41.11,40.18-53.75a49.44,49.44,0,0,1,5.62-3.52c27-14.55,49.25,36.79,82.14,23.4,14.16-5.77,19.28-20.22,26.68-32.11,10-16.09,32.86-28.74,50.93-31.38,11.66-1.71,22.17-1.2,34.13.28,7.77,1,14.16,3.37,21.84-.06a20.48,20.48,0,0,0,4.59-2.67c13-10.54,18.44-25.13,37.3-28.33a47.3,47.3,0,0,1,8-.65c21,.07,41.26,8.85,62,10.46,8.3.65,15.52-.18,21.14-3.71,13.87-8.72,13.29-27.3,12.38-41.45-.52-8.13-.52-15.85,1.9-17.93,6.13-5.27,20-5.7,27.37-10,8.9-5.12,15.82-15.83,21.64-25.05,9.33-14.77,18.41-32.1,22.48-49.39,2.88-12.24,2.3-26.84,13-35.62,12.18-10,27.87-15.63,42.11-22.52,12.47-6,17.58-11.52,24.16-10"
              transform="translate(110.53 129.02)"/>
        <path class="cls-11"
              d="M357.89,607.37c8.7-19.88,22.34-42.21,40.05-54.67a43.81,43.81,0,0,1,5.73-3.39c28.36-14.06,49.79,41,84.59,27.35,14.55-5.7,19.36-20.6,25.46-33.49,8.1-17.1,30.61-30.4,48.3-32.82a108,108,0,0,1,35.12.83c7.83,1.42,14.69,3.85,22.49.56a20.12,20.12,0,0,0,4.69-2.63c13-10.35,18.94-24.93,37.47-28.3a41.66,41.66,0,0,1,8-.68c20.93.32,41.21,9.32,62,11.23,8.31.76,15.67.09,21.35-3.34,13.85-8.34,15.55-24.36,14.86-38.92-.38-8-.52-15.71,1.89-17.91,6-5.53,18.91-6.7,26.26-11.66,8.18-5.52,15-14.55,20.6-23.24,9.37-14.6,17.92-32.15,21.87-49.53,2.6-11.44,1.1-30.19,9.77-39.26,10.81-11.33,28.1-16.7,42-23.28,7.83-3.71,16.64-10.35,26-9.51"
              transform="translate(110.53 129.02)"/>
        <path class="cls-11"
              d="M360.34,609.48c8.47-20.11,21.88-43.28,40-55.49a38.69,38.69,0,0,1,5.85-3.25c29.76-13.42,50.34,44.89,87.09,31.16,15-5.62,19.49-21,24.58-34.63,6.72-17.94,27.47-32.11,45.37-34.4a106.72,106.72,0,0,1,36.11,1.36c8,1.63,15,4.39,23.1,1.16a20.38,20.38,0,0,0,4.79-2.59c13-10.18,19.17-24.88,37.62-28.21a40.91,40.91,0,0,1,8-.64c20.89.45,41.06,9.64,61.74,11.82,8.32.88,15.92.44,21.58-2.93,13.17-7.86,17.47-22.21,17.3-36.8-.09-7.73-.22-15.43,2.27-17.73,6.32-5.86,18.55-7.62,26-13.36,7.23-5.56,13.57-13.88,18.86-21.74a145.76,145.76,0,0,0,20.78-49c2.6-12.15.43-32.75,7.12-42.8,8.34-12.52,27.35-18.2,41.32-24.24,8.57-3.71,17.91-9.92,27.87-9.06"
              transform="translate(110.53 129.02)"/>
        <path class="cls-11"
              d="M362.79,611.6c8.35-20.28,21.35-44.31,39.93-56.24a35.2,35.2,0,0,1,6-3.09c31.76-12.48,50.56,48.54,89.62,34.77,15.63-5.51,19.68-21.42,24.06-35.4,5.78-18.41,23.47-33.91,42.15-36.2a106,106,0,0,1,34.27,1.12c9.22,1.82,17.18,5.93,26.48,2.49a19.14,19.14,0,0,0,4.86-2.57c13.16-10,19.32-24.76,37.76-28.07a40,40,0,0,1,8-.62c20.82.57,40.83,9.85,61.46,12.39,8.42,1,16.1.76,21.83-2.53,12.31-7.07,18.94-21.32,19.59-35.09.35-7.46.37-15.05,3-17.44,6.83-6.17,18.75-8.5,26.6-14.86,5.11-4.15,10.15-10.36,16.59-20.78a147.57,147.57,0,0,0,19.23-47.84c2.87-14.33-.05-33.84,5-46.13,5.58-13.53,26.23-19.88,40-25.41,9.31-3.73,19.15-9.52,29.69-8.65"
              transform="translate(110.53 129.02)"/>
        <path class="cls-11"
              d="M365.25,613.71c8.16-20.43,20.93-45.31,39.94-56.88a33.42,33.42,0,0,1,6.12-2.91c15.53-5.55,28.11,10.18,38.14,19.29,15.31,13.93,32.34,26,54,18.86,15.93-5.25,20.09-21.48,23.79-35.87,4.9-19,19.07-35.85,38.79-38.12,11.72-1.35,23.19-1.3,35.13,1.54,9.27,2.2,17.64,6.43,27,3.08a19,19,0,0,0,4.92-2.55c13.27-9.91,19.49-24.61,37.89-27.9a38.42,38.42,0,0,1,8-.6c20.73.67,40.63,10,61.17,12.94,8.51,1.2,16.27,1.08,22.06-2.12,11.59-6.41,19.83-21,21.6-33.85,1-7.18,1.27-14.58,4.18-17.05,7.49-6.38,19.6-9.27,27.75-16.06,4.95-4.12,9.33-11.09,14.33-20.5,7.94-15,14-30.05,17.13-46.06s1.32-34.73,3.46-49.12c2.09-14,24.74-21.66,38.08-26.77,9.66-3.69,20.65-9.52,31.47-8.27"
              transform="translate(110.53 129.02)"/>
        <path class="cls-11"
              d="M367.69,615.82c8-20.55,20.51-46.25,40-57.43a29.51,29.51,0,0,1,6.27-2.72c17.24-5.09,30.77,14,42,24.2,14.91,13.55,32,23.4,52.62,17.1,16.18-4.94,20.78-21.36,23.76-36.06,3.88-19.08,14.95-37.91,35.37-40.14,12-1.31,23.75-1.15,36,1.93,9.39,2.37,17.92,6.94,27.5,3.63a18.9,18.9,0,0,0,4.9-2.55c13.52-9.83,19.7-24.38,38.07-27.68a37.49,37.49,0,0,1,7.92-.58c20.69.75,40.49,10.18,60.87,13.47,8.58,1.39,16.45,1.4,22.31-1.71,11.9-6.32,19.59-20.56,23.19-33,2-6.82,2.46-13.81,5.72-16.59,8.25-7,20.66-8.8,29.29-16.9,4.9-4.6,8.74-11.37,12.65-20.53,6.09-14.24,11.69-29.08,14.25-44.17,2.82-16.59,2.59-35.17,2.45-51.64-.14-16,22.6-23.59,35.53-28.36,10.26-3.79,21.83-9.15,33.19-7.94"
              transform="translate(110.53 129.02)"/>
        <path class="cls-11"
              d="M370.14,617.92c7.9-20.63,20.18-47.18,40.12-57.88a30,30,0,0,1,6.43-2.51c17.79-4.66,31.82,16,43,26.32,15.27,14.08,32.72,23.81,54,17.85,16.39-4.59,21.22-21.23,23.91-36,3.41-18.7,10.31-40,32-42.2,12.3-1.27,24.27-1,36.72,2.29,9.47,2.52,18.13,7.41,27.83,4.11a20.23,20.23,0,0,0,4.88-2.53c13.75-9.5,19.93-24.12,38.28-27.43a36.57,36.57,0,0,1,7.89-.57c20.58.82,40.36,10.33,60.57,14,8.65,1.58,16.61,1.72,22.54-1.31,12.59-6.42,18.73-20.48,24.22-32.64,2.92-6.46,4-13.26,7.67-16.07,9.08-7,22.1-9.12,31.1-17.41,4.86-4.47,8.61-11.08,11.42-20.57,4.21-14.24,9.06-28.18,11-42.53,2.35-17.27,3.2-36.33,1.53-53.5-1.68-17.35,19.52-25.7,32.8-30.31,11.12-3.85,22.77-8.82,34.85-7.64"
              transform="translate(110.53 129.02)"/>
        <path class="cls-11"
              d="M372.58,620c7.68-20.66,20-48.11,40.3-58.22a26.7,26.7,0,0,1,6.58-2.29c17.21-3.45,30.4,15.14,41.41,25.75,16.24,15.65,34.51,26.92,57.77,21,16.59-4.22,22.12-20.58,24.25-35.69,2.57-18.27,6.7-42.05,28.68-44.24,12.57-1.25,24.74-1,37.41,2.59,9.47,2.65,18.24,7.89,27.94,4.5a22.54,22.54,0,0,0,4.94-2.45c14-9.15,20.2-23.83,38.52-27.16a35.09,35.09,0,0,1,7.85-.56c20.49.87,40.24,10.52,60.28,14.56,8.72,1.76,16.78,2,22.79-.9,12.83-6.29,18.57-20.52,24.62-32.5,3.32-6.56,5.75-12.8,9.9-15.63,10-6.81,23.69-9.06,33.11-17.57,4.9-4.42,8.61-11.1,10.62-20.66,2.88-13.67,6.39-27.57,7.7-41.19,1.71-17.78,2.46-37.91.29-54.78-2.3-17.88,15.92-27.59,30.32-32.46,11.67-4,23.78-8.52,36.41-7.41"
              transform="translate(110.53 129.02)"/>
        <path class="cls-11"
              d="M375,622.07c8.11-21.54,22.36-56.06,47.3-60.5,17.48-3.11,31.27,16.82,42.28,27.49,16.61,16.1,35.06,27.11,58.89,21.55,40.35-9.4,10.24-77.63,50.3-81.42a104.45,104.45,0,0,1,41.16,3.94c8.43,2.5,15.94,6.85,24.74,3.76,17.52-6.14,23.55-25.87,43.81-29.25C713,502.7,746.86,534,774.33,521.72,794,512.91,795,485,811,473.92c16.6-11.54,41.87-12.08,45.53-38.22A435.09,435.09,0,0,0,859.78,340c-2.51-30.46,40.43-44.1,66-42"
              transform="translate(110.53 129.02)"/>
        <path class="cls-11"
              d="M-52.87,213.4c11.21,8.91,25.38,11,38.87,11.59,27.8,1.21,26.41-37.05,46.45-40.31,17.45-2.85,28.33-9.42,36.46-25.55,13.77-27.28,40.31-15.56,57.2-.34,26.15,23.56,54.37,56.38,93.4,41.23,29.54-11.46,46.33-28.88,57.43-59,4.68-12.7,9.34-26.88,11.07-40.38S284.88,69,297,60c24.1-18.12,65.17,3.29,92.21-6.47C409,46.33,416.25,35.74,407,14.63c-12.77-29,24.26-40.81,45.07-47.37,18.08-5.71,47.67,1.61,62-13.59"
              transform="translate(110.53 129.02)"/>
        <path class="cls-11"
              d="M-54.1,209.34c11.1,8.54,25,10.48,38.2,10.89,15.41.48,24.54-14.48,30.83-26.75,4.34-8.46,8.88-16.18,14.77-16.83,18.1-2,27.31-8.65,36.46-24.09a36.73,36.73,0,0,1,8.91-10.68c16.79-12.73,35-.67,47.85,10,14.13,11.76,28.26,28,44.28,37.52,17.14,10.15,33.13,12.34,52.33,6.52,11.71-3.56,24.87-10,33.07-18.81,10-10.78,17-24.37,22.83-38.56,1.17-2.87,2.18-6,3.16-9.14,3.87-12.44,6.4-23.63,7.12-36.64.69-12.46-3-26.21,6.9-35.56a9.19,9.19,0,0,1,1.23-1c25.58-17.71,66,4.52,93.27-4.78,20.51-7,25.75-17.65,16.68-38.79C397.13-2.85,406.13-13.15,418-20.47c9.72-6,22.15-10.17,33.68-13.66,18.23-5.53,47.12,1.4,61.44-13.28"
              transform="translate(110.53 129.02)"/>
        <path class="cls-11"
              d="M-55.34,205.18c11.23,7.88,24.53,9.6,37.45,9.55,15.54-.07,24.09-16.8,30.22-29.17,4.3-8.68,8.84-16.21,14.67-16.89,17.39-2,26.68-7.84,36.61-22.18a31.83,31.83,0,0,1,9.33-9.21c17.25-10.58,33.11-2.2,46.83,8.24,15,11.39,29.9,27.13,45.79,37.17,17.09,10.81,34.21,14.8,53.95,9.17,11.28-3.23,24-9.65,31.85-18.5a126.71,126.71,0,0,0,22.57-37.2c1.15-2.89,2.22-5.93,3.23-9,4.23-13.13,5.72-23.77,5.79-37.54.06-12.61-3.63-26.62,6.6-36a11,11,0,0,1,1.25-1c26-17.41,66.85,5.83,94.24-3.15,21-6.9,24.07-17.62,15.61-38.72C394.22-5.33,405.23-15.08,417.36-22c10.06-5.75,22.38-9.93,33.95-13.47,18.18-5.56,46.22,1.07,60.84-13"
              transform="translate(110.53 129.02)"/>
        <path class="cls-11"
              d="M-56.58,200.94c10.66,6.88,24.19,8.9,36.62,7.71,16-1.54,23.55-18.67,29.7-31.15,4.3-8.73,8.87-15.91,14.64-16.6C40,159,51.53,153.73,61.28,141a31,31,0,0,1,9.93-7.92c17.07-9.47,31.64-3.36,45.72,6.71,15.43,11,30.77,25.81,46.7,36,17.59,11.25,35.58,17.17,55.68,11.89a65.68,65.68,0,0,0,30.51-18.21,121,121,0,0,0,22.61-35.71c1.17-2.86,2.25-5.88,3.3-9,4.69-13.93,4.87-24,4.27-38.51-.53-12.72-4-26.94,6.61-36.27a11,11,0,0,1,1.27-1C314.35,32,355.61,56.13,383,47.44c21.25-6.74,22.2-17.73,14.59-38.65-6-16.57,7-25.72,19.35-32.33C427.23-29,439.43-33.25,451-36.85c18-5.6,45.57.84,60.21-12.71"
              transform="translate(110.53 129.02)"/>
        <path class="cls-11"
              d="M-57.84,196.68c10.62,6.15,23.94,7.36,35.76,5.47C-6.36,199.63.87,182,7.17,169.47c4.33-8.6,9-15.29,14.71-16,15.09-1.78,26.51-6.4,37.33-17.14a43.45,43.45,0,0,1,10.63-7.21c16.8-8.54,30.85-4.42,44.8,5.4,15.15,10.65,31,24.32,46.75,34.38,18.13,11.54,38.16,19.86,57.39,14.52a66.86,66.86,0,0,0,29.33-17.66A113,113,0,0,0,271,131.44c1.19-2.83,2.27-5.85,3.37-9,4.38-12.44,4.52-21.54,3.35-34.56-1.25-14-6.4-30.95,6.13-41.36a13.18,13.18,0,0,1,1.3-1c26.94-16.68,68.54,8.26,95.79-.16,21.28-6.57,20.3-17.91,13.65-38.59-5.43-16.9,9.65-25.63,22-31.85,10.52-5.29,22.6-9.51,34.18-13.18,17.81-5.64,44.89.61,59.55-12.43"
              transform="translate(110.53 129.02)"/>
        <path class="cls-11"
              d="M-59.09,192.42c10.59,5.35,23.66,5.56,34.85,3,15.29-3.54,22.31-21.28,28.9-33.75,4.39-8.3,9.14-14.35,14.86-15,14.57-1.64,26.39-5.07,38-14.52a56.1,56.1,0,0,1,11.19-6.69c16.47-7.87,30.13-5.46,44,4,14.83,10.15,30.51,22.91,46.1,32.66,18.61,11.63,39.6,21.68,58.87,16.82,9.79-2.47,20.05-8.59,28.64-16.67a99.86,99.86,0,0,0,23.11-33.19c1.21-2.8,2.28-5.89,3.45-8.95,8.7-22.73-13.4-60.15,8.21-76.9a12.86,12.86,0,0,1,1.37-1c27.46-16.55,68.16,9.57,96.06,1,21.79-6.68,18.61-18,13.05-38.42C387-12.18,404-20.57,416.38-26.45a285.83,285.83,0,0,1,34.17-13.07c17.63-5.7,44.18.38,58.85-12.15"
              transform="translate(110.53 129.02)"/>
        <path class="cls-11"
              d="M-60.33,188.21c10.59,4.46,23.34,3.55,33.92.28,14.75-4.57,21.6-22.05,28.63-34.34,4.48-7.82,9.37-13.09,15.09-13.67,14.15-1.43,27-3.86,38.88-12.23a75.79,75.79,0,0,1,11.66-6.31c16.28-7.56,29.63-6.21,43.36,2.63,14.31,9.2,29.54,21.72,44.81,31.05,17.23,10.53,40.63,24.27,60,18.61A75.39,75.39,0,0,0,244.58,159,92.46,92.46,0,0,0,268,126.78c1.23-2.78,2.28-6,3.52-9,9.56-23-17.66-60,7.11-77.71a14.8,14.8,0,0,1,1.44-.94c28.12-16.11,65.92,8,96.09,2,23.94-4.7,16.2-21.66,12.63-38.3-3.66-17.09,15.16-25.17,27.5-30.77a348.92,348.92,0,0,1,34.08-13c17.44-5.78,43.44.14,58.12-11.89"
              transform="translate(110.53 129.02)"/>
        <path class="cls-11"
              d="M-61.57,184.06c11,3.83,23,.92,33-2.46,13.73-4.66,20.79-22.45,28.45-34.4,4.6-7.17,9.66-11.53,15.41-12,14.23-1.21,27.31-2.75,39.77-10.44a111.22,111.22,0,0,1,12-6.07c15.9-7.28,29.24-7.3,42.86,1.11,13.83,8.53,28.53,20.74,43.23,29.66,17.3,10.49,40.67,24.59,60.56,19.89,10.12-2.39,20.27-6.38,29-13.55a86.85,86.85,0,0,0,23.78-31.34c1.26-2.77,2.37-5.89,3.61-9,9.43-23.51-21-60.47,6.21-78.33.49-.32,1-.64,1.51-.92,28.63-15.47,65.61,8.34,95.84,3C397.71,35,388.53,17,386.11,1,383.55-16,403.88-23.8,416.3-29.22c10.85-4.73,22.48-9.06,33.89-12.93,17.28-5.85,42.69-.07,57.4-11.61"
              transform="translate(110.53 129.02)"/>
        <path class="cls-11"
              d="M-62.79,180c11,2.76,22.61-1.21,32.06-5.19,13.24-5.56,19.81-22.51,28.35-33.89,4.77-6.35,9.94-9.54,15.73-9.92,14.31-.93,27.92-2.27,40.73-9.43a120.17,120.17,0,0,1,12.35-6c16-6.63,28.17-8.92,42.52-.52,13.39,7.84,27.6,19.82,41.74,28.45,17.56,10.71,40.38,24.36,60.55,21.11,10.34-1.66,20.62-4.93,29.66-11.92a82.53,82.53,0,0,0,24.16-30.64,87.51,87.51,0,0,0,3.71-9c7.69-23.06-23.23-61.54,5.53-78.72.52-.31,1.06-.62,1.6-.89,29-14.71,65.28,8.59,95.32,3.78C395.08,33.41,384.86,14.3,383.59-1c-1.38-16.56,20.18-24.21,32.8-29.53,10.87-4.59,22.34-9,33.64-12.9,17.11-5.95,41.91-.29,56.65-11.34"
              transform="translate(110.53 129.02)"/>
        <path class="cls-11"
              d="M-64,176.1c11.28,1.16,21.74-3.11,31.14-7.8,12.74-6.36,18.65-22.34,28.35-32.76a22.69,22.69,0,0,1,16.09-7.81c14.45-.88,28.52-2.12,41.63-9,4-2.09,8.35-4.15,12.59-6,15.61-6.73,28.15-10,42.3-2.26,13,7.13,26.84,19,40.4,27.36,18.74,11.59,40.07,23.27,60.18,22.36A55.62,55.62,0,0,0,239,149.81a79.34,79.34,0,0,0,24.61-30.08,40,40,0,0,0,3.49-9.2c4.58-23.38-24.74-62.5,5.44-78.78.55-.3,1.1-.58,1.66-.84,29.52-13.46,64.52,8.79,94.53,4.42C392.4,31.9,381.64,12,381.3-3c-.37-16.23,22.69-23.75,35.26-28.88,10.9-4.44,22.13-8.89,33.3-12.88,17-6.06,41.13-.48,55.92-11.06"
              transform="translate(110.53 129.02)"/>
        <path class="cls-11"
              d="M-65.19,172.33c11.17,0,21.19-5,30.25-10.23,12.08-6.91,17.45-22.13,28.38-30.9a27.72,27.72,0,0,1,16.49-6c14.64-.92,29.12-2.24,42.46-9,4.08-2.07,8.46-4.16,12.74-6.11,15.27-6.95,28.14-11.21,42.21-4.12,12.68,6.38,26.16,18.13,39.23,26.38C165.12,144,186,155.7,206.11,156c10.39.13,21.25-2.25,31-9a76.9,76.9,0,0,0,25.09-29.62,27.64,27.64,0,0,0,2.78-9.46c2-23.38-26-63.5,6-78.28.57-.27,1.16-.52,1.75-.76,30-12.08,63.46,8.59,93.53,4.71,23.53-3,12.15-24,13-38.48.93-15.92,24.72-23.09,37.54-28.23,10.84-4.34,21.88-8.86,32.89-12.89,17.05-6.24,39.89-.88,55.2-10.76"
              transform="translate(110.53 129.02)"/>
        <path class="cls-11"
              d="M-66.36,168.72c11-1.12,20.76-6.75,29.39-12.39,11-7.15,17-21.61,28.48-28.49,5.23-3.15,10.83-4.22,16.86-4.63,14.84-1,29.68-2.56,43.19-9.37,4.16-2.1,8.54-4.27,12.84-6.37,12.9-6.28,28.18-14,42.18-6.06,13.11,7.4,25.66,17.28,38.29,25.44,18.3,11.83,38.58,23.58,58.68,24.89,10.65.7,21.52-1,31.56-7.68,10.9-7.32,20.31-17.42,25.52-29.27a25,25,0,0,0,1.69-9.79c.05-23.28-26.21-64.16,7.35-77.27.61-.23,1.23-.47,1.85-.69,30.18-10.76,62.34,8.28,92.28,4.72C387,29,375.22,6.85,377.38-6.94c2.41-15.42,26.32-22.26,39.68-27.56,10.75-4.27,21.58-8.84,32.42-12.92,16.93-6.37,39.11-1.06,54.51-10.45"
              transform="translate(110.53 129.02)"/>
        <path class="cls-11"
              d="M-67.5,165.3c10.72-2.16,20.14-8.27,28.57-14.24,10.14-7.17,17-20.18,28.62-25.77,5.45-2.61,11.07-3.07,17.18-3.54,15-1.15,30.2-3,43.82-10.09,4.19-2.17,8.57-4.46,12.86-6.72,12.81-6.75,28-15,42.18-8.06,13,6.39,25.34,16.37,37.6,24.5,18,12,37.74,23.88,57.69,26.16,10.8,1.23,21.77.34,32.1-6.37,10.86-7.06,21.55-17.08,25.45-29.08.89-2.75.95-6.44.71-10-1.52-23.83-25.88-63.94,9.36-75.83.63-.21,1.28-.44,1.93-.64,30.23-9.51,61.14,7.82,90.81,4.51,22.86-2.54,10.84-26.15,14.31-39,4-14.71,27.5-21.21,41.66-26.87,10.65-4.26,21.28-8.83,31.89-13C466-55.3,487.59-50,503.09-58.88"
              transform="translate(110.53 129.02)"/>
        <path class="cls-11"
              d="M-68.62,162.08c10.4-3.07,19.62-9.51,27.8-15.71,9.27-7,17.28-18.48,28.77-22.82,5.57-2.1,11.25-2.36,17.42-2.9,15.24-1.33,30.72-3.67,44.35-11.07,4.2-2.29,8.56-4.72,12.82-7.17,12.73-7.33,27.62-16.15,42.15-10.08,13,5.44,25.21,15.41,37.2,23.54,17.82,12.08,36.89,24.24,56.64,27.4,10.86,1.74,22,1.66,32.56-5.06s22.44-16.26,24.84-29A36.4,36.4,0,0,0,255.85,99c-2.82-24.9-24.85-63.13,12-74,.66-.19,1.33-.4,2-.58C300,16,329.75,31.59,359,28.49c22.53-2.39,10.53-27.07,15.32-39.31,5.57-14.22,28.6-20.36,43.32-26.28,10.45-4.21,20.89-8.86,31.3-13,16.68-6.69,37.6-1.36,53.24-9.75"
              transform="translate(110.53 129.02)"/>
        <path class="cls-11"
              d="M-69.71,159.07c10-3.82,18.79-10.47,27.08-16.76,9-6.85,17.6-16.55,28.9-20,5.68-1.72,11.37-2,17.59-2.57,15.43-1.54,31.19-4.37,44.75-12.26,4.18-2.44,8.52-5.05,12.72-7.71,12.58-8,27-17.27,42-12,13.19,4.6,25.3,14.33,37.12,22.49,17.64,12.18,36.11,24.65,55.61,28.63,10.84,2.21,22.23,3,33-3.75,10.53-6.56,22.69-15.4,23.72-28.93a48.63,48.63,0,0,0-.69-10.38c-3.88-26.2-22.93-62,15.21-72l2.05-.53C299,16.11,328,29.94,356.73,27,379,24.68,367.12-.66,373.31-12.59c7.21-13.9,29.51-19.65,44.65-25.83,10.23-4.17,20.47-8.9,30.66-13.1,16.61-6.84,36.89-1.49,52.69-9.37"
              transform="translate(110.53 129.02)"/>
        <path class="cls-11"
              d="M-70.77,156.28c9.56-4.38,18.11-11,26.45-17.1,9-6.56,17.78-14.86,29-17.73,5.76-1.48,11.42-1.8,17.68-2.5,15.61-1.76,31.61-5.09,45-13.59,4.15-2.62,8.44-5.44,12.56-8.32,12.37-8.67,26-18.32,41.68-13.88,13.57,3.86,25.65,13.16,37.37,21.32,17.46,12.17,35.44,25.09,54.69,29.82,10.79,2.65,22.47,4.17,33.34-2.43S249,117,249.11,103A64.53,64.53,0,0,0,248,92.61C243.32,65,227.92,32,266.89,22.93c.7-.16,1.4-.34,2.1-.48,29.05-6.17,57.47,6,85.52,3.1,22-2.26,10.28-28,18-39.81,8.92-13.6,30.25-19.06,45.72-25.49,10-4.15,20-9,30-13.19,16.57-7,36.22-1.61,52.21-8.94"
              transform="translate(110.53 129.02)"/>
        <path class="cls-11"
              d="M-71.82,153.61c9.15-4.74,17.55-11.08,25.89-16.94,9-6.3,18-13.36,28.94-16C-11.21,119.3-5.58,118.8.69,118c15.77-2,32-5.78,45.16-15,4.09-2.84,8.32-5.88,12.33-9C71.62,83.6,83.3,77.25,99.1,78.86c13.3,1.37,26.48,11.55,38.13,19.66,17.24,12,35,25.51,54,31,10.74,3.07,22.68,5.07,33.68-1.11,10.64-6,20.66-15.27,20.14-28.58a83,83,0,0,0-1.39-10.45c-5.13-29.1-16.27-59.14,23.05-67.24.7-.14,1.42-.3,2.13-.43,28.29-5.28,56.28,5.38,83.57,2.53,21.85-2.29,10.1-28.31,19.57-40.07,10.66-13.26,30.82-18.54,46.52-25.24,9.74-4.15,19.51-9.07,29.23-13.28,16.55-7.15,35.61-1.72,51.82-8.49"
              transform="translate(110.53 129.02)"/>
        <path class="cls-11"
              d="M-72.86,151c8.8-4.9,17-11,25.37-16.48,9.16-6,18.06-12,28.87-14.67A162.69,162.69,0,0,1-1,116.79c15.9-2.19,32.25-6.42,45.14-16.35,4-3.1,8.27-6.41,12-9.68,12-10.45,24.91-15.58,39.55-15.26,14,.31,27.67,8.83,39.5,16.83,17.12,11.59,34.09,24.72,53.53,32,10.36,3.89,23.71,6.28,34,.2s18.59-15.63,17.78-28.12c-.19-2.93-.86-6.68-1.49-10.39-5.22-30.44-11.56-57.53,27.54-64.71.72-.13,1.45-.27,2.16-.38,27.47-4.52,55.09,4.86,81.58,2,21.79-2.38,9.8-28.51,21.22-40.36,12.39-12.86,31.2-18,47.08-25.07,9.48-4.19,19-9.19,28.46-13.38,16.54-7.3,35.07-1.83,51.52-8"
              transform="translate(110.53 129.02)"/>
        <path class="cls-11"
              d="M-73.88,148.61c8.47-5,16.59-10.8,24.87-15.88,9.12-5.59,18.3-10.88,28.74-13.84a135.83,135.83,0,0,1,17.48-3.8c16-2.4,32.46-7,45-17.67,3.93-3.36,8-6.53,11.53-9.45,11.58-9.61,23.76-14.41,37.92-15s28.72,6.42,40.89,13.55C150,96.75,167,111,186.21,118.9c9.92,4.08,24.24,7.87,33.76,1.48,9-6,16.64-15.5,15.78-27.35-.2-2.87-.86-6.61-1.43-10.28-4.85-31.56-6.06-55.86,32.32-62.14.72-.12,1.47-.26,2.18-.35,25.92-3.24,53.92,4.34,79.58,1.48C367,19.66,362.63-8.92,371.32-18.94c10.67-12.31,31.26-17.69,47.4-25,9.32-4.21,18.43-9.32,27.67-13.48C463-64.87,481-59.35,497.71-64.86"
              transform="translate(110.53 129.02)"/>
        <path class="cls-11"
              d="M-74.88,146.27c8.15-5,16-10.52,24.36-15.21C-41.27,125.86-32,121-22,117.53A100.56,100.56,0,0,1-4.67,112.7c16.16-2.6,32.05-7.84,44.64-18.45,3.71-3.12,7.64-5.77,11-8.39C61.31,77.65,73.59,71.58,87,71c14.83-.62,28.89,4.27,41.45,10.51,18.14,9,36.46,24.14,55,31.44,9.69,3.83,23.38,9,32.34,2.86,7.84-5.39,15.61-14.8,14.89-26.25-.17-2.8-.77-6.51-1.21-10.12-4-32.34.09-54.15,37.28-59.59.73-.11,1.47-.23,2.19-.31,25.1-2.71,52.73,4.08,77.61,1.06,17.89-2.16,15.31-31.21,24.65-41.06,11.37-12,31.4-17.39,47.47-25,9-4.25,17.87-9.46,26.83-13.61,16.56-7.67,34.3-2,51.29-6.83"
              transform="translate(110.53 129.02)"/>
        <path class="cls-11"
              d="M-75.88,144s6.64-5.33,23.87-14.57c9.12-4.88,18.76-9.57,28.29-13.74,5.64-2.47,11-5.34,17.07-6.31,15.84-2.55,31.18-7.85,44.16-17.6,3.61-2.72,7.31-5.09,10.43-7.47,10-7.62,21.4-13.69,34.18-14.75,14.62-1.2,28.54,2.4,41.32,7.74,18.6,7.78,37.38,21.78,55.89,29.48,9.13,3.81,22.89,9.84,31.06,4.11,7.25-5.08,15.45-13.61,15-24.8-.1-2.72-.57-6.37-.86-9.91-2.61-32.66,6.72-52.42,42.37-57.11.73-.09,1.47-.21,2.18-.27,24.31-2.24,51.55,4,75.71.77,9.6-1.27,11.13-6.43,14.23-14,4.85-11.84,2.73-18.27,12.13-27.51,11.87-11.66,31.48-17.28,47.33-25,8.72-4.25,17.36-9.71,26-13.79,16.38-7.73,34.13-2.07,51.38-6.09"
              transform="translate(110.53 129.02)"/>
        <path class="cls-11"
              d="M-76.87,141.79s6.22-5.39,23.35-14c9.31-4.68,18.85-9.43,28-14.53,5.58-3.11,10.92-7,16.83-8C6.38,102.71,21.83,98.88,34.86,90c3.48-2.38,7-4.54,10-6.73,9.59-7.1,20.09-13.33,32.25-14.79,14.21-1.71,27.87.88,40.63,5.31,18.82,6.54,37.87,18.84,56.16,27,8.71,3.89,21.73,10.62,30.19,5,9.26-6.2,14.23-11.9,16-23.09.38-2.44-.28-6.21-.36-9.67-.74-32.48,13.53-50.7,47.46-54.73.73-.09,1.48-.19,2.18-.24,23.57-1.82,50.36,4.09,73.89.62,9.69-1.42,10.88-6.78,14.15-14.31,5.23-12.06,3.93-18.43,13.89-27.69,12.2-11.35,31.35-17.25,46.95-25.15,8.47-4.29,16.74-10,25.26-14,16.52-7.64,34-2.15,51.49-5.3"
              transform="translate(110.53 129.02)"/>
        <path class="cls-11"
              d="M-77.86,139.57S-72,134.17-55,126a184.89,184.89,0,0,0,27.55-15.89c5.49-3.93,10.69-7.51,16.62-8.4C4.22,99.44,18.85,97,32.1,88.65c3.36-2.11,6.81-4.11,9.56-6.16,9.74-7.24,19.22-12.5,30.41-15,12.56-2.85,27-.3,39.52,3.28C130.34,76.09,149.26,87,167.4,94.91c8.47,3.7,21.36,10.69,29.65,5.47,7.5-4.73,16.51-10.24,17.54-21.24.25-2.58.1-6,.27-9.37,1.57-31.79,20.27-49,52.49-52.51.73-.08,1.46-.17,2.16-.21,22.91-1.45,49.18,4.41,72.18.64,9.79-1.61,10.65-7.17,14.1-14.71,5.58-12.24,5.13-18.58,15.56-27.88C383.76-36,402.46-42.14,417.7-50.23c8.23-4.37,16.19-10.32,24.69-14.13,16.73-7.51,34-2.12,51.63-4.44"
              transform="translate(110.53 129.02)"/>
        <path class="cls-11"
              d="M-78.85,137.35s5.51-5.41,22.27-13.32c10.07-4.76,18.6-10.82,27.07-17.82A30.4,30.4,0,0,1-13,99C1.73,97.21,16.16,95.43,29.3,87.74A103.21,103.21,0,0,0,38.52,82c9.25-6.92,18.17-12.67,28.73-15.54,11.82-3.22,26.05-1.19,38.13,1.63,18.44,4.3,37,13.79,54.9,21.25,8.37,3.49,21,10.47,29.33,5.65,7.78-4.52,17.47-8.19,19.55-19.28.47-2.5.54-5.78,1-9,4.42-30.74,26.4-47.4,57.35-50.49.72-.07,1.45-.15,2.14-.19,22.35-1.11,48,5,70.62.85,9.89-1.81,10.43-7.6,14.05-15.16,5.91-12.35,6.48-18.86,17.15-28.09C384-37.22,402.34-43.62,417-52c7.92-4.53,15.83-10.56,24.31-14.27,16.88-7.39,34.06-2.07,51.85-3.47"
              transform="translate(110.53 129.02)"/>
        <path class="cls-11"
              d="M-79.84,135.08s5.22-5.39,21.69-13.3C-48,116.92-39.91,109-31.63,102.49c4.85-3.8,10.53-5.24,16.42-5.74,14.52-1.23,28.72-2.44,41.72-9.65a78.91,78.91,0,0,0,9-5.5C44.2,75,53,68.76,62.74,65.26c11-4,24.81-1.71,36.61.37C117.56,68.83,135.4,77.52,152.8,84c8.57,3.2,21,9.66,29.17,5.58s18.45-6.14,21.86-17.29c.74-2.4,1.06-5.53,1.85-8.67,7.33-29.1,32.18-45.91,61.95-48.69.71-.07,1.42-.13,2.11-.17C292.42,13.4,316.33,20.65,339,16,349,14,349.18,8,353,.35c6.2-12.4,7.87-19.19,18.64-28.32,12.47-10.57,30.26-17.17,44.41-25.9,7.73-4.77,15.66-10.74,24.15-14.36,17-7.25,34.21-2,52.1-2.45"
              transform="translate(110.53 129.02)"/>
        <path class="cls-11"
              d="M-80.85,132.76s5-5.36,21.08-13.55c9.88-5,17.32-14.19,26-19.88,4.83-3.17,10.48-4.11,16.35-4.41,14.36-.72,28.34-1.41,41.22-8.31a62.05,62.05,0,0,0,8.73-5.39C41,74.59,49.4,67.61,58.68,63.72c10.41-4.37,23.59-2.2,35.06-.56,17.38,2.47,34.73,10,51.54,15.82,8.67,3,20.74,9.09,29.08,5.29,8.7-4,19.45-4.44,24.32-15.31,1-2.24,1.65-5.25,2.8-8.27,10.33-27.13,37.19-44.56,66.17-47.16.7-.06,1.39-.12,2.07-.15,22.41-1.17,45.52,7,68,1.86,10.11-2.31,10-8.58,14-16.24,6.43-12.39,9.24-19.52,20-28.55C384.09-39.92,401-46.74,414.85-55.83c7.69-5.07,15.63-10.88,24.18-14.42,17.08-7.08,34.45-2,52.38-1.38"
              transform="translate(110.53 129.02)"/>
        <path class="cls-11"
              d="M-81.86,130.37s5.15-5.26,20.42-14.1c9.37-5.42,16-14.83,25.51-19.71,5-2.58,10.47-3.18,16.3-3.27,14.16-.21,28.07-.41,40.82-7.14a52.11,52.11,0,0,0,8.58-5.42C38,73.89,46.16,66.19,55.17,61.66c9.82-4.94,22.72-2.91,33.61-1.22C105.07,63,121.79,69,138,74.19c8.78,2.81,21,8.62,29,4.87,8.6-4,20.79-2.76,26.82-13.35,1.2-2.12,2.27-5,3.82-7.84,13.42-25,41.18-43.4,69.91-45.93.68-.06,1.38-.13,2-.14,21.23-.27,45.23,8.14,67.09,2.7,7.81-1.95,9.48-6.78,12.9-13.15,7.19-13.43,10.18-22.56,22.26-32.54C384.14-41.37,400-48.47,413.53-57.91c7.74-5.39,15.7-11,24.32-14.41,17.17-6.89,34.79-2,52.68-.25"
              transform="translate(110.53 129.02)"/>
        <path class="cls-11"
              d="M-82.88,127.89s5.7-5.18,19.73-15C-55,107.22-47.73,98-38.09,94c5.1-2.1,10.46-2.45,16.25-2.34,14,.28,27.92.6,40.56-6.12A43.7,43.7,0,0,0,27.23,80c8.25-7.4,15.88-16.17,25.08-21.11,9.5-5.1,21.58-3.49,32.39-1.72,15.29,2.51,31.17,7.9,46.54,12.42,8.89,2.62,20.56,7.93,28.83,4.38,9.36-4,21.68-1.52,29.22-11.45,1.51-2,2.9-4.63,4.92-7.38,16.81-22.87,43.9-42.39,73.06-45,.66-.06,1.35-.13,2-.14,21-.09,44.66,9.75,66.39,3.75,7.89-2.17,9.28-7.23,12.79-13.69,7.36-13.53,11.36-22.92,23.43-32.95s27.41-17.89,40.32-27.24c7.52-5.44,16.07-11.53,24.49-14.33,17.12-5.69,34.34-2.11,53,.91"
              transform="translate(110.53 129.02)"/>
        <path class="cls-11"
              d="M-83.92,125.31s5.51-5.32,19-16.14c7.44-6,15.13-14.29,24.67-17.53C-35.13,89.89-29.8,89.71-24,90c13.88.72,27.9,1.59,40.46-5.21A39.61,39.61,0,0,0,24.92,79c8.36-8,16-17.88,25.3-23.66S70.77,51,81.68,53.13c14.28,2.75,29.15,8,43.55,12,9,2.48,20,7.27,28.55,3.92,10.16-4,22.49-.49,31.46-9.61,1.8-1.84,3.56-4.3,6.06-6.89,19.84-20.52,45.84-41.66,75.51-44.43.64-.06,1.29-.11,1.91-.13,22.23-.87,43.52,12,66,5,8-2.48,9.08-7.73,12.68-14.29,7.49-13.62,12.45-23.29,24.45-33.39,11.84-10,26.31-18.62,38.94-27.77,7.53-5.45,16.19-11.51,24.69-14.21,17.22-5.48,34.79-2.15,53.34,2.11"
              transform="translate(110.53 129.02)"/>
        <path class="cls-11"
              d="M-85,122.63s4.7-6.47,18.23-17.58c7.21-5.92,15-13.16,24.31-15.84,5.17-1.48,10.46-1.59,16.19-1.14,13.82,1.1,28,2.56,40.52-4.41a38,38,0,0,0,8.59-6.18C31.4,68.87,38.05,57.77,49.18,51.9c10.39-5.47,20.12-5.58,30.6-3.6,12.91,2.46,26.85,8.84,40.45,12.46,9,2.4,19.38,6.74,28.1,3.57,10.93-4,23.16.41,33.41-7.8,2.1-1.68,4.28-3.86,7.3-6.43C210.35,31.91,236.76,8.94,266.12,6c.61-.06,1.24-.11,1.85-.14C290.25,5,311.25,20,333.79,12.35c8.06-2.75,8.88-8.26,12.57-14.95,7.56-13.68,13.46-23.65,25.33-33.82,11.54-9.87,25.06-19.47,37.61-28.35,7.67-5.41,16.33-11.45,24.9-14C451.5-84,469.54-81,487.89-75.45"
              transform="translate(110.53 129.02)"/>
        <path class="cls-11"
              d="M-86,119.83s4.27-8.2,17.46-18.7c7.08-5.64,14.83-12.15,24-14.47a45.94,45.94,0,0,1,16.16-.88c13.83,1.38,28.26,3.45,40.76-3.73a35.78,35.78,0,0,0,8.75-6.63C29.66,66.07,36.61,55,48.55,49c10.27-5.12,20-6.08,30.36-4.75,12.24,1.58,25.13,8.24,37.55,12,8.48,2.58,18.84,6.34,27.41,3.44,11.62-3.92,23.76,1.21,35-6,2.38-1.52,5.18-3.73,8.52-6.22,22.05-16.42,49.11-40.7,77.74-44,.59-.06,1.2-.12,1.78-.14,22.36-.92,43.36,16.69,66,8.25C341,8.62,341.7,2.8,345.46-4c7.61-13.73,14.28-24,26-34.29,11.19-9.8,23.9-20.37,36.34-28.93,7.8-5.38,16.48-11.37,25.12-13.85,17.37-5,36-2.14,54.07,4.63"
              transform="translate(110.53 129.02)"/>
        <path class="cls-11"
              d="M-87.11,116.91S-84,107.3-70.4,97.41C-62.67,91.77-55.85,86-46.75,83.89A46.28,46.28,0,0,1-30.59,83c13.86,1.56,28.64,4.21,41.14-3.18a33.22,33.22,0,0,0,9-7.16C27.62,63,35.92,52.05,48.18,46.5A59,59,0,0,1,78.9,41.12c11.15,1.22,23.6,6.61,35.21,10.47,9.66,3.21,19.15,6.38,26.47,3.64,11.66-4.36,25.16.49,36.3-4.33,2.61-1.12,5.75-3.61,9.36-6C208.67,30,236.18,4.54,263.91.85c.56-.07,1.15-.13,1.71-.16,22.49-1.06,43.73,19.43,66.55,10.17,8-3.24,8.64-9.39,12.45-16.27,7.63-13.78,15-24.37,26.54-34.79C382.05-50,394-61.35,406.3-69.73,414.19-75.1,423-81,431.67-83.34c17.41-4.73,36.73-2.08,54.45,5.93"
              transform="translate(110.53 129.02)"/>
        <path class="cls-11"
              d="M-88.21,113.88s2.8-10.57,16-20.07c7.46-5.38,14.21-10.76,23.35-13a44.86,44.86,0,0,1,16.15-1.1c13.88,1.6,29.18,4.74,41.66-2.79A34.66,34.66,0,0,0,18,69.24c8.19-10.08,17.37-20,29.9-25,10-4,21.46-6.62,31.64-5.51,11,1.2,22.53,4.82,33.42,8.41,9,3,17.35,6.48,25.71,3.74,12.13-4,25.33,1.49,36.78-2.85,2.75-1,6.15-3.44,10-5.75C208.1,28.66,235.57,2.33,262.34-2c.54-.09,1.11-.17,1.66-.21,22.81-1.55,44.27,22.48,67.41,12.33,7.91-3.47,8.57-10,12.41-16.94,7.63-13.82,15.5-24.72,26.91-35.32,10.64-9.88,21.8-21.83,34-30.1,8-5.39,16.86-11.13,25.63-13.37,17.46-4.47,37.54-2,54.85,7.26"
              transform="translate(110.53 129.02)"/>
        <path class="cls-11"
              d="M-89.32,110.73s2.48-11.21,15.23-20.45C-66.88,85.06-60.2,79.88-51,77.34a42.63,42.63,0,0,1,16.17-1.61c13.78,1.47,29.62,5,42-2.57a39.36,39.36,0,0,0,9.13-7.37C25,55.91,34.77,46.53,47.63,42a88.7,88.7,0,0,1,33-5.19c10.29.45,21.67,3.24,32.14,6.35,8.57,2.55,16.1,6.23,25.06,3.44,12.06-3.76,25.33,2.19,36.68-1.57,2.85-.94,6.48-3.26,10.52-5.48,13.9-7.63,27.46-16.44,40.94-25,10.51-6.64,22.15-17.53,34.71-19.72a16.08,16.08,0,0,1,1.66-.22c23.07-1.75,45,25.53,68.32,14.58,7.72-3.64,8.57-10.64,12.39-17.59a144,144,0,0,1,27.12-35.87c10.42-10,20.8-22.46,33-30.67,8-5.38,17.05-11,25.88-13.1,17.54-4.21,38.41-1.79,55.26,8.62"
              transform="translate(110.53 129.02)"/>
        <path class="cls-11"
              d="M-90.44,107.46s2.16-11.57,14.51-20.72c7-5.14,13.56-10.31,22.8-13.32,5.3-1.72,10.68-2.85,16.18-2.39,13.54,1.12,29.47,5.18,42-1.77a38.4,38.4,0,0,0,9.37-6.89c9.21-9.64,19.87-19,32.8-22.64a113.69,113.69,0,0,1,34.64-4.61,159.58,159.58,0,0,1,31.43,4.6c8.21,2,15.17,5.68,24.41,2.8C149.23,38.93,163,45.15,174,42c2.92-.84,6.74-3.08,10.94-5.21a419.31,419.31,0,0,0,41.51-24.61C236.35,5.57,246.93-6.1,259-8.31a15.62,15.62,0,0,1,1.65-.24C284-10.5,306.55,20,329.89,8.29c7.47-3.73,8.64-11.32,12.4-18.2a155.08,155.08,0,0,1,27.19-36.44c10.23-10.23,19.84-23.05,32.13-31.21,8.06-5.35,17.24-10.82,26.15-12.82,17.62-3.94,39.3-1.57,55.67,10"
              transform="translate(110.53 129.02)"/>
        <path class="cls-11"
              d="M-91.55,104.18s1.83-11.8,13.78-21C-71.07,78-64.51,72.67-55.22,69c5.32-2.09,10.64-3.71,16-3.21,13.39,1.24,29.24,5.8,42-.47a37.6,37.6,0,0,0,9.68-6.4c10.23-9.84,21-17.35,34.18-21.62C57.82,33.68,71,32.55,83.05,33.4a302,302,0,0,1,31.32,3.35c8,1.41,14.43,4.94,23.84,1.9,10.85-3.51,25.14,2.85,35.62.22,3-.74,6.92-2.9,11.24-4.94a280.14,280.14,0,0,0,41.71-24.3c9.55-6.77,18.63-18.83,30.54-21.17A15.89,15.89,0,0,1,259-11.8c23.64-2.31,46.86,31.49,70.12,19.08,7.25-3.87,8.7-11.92,12.43-18.8a167,167,0,0,1,27.13-37C378.73-59,387.52-72,400-80.24c8.14-5.33,17.44-10.66,26.43-12.52,17.74-3.69,40.22-1.3,56.08,11.34"
              transform="translate(110.53 129.02)"/>
        <path class="cls-11"
              d="M-92.66,101s1.5-12,13-21.5c6.46-5.3,13-10.91,22.33-15.39,5.34-2.56,10.4-4.1,15.59-3.57,13.27,1.33,29,6.38,42,.84a36.5,36.5,0,0,0,10-5.89c10.76-9.5,22-16.75,35.45-20.8,11.78-3.55,25.54-4.44,38.14-3.27,10.48,1,21.24,1.66,31.81,2.77,7.8.81,13.93,4.1,23.41.84,10.19-3.52,24.87,2.85,34.86.66C177,35,181,33,185.45,31c14.36-6.36,29-14.37,41.54-24,9.23-7.1,16.64-19.29,28.64-21.81.55-.11,1.11-.21,1.66-.27,23.84-2.53,48.32,34.24,71,21.26,7-4,8.74-12.43,12.5-19.34a185.17,185.17,0,0,1,26.93-37.56c9.9-10.75,18-24,30.72-32.21,8.21-5.3,17.63-10.49,26.7-12.22,17.9-3.43,41.15-1,56.5,12.72"
              transform="translate(110.53 129.02)"/>
        <path class="cls-11"
              d="M-93.77,97.84A37.22,37.22,0,0,1-81.44,75.67c6.22-5.52,13-12.16,22-16.89,5.18-2.7,10.09-4.15,15.13-3.61C-31.06,56.6-15.53,62-2.35,57.3A34.84,34.84,0,0,0,8,51.91C19.31,42.78,31,35.67,44.61,31.71a101.54,101.54,0,0,1,39.72-2.78c10.9,1.37,21.84,2.52,32.91,3,7.69.3,13.67,3.24,23.15-.3,9.63-3.59,24.27,2.53,34.06.8,3-.52,7.19-2.48,11.55-4.38,15-6.55,31.51-14.61,43.87-26.19,7.82-7.34,12.75-17.4,24.07-19.94a15.84,15.84,0,0,1,1.65-.29C279.68-21.17,306,18.48,327.35,4.93,333.86.79,336.08-7.86,340-14.89A218.11,218.11,0,0,1,366.58-53c9.68-11.15,17.27-24.46,30.21-32.65,8.3-5.26,17.43-9.76,27-11.92,18.1-4.11,43.24.2,56.93,14.09"
              transform="translate(110.53 129.02)"/>
        <path class="cls-11"
              d="M-94.89,94.74a40.75,40.75,0,0,1,11.62-23c6.63-6.63,13.51-13.64,21.64-18.29,4.85-2.78,9.75-4.14,14.7-3.64,13.48,1.37,28.23,7.3,41.74,3.37A33.69,33.69,0,0,0,5.58,48.25C17.3,39.52,29.3,32.39,43.1,28.37a96.07,96.07,0,0,1,41-2.58c11.37,1.87,22.82,4.06,34.56,4,7.79,0,13.72,2.45,23.14-1.38,9.19-3.74,23.9,2.19,33.33.59,3-.51,7.19-2.24,11.57-4.06,14.79-6.15,31.2-13.92,42.7-26,7.42-7.8,11.35-17.66,22.85-20.38a15.94,15.94,0,0,1,1.65-.31c24.21-3,51.72,39.18,72.4,25.25,6.35-4.28,8.86-13,12.84-20.18A275.09,275.09,0,0,1,365.32-55.3c9.38-11.71,16.81-25,29.86-33.07,8.39-5.2,17.6-9.59,27.26-11.62,18.36-3.84,44.14.65,57.34,15.46"
              transform="translate(110.53 129.02)"/>
        <path class="cls-11"
              d="M-96,91.65A43.73,43.73,0,0,1-85.08,67.6C-78.74,60.51-72.16,53-63.95,48.07c4.72-2.82,9.5-4.18,14.33-3.69,13.46,1.38,27.82,7.71,41.45,4.53A32.63,32.63,0,0,0,3,44.47c12.1-8.32,24.37-15.6,38.25-19.86,13-4,28.35-5.39,41.86-2.79,12,2.31,24.14,6.13,36.73,5.93,8.14-.13,14.08,1.82,23.4-2.32,8.87-3.94,23.55,1.75,32.71.21,3-.5,7.17-2.09,11.54-3.84C202.07,16,217.87,8.49,228.6-4c7-8.17,10.32-17.85,21.94-20.74.54-.13,1.1-.25,1.65-.33C276.59-28.43,303.44,16,325,1.85c7.82-5.14,11.08-16.73,15.76-25.14,6.77-12.15,15-23.41,23.18-34.35,8.79-11.8,16.53-25.49,29.65-33.45,8.48-5.14,17.79-9.42,27.54-11.31,18.63-3.6,45,1.1,57.74,16.82"
              transform="translate(110.53 129.02)"/>
        <path class="cls-11"
              d="M-97.12,88.58A48.71,48.71,0,0,1-86.9,63.31C-81,55.78-74.49,47.82-66.32,42.7c4.58-2.87,9.31-4.22,14-3.74,13.4,1.36,27.38,8.1,41,5.62a31.81,31.81,0,0,0,11.51-4C12.65,32.66,25.15,25,39,20.39s28.54-6.16,42.11-3.61c12.28,2.3,25.81,8.78,39.42,8.84,8.69,0,14.78,1.46,24-3,8.68-4.19,23.24,1.24,32.26-.31,3-.5,7-2.11,11.47-3.72C203,13.31,217.66,5.5,227.48-7c6.61-8.44,9.79-18,21.36-21a14.23,14.23,0,0,1,1.65-.34c25.09-3.65,50.93,42.49,73.17,28.54,8-5,11.47-16.88,16.18-25.41C346.56-37.43,354.7-48.84,362.38-60,370.7-72.09,378.73-86,392-93.79c8.57-5.08,18.34-9.72,27.82-11,18.65-2.55,45.19.66,58.14,18.15"
              transform="translate(110.53 129.02)"/>
        <path class="cls-11"
              d="M-98.23,85.5c.49-10.15,4.47-18.45,9.53-26.65s11.88-16.21,20-21.5c4.47-2.92,9.17-4.28,13.77-3.82,13.31,1.33,27.08,8.59,40.53,6.66,4-.59,8.39-1.57,11.84-3.62C10.07,29,22.64,21.23,36.51,15.67,50.63,10,65.13,7.35,78.69,10.32c12.83,2.82,27.32,12,42,12.91,9.46.58,15.85,1.48,25-3.25,11.17-5.78,20.42,2.74,32.07-.88,2.9-.9,6.94-2.19,11.36-3.72,14.84-5.13,27.7-12.65,37-25.39,6.27-8.63,9.74-18.26,21.16-21.35a13.76,13.76,0,0,1,1.64-.36c25.77-4,50.61,43.76,73.52,30.06,8.28-5,11.84-17,16.57-25.68,6.63-12.14,14.47-23.65,21.81-35,8-12.46,16.27-26.38,29.67-34.11,8.67-5,18.55-9.52,28.09-10.7,18.92-2.35,46.06,1.1,58.54,19.46"
              transform="translate(110.53 129.02)"/>
        <path class="cls-11"
              d="M-99.34,82.41c.24-10.53,4-19.52,8.84-28.17C-85.88,46-79.16,37.46-71.07,32a20.77,20.77,0,0,1,13.59-3.89c13.25,1.28,26.64,8.89,40,7.66a30.72,30.72,0,0,0,12-3.31c13-7.31,25.85-15.58,39.55-22.34C48.32,3.13,62.76-.46,76.31,2.8,89.6,6,104.61,18.21,120,20.39c10.49,1.5,17.3,2,26.35-3,11.19-6.16,20.54,2.24,32.19-1.47,2.87-.91,6.86-2.23,11.23-3.77,14.5-5.13,26-12.27,34.65-25,6-8.83,9.74-18.58,21.06-21.76A13.81,13.81,0,0,1,247.1-35c26.4-4.27,50.29,44.88,73.84,31.46,8.49-4.85,12.17-17.15,16.9-25.94,6.52-12.11,14-23.69,21.07-35.29,7.86-12.86,16.25-26.75,29.85-34.4,8.78-4.93,18.78-9.32,28.38-10.4,19.18-2.16,46.88,1.55,58.91,20.74"
              transform="translate(110.53 129.02)"/>
        <path class="cls-11"
              d="M-100.46,79.3c0-11,3.5-20.62,8.17-29.77,4.3-8.4,10.82-17.26,18.9-22.85a20.4,20.4,0,0,1,13.46-4c13.21,1.22,26.24,9.16,39.59,8.61a29,29,0,0,0,12.13-3C5.37,21.07,18.54,11.74,32,3.75,45.89-4.49,59.6-8.48,74-5.53c15.26,3.14,28.55,17.73,44.4,22.43,9.12,2.69,20.08,2.53,28.19-2,11.4-6.41,21,1.8,32.69-2,2.84-.93,6.76-2.27,11.05-3.83C204.55,3.9,214.65-3,222.82-15.74c5.76-9,9.72-18.84,21-22.1a13.92,13.92,0,0,1,1.64-.39c26.94-4.56,50,45.87,74.11,32.75,16.49-9,27.57-44.7,37.57-61.7,7.73-13.14,16.27-27.08,30.08-34.62,8.89-4.86,19-9.11,28.66-10.1,19.46-2,47.67,2,59.26,22"
              transform="translate(110.53 129.02)"/>
        <path class="cls-11"
              d="M-101.57,76.17A64.68,64.68,0,0,1-94,45c4.61-8.85,10.29-17.86,18.39-23.59a20.32,20.32,0,0,1,13.41-4.06c13.2,1.14,25.91,9.4,39.19,9.51a26.48,26.48,0,0,0,12.14-2.76c14.31-7.4,27.68-18.81,41-27.35,12.25-7.85,26.4-15.45,41.67-11.14,16.85,4.75,29.53,20.57,44.44,26.5,9.67,3.84,20.06,6,30,.18,11.57-6.74,21.78,1.62,33.62-2.33,2.81-.94,6.65-2.3,10.85-3.89C204.63.76,213.51-6,221.24-18.62c5.58-9.09,9.68-19.06,20.87-22.4a16.12,16.12,0,0,1,1.63-.4c27.44-4.83,49.7,46.72,74.34,33.93,16.78-8.71,27.39-45,37.2-62.14,7.64-13.31,16.31-27.35,30.34-34.79,9-4.77,19.23-8.88,28.93-9.79,19.76-1.85,48.42,2.39,59.6,23.18"
              transform="translate(110.53 129.02)"/>
        <path class="cls-11"
              d="M-102.68,73a69.91,69.91,0,0,1,6.82-32.56c4.31-9.07,9.84-18.44,18-24.31A20.37,20.37,0,0,1-64.42,12c13.2,1,25.64,9.61,38.85,10.37a24,24,0,0,0,12.13-2.48c15.13-7.72,28.28-21,41.76-30.65C40.1-19.25,54.18-27.9,69.57-23.59,87-18.71,99.36-2,113.93,6.28c9.65,5.45,20.3,9.72,31.24,3.24,11.9-7,22.86,1.76,35-2.45,2.79-1,6.53-2.32,10.64-4C204.4-2.31,212.25-9.2,219.65-21.5c5.52-9.17,9.6-19.22,20.79-22.64a14.4,14.4,0,0,1,1.63-.41c27.87-5.21,49.4,47.59,74.51,35,17.23-8.66,27.12-45.38,36.87-62.52,7.6-13.37,16.39-27.59,30.62-34.9,9.11-4.69,19.46-8.66,29.21-9.49,20.07-1.72,49.14,2.77,59.91,24.33"
              transform="translate(110.53 129.02)"/>
        <path class="cls-11"
              d="M-103.79,69.82A75.61,75.61,0,0,1-97.68,36c4-9.39,9.44-19,17.72-25A20.69,20.69,0,0,1-66.44,6.66c13.25.94,25.47,9.81,38.6,11.2a22,22,0,0,0,12.17-2.13C.14,7.74,13.22-8,26.73-18.6,38.08-27.53,52-37,67.48-32.82,85.38-28,97.73-10.41,111.63-.35c9.13,6.61,20,13.55,31.69,6.85,12.43-7.13,24.27,2.33,37-2.2,2.77-1,6.42-2.37,10.43-4,13-5.45,20.27-12.71,27.35-24.62,5.49-9.22,9.5-19.34,20.72-22.84a13.94,13.94,0,0,1,1.63-.42C268.75-53.08,289.5.52,315-11.73c17.6-8.44,26.85-45.69,36.57-62.84,7.59-13.39,16.5-27.79,30.93-35A90.72,90.72,0,0,1,412-118.7c20.69-2.41,50.44,4.12,60.19,25.41"
              transform="translate(110.53 129.02)"/>
        <path class="cls-11"
              d="M-104.9,66.61a81.52,81.52,0,0,1,5.39-35.1C-95.8,21.78-90.39,11.9-82,5.76A21.29,21.29,0,0,1-68.29,1.38c13.49.79,25.48,9.9,38.51,11.88a18.66,18.66,0,0,0,12.27-2C-1.29,2,11.19-15,25.26-26.57,36.45-35.8,49.94-45.76,65.45-41.85c18.17,4.6,30.72,22.39,43.84,34.18C117.5-.28,129.15,9.55,141.16,2.89c12.77-7.08,25.71,3.51,38.91-1.27,2.77-1,6.32-2.46,10.2-4.14,22.54-9.8,24.95-40.76,46.87-47.7a16.34,16.34,0,0,1,1.63-.43c28.82-5.67,48.72,48.35,74.67,36.71,17.64-7.92,26.8-46,36.33-63.12C357.32-90.63,366.41-105,381-112a92.9,92.9,0,0,1,29.78-8.85c21.06-2.28,51,4.45,60.45,26.44"
              transform="translate(110.53 129.02)"/>
        <path class="cls-11"
              d="M-106,63.39c-1.16-12.59,1.05-24.62,4.66-36.29,3.09-10,8.86-20.19,17.44-26.45A23.12,23.12,0,0,1-70-3.93C-56.16-3.89-44.28,5.45-31.35,8A17.08,17.08,0,0,0-19,6.09c16.31-10,28.65-28.28,42.91-40.61C34.78-43.94,47.94-54,63.46-50.42c18.39,4.2,31.1,22.16,43.46,34.91C114.61-7.57,126.4,5.11,139-1.24c13.1-6.62,26.62,5.4,40.51.24,2.76-1,6.23-2.49,10-4.22,21.89-10.08,24.4-41,46.06-47.95a16.34,16.34,0,0,1,1.63-.43c29.23-5.85,48.39,48.37,74.66,37.38,17.58-7.35,26.79-46.23,36.13-63.32,7.52-13.76,16.8-28.06,31.62-34.92a95.31,95.31,0,0,1,30.09-8.5c21.5-2.16,51.57,4.73,60.66,27.38"
              transform="translate(110.53 129.02)"/>
        <path class="cls-11"
              d="M-107.12,60.15c-1.37-12.88.58-25.35,4-37.42C-100.31,12.48-94.52,2-85.75-4.42A26.35,26.35,0,0,1-71.61-9.51c14.09-.84,26.09,8.63,38.94,11.66A16,16,0,0,0-20.28.31C-3.89-10.17,8.16-29.54,22.53-42.29,33.22-51.78,46-61.37,61.47-58.3c18.64,3.7,31.22,21.17,43.06,34.59,7.4,8.39,19.12,23.61,32.22,17.84,13.64-6,26.81,7.91,41.72,2.31,2.77-1,6.15-2.53,9.76-4.29,21.29-10.42,24.25-41.3,45.66-48.2.54-.17,1.09-.33,1.62-.44,29.53-6,48.12,48.28,74.6,37.94C327.57-25.37,337-65,346.1-82c7.49-14,17-28.14,32-34.83a97.65,97.65,0,0,1,30.4-8.13c22-2,52.06,5,60.83,28.24"
              transform="translate(110.53 129.02)"/>
        <path class="cls-11"
              d="M-108.23,56.92A97.52,97.52,0,0,1-105,18.42c3.08-10.34,7.86-20.84,17.41-27.79a31.23,31.23,0,0,1,14.43-5.89C-58.85-17-46.59-7.71-33.8-4.14A15,15,0,0,0-21.33-5.93C-4.92-16.71,6.75-36.87,21.18-49.73c10.55-9.41,22.84-18,38.26-15.5,18.85,3.06,31.19,19.33,42.69,33.16,7.31,8.79,18.87,26,32.38,21.12C149-16.23,160.77.09,177-6.08c2.78-1.06,6.06-2.54,9.59-4.27C208-20.81,210.8-51.94,232.28-58.87c.54-.17,1.09-.32,1.62-.43,29.72-6,47.94,48.06,74.46,38.37,17.26-6.31,26.95-46.64,35.9-63.56,7.49-14.14,17.19-28.19,32.4-34.69a100.18,100.18,0,0,1,30.71-7.75c22.39-1.9,52.5,5.09,61,29"
              transform="translate(110.53 129.02)"/>
        <path class="cls-11"
              d="M-109.33,53.7c-3-22.64.46-53.28,19.9-68,25.05-19,47.23,14.42,67.18,1.85C3.48-28.7,19.39-75.76,57.33-71,76.1-68.64,87.64-54.82,99.06-41.25c8,9.48,19.31,28.94,33.18,24.83,8.82-2.62,13,3.34,20.63,6,12.27,4.3,19.8,4.1,31.93-2.27C205.46-23.53,209.4-55,230.67-61.62,261.06-71,279.33-14,306.55-23.39c14.43-5,20-32.12,26.51-45.69,9.48-19.7,21-44.49,42.2-52.37,27.51-10.26,79.68-15,92.1,22.35"
              transform="translate(110.53 129.02)"/>
    </g>
</svg>