<svg id="_Layer_" data-name="&lt;Layer&gt;" xmlns="http://www.w3.org/2000/svg" viewBox="0 0 2598.73 1663.7"><defs><style>.cls-1{fill:#84d3ec;}.cls-2{fill:#ffb27d;}.cls-3{fill:#331832;}.cls-4{fill:#daebe8;}.cls-5{fill:#6da49a;}.cls-6{fill:#ffbd8f;}.cls-7{fill:#f9a672;}.cls-8{fill:#f09268;}.cls-9{fill:#f59a6d;}.cls-10{fill:#366f90;}.cls-11{fill:#26617d;}.cls-12{fill:#68a1bf;}.cls-13{fill:#080435;}.cls-14{opacity:0.3;}.cls-15{fill:#fff;}.cls-16{fill:#020202;}.cls-17{fill:#ef8062;}.cls-18{fill:#5f3563;}.cls-19{fill:#4f8a80;}.cls-20{fill:#7bb6ab;}.cls-21{fill:#5c305d;}.cls-22{fill:#764678;}.cls-23{fill:#f8a16a;}.cls-24{fill:#ff9e89;}.cls-25{fill:#25607d;}.cls-26{opacity:0.6;}</style></defs><path class="cls-1" d="M2689.74,396v1036c0,174-165,279.57-338.8,300.79-47.75,5.81-95.8,9.82-146.62,12.22-214.31,10.26-513.67-11.84-533.3-11.84-362.22-20.14-261.74-24.94-1057.16-4-2,0-105.83,3-184,3.65C242.71,1734.19,91,1598.06,91,1431.94V396C91,229.88,243,85.45,429.81,95.22c173.47,9.08,428.61,45,694.57,23,316.33-26.15,916.75-48.39,1226.56-23C2537.26,110.48,2689.74,229.88,2689.74,396Z" transform="translate(-91.01 -84.03)"/><path class="cls-2" d="M830.61,563.32s38.23,5.3,47.65,26.07c8,17.54-12,17.1-12,17.1l-33.25-1-21-15.17Z" transform="translate(-91.01 -84.03)"/><path class="cls-3" d="M1500.26,641.87s-8,22.21,42.21,32.49,27.25,32.16,36.21,45c0,0,4.49,5.72,23,9.3s23.72,49.09-35.77,37.83-86-51.63-86-51.63l-.85-29.92Z" transform="translate(-91.01 -84.03)"/><path class="cls-2" d="M1243.73,727s-30.12-13.63-46.43-2.89c-13.77,9.07.85,17.85.85,17.85l24.56,14.45,22.14-1.4Z" transform="translate(-91.01 -84.03)"/><path class="cls-4" d="M1513.48,734.3c-41-36.83-120.45-12.63-174.32-10.38-43.46,1.82-96.15-4.32-96.15-4.32s-17.13,25.92-5,45.16c0,0,43.61,18,95.33,26,55.51,8.61,111,2.09,104.35-1C1437.74,789.83,1526.79,746.24,1513.48,734.3Z" transform="translate(-91.01 -84.03)"/><path class="cls-4" d="M1552.64,797.56c-4.06-48.75-.05-60.36-47.12-76.21-6.23-2.1-36-6.35-42.6-6.46-38.76-.61-55.08,71.41-57.37,136.24.29,10.61,1.42,43.17,2.35,55.21,0,0,71.79-24.12,157.82,8.79C1565.73,913.19,1556.54,844.34,1552.64,797.56Z" transform="translate(-91.01 -84.03)"/><path class="cls-3" d="M1565.83,917c-1.58,10.3-37,23.62-81,16.08s-78.53-16.45-76.94-26.76,38.19-13.77,82.66-10.56C1538.15,899.21,1567.41,906.71,1565.83,917Z" transform="translate(-91.01 -84.03)"/><path class="cls-5" d="M1460.38,757.34a2.45,2.45,0,0,0-2.59-2.34,2.49,2.49,0,0,0-2.24,2.69,2.45,2.45,0,0,0,2.58,2.34A2.49,2.49,0,0,0,1460.38,757.34Z" transform="translate(-91.01 -84.03)"/><path class="cls-5" d="M1457.79,853.28a2.45,2.45,0,0,0-2.59-2.34,2.49,2.49,0,0,0-2.24,2.7,2.45,2.45,0,0,0,2.58,2.33A2.48,2.48,0,0,0,1457.79,853.28Z" transform="translate(-91.01 -84.03)"/><path class="cls-5" d="M1453.22,802.23a2.46,2.46,0,0,0-2.59-2.33,2.49,2.49,0,0,0-2.25,2.69,2.46,2.46,0,0,0,2.59,2.34A2.5,2.5,0,0,0,1453.22,802.23Z" transform="translate(-91.01 -84.03)"/><path class="cls-3" d="M1411.26,795.45l-.1,0a.37.37,0,0,1-.26-.46c4.52-15.71-1.68-26.94-1.74-27.05a.36.36,0,0,1,.14-.5.37.37,0,0,1,.5.13c.07.12,6.41,11.59,1.81,27.63A.37.37,0,0,1,1411.26,795.45Z" transform="translate(-91.01 -84.03)"/><path class="cls-3" d="M1393.15,1187.27s.24,19.44-9.94,17.56c-11.32-2.1-33.21.76-22.71,9.5,6,5,23.23,7.49,31,9.36,11.49,2.77,22.87,6.08,28.78.94,6.51-5.65-.65-37.47-.65-37.47s-6.88,3.47-13.08,3.34C1397.63,1190.31,1393.15,1187.27,1393.15,1187.27Z" transform="translate(-91.01 -84.03)"/><path class="cls-5" d="M1413.07,910s-65.17,37.51-81.42,95.7c-15.9,56.91,40,174.55,49.14,186.15s50,19,53.38-4.7c5-34.76-26.79-142.6-18.36-156.26,15-24.37,139.14-68.91,137.75-65.12,0,0-8.14-49.92-35.65-57.73C1486.05,899,1442.81,900.4,1413.07,910Z" transform="translate(-91.01 -84.03)"/><path class="cls-3" d="M1579.93,1241.3s-1.86,13.53-11.88,16.19-38.21,2.72-28.78,12.71c5.41,5.74,33.86,5.93,41.79,6.9s15,5.19,21.48.83c7.1-4.8,3.69-33.42,3.69-33.42s-7.22,2.57-13.36,1.67C1584,1244.88,1579.93,1241.3,1579.93,1241.3Z" transform="translate(-91.01 -84.03)"/><path class="cls-5" d="M1439.3,922.42c87.3,225.86,125.15,310.07,136.33,329.15,7.24,12.33,54,3.6,50.23-21.92-5.44-36.8-49-257.53-68.88-303.73C1548.08,905.24,1426.65,889.69,1439.3,922.42Z" transform="translate(-91.01 -84.03)"/><path class="cls-3" d="M1469.53,1000.69a.66.66,0,0,1-.63-.5c-6.6-25.26-17.88-32.35-18-32.41a.64.64,0,0,1-.22-.89.64.64,0,0,1,.88-.23c.48.29,11.83,7.36,18.58,33.22a.63.63,0,0,1-.46.78Z" transform="translate(-91.01 -84.03)"/><path class="cls-2" d="M2116.42,960.24s-30.11-13.63-46.42-2.89c-13.77,9.08.85,17.86.85,17.86l24.56,14.45,22.14-1.4Z" transform="translate(-91.01 -84.03)"/><path class="cls-2" d="M1690.75,860s-30.12-13.62-46.43-2.88c-13.77,9.07.85,17.85.85,17.85l24.56,14.45,22.14-1.4Z" transform="translate(-91.01 -84.03)"/><path class="cls-6" d="M1244.41,1161s-21.84-59.91-79.34-80.64-152.55-31.63-181.5-32.06-101.52,56.35-101.52,56.35Z" transform="translate(-91.01 -84.03)"/><path class="cls-7" d="M905.86,1457.31s-51.22-35.83-97.81-90.62C783.6,1338,681,1331.84,671.48,1319.91c-23.3-29.32-200.47-76.86-221.63-96.22-28.79-26.33-118.52-72.36-118.52-72.36l217.41-216s144.61,91.45,206.1,130.31c22.47,14.21,47,36,88.79,36.53,58.32.71,118.58,43.73,177.34,78.36,27.55,16.24,77.56,50,94.25,64.83,17.58,15.62,96,48.19,84.73,75.86-19.88,48.9-81.38-2.51-119.6-12.84S905.86,1457.31,905.86,1457.31Z" transform="translate(-91.01 -84.03)"/><path class="cls-8" d="M712.84,1142.12a2.55,2.55,0,0,0-1.62,1.79c-.21.78-5,19.26,0,44a112.56,112.56,0,0,0,16.87,40.57c10.32,15.44,24.72,29,42.8,40.15a2.49,2.49,0,0,0,3.55-.95,2.89,2.89,0,0,0-1-3.78c-17.4-10.78-31.22-23.73-41.08-38.49a106.56,106.56,0,0,1-16-38.46c-4.69-23.42-.12-41.2-.08-41.38a2.86,2.86,0,0,0-1.83-3.45A2.41,2.41,0,0,0,712.84,1142.12Z" transform="translate(-91.01 -84.03)"/><path class="cls-9" d="M1187.18,1180.15h-.29c-6.89-1-41.44-6.26-44.78-15.39-3.42-9.36,1.25-15.85,1.45-16.11a2,2,0,0,1,2.92-.44,2.07,2.07,0,0,1,.44,2.91c-.14.2-3.51,5-.89,12.2,1.83,5,25.34,10.42,41.45,12.68a2.09,2.09,0,0,1-.3,4.16Z" transform="translate(-91.01 -84.03)"/><path class="cls-10" d="M725.29,998.13c-28.57,74.61-84.76,182.79-142.11,249.56-27.71,32.32-64,65.46-104.83,77L91,1169.48v-499Z" transform="translate(-91.01 -84.03)"/><path class="cls-6" d="M1631.59,1312.51l-72.26,273.08s-118.17-41.13-216.15-71.67q-9-2.81-17.79-5.49c-7.21-2.21-14.25-4.32-21.06-6.35-42.07-12.5-75.54-21.1-86.22-20.53l-.85,0c-12.7,1.07-206-52.25-206-52.25s59.9-229.79,52.59-265.38c-13.43-65.49-26.13-95.84,4.15-85.74,64.57,21.58,136.1,38.62,176.4,82.72,8.75,9.57,47.69,27.24,97.74,47.22C1457.42,1254.19,1631.59,1312.51,1631.59,1312.51Z" transform="translate(-91.01 -84.03)"/><path class="cls-10" d="M2659.34,1552.58c-53.67,98.85-172.44,163.55-308.4,180.15-47.75,5.81-95.8,9.82-146.62,12.22-214.31,10.26-513.67-11.84-533.3-11.84l-328.87-114.63c-30.85-116.77-18.79-300.85,0-410.31C2101.74,1406.83,1725.15,1308.3,2659.34,1552.58Z" transform="translate(-91.01 -84.03)"/><path class="cls-6" d="M980.2,1142s-20.85,55.07-86.21,51.19c-54.18-3.21-219,59.75-253.1,110.72-7,10.51,15.31,32.92,22.12,35.9,36.73,16.06,157.47-51,157.47-51s-127.7,42.19-127.27,77.92c.16,13.55,12.57,42,32.07,41.26,49.37-2,135.33-36.52,135.33-36.52s-109.53,31.15-88.06,67.39c5.14,8.69,21.59,20.35,35.07,20.49,42.77.42,109.34-27.81,109.34-27.81s-12.4-2.73-11.1,25.81c1.54,33.81-11.5,14.84,100.52-8,55.68-11.34,177.41,22.11,197.54,2C1264.57,1390.71,980.2,1142,980.2,1142Z" transform="translate(-91.01 -84.03)"/><path class="cls-7" d="M937.44,1474.68l-12.88-67.47c-7.52-17.73,2-37.71,21.3-44.61h0c19.29-6.91,41,1.87,48.57,19.6l19.52,46c12.79,31.43,15.41,57.55-15.66,68.65C954.43,1512.49,944.73,1491.83,937.44,1474.68Z" transform="translate(-91.01 -84.03)"/><path class="cls-9" d="M954.8,1420.57c-5.43,0-9.09-1.64-10.51-4.81-4.48-10-3.52-29.09-3.46-30.34a6.68,6.68,0,0,1,2.87-4.92c6.34-5.14,22.35-8.07,30.1-6.62,10.72,2,16.7,18.85,16,29.08-.57,7.79-17.24,15-28.54,17A37.66,37.66,0,0,1,954.8,1420.57ZM969.06,1378c-7.57,0-18.48,2.74-22.5,6-.87.71-1.19,1.28-1.19,1.53v.08c0,.2-1,19.21,3,28.27.94,2.08,5.63,2.7,12,1.58,12.22-2.16,24.54-9.18,24.81-12.84.62-8.56-4.63-22.85-12.28-24.29A20.74,20.74,0,0,0,969.06,1378Zm-26,7.48h0Z" transform="translate(-91.01 -84.03)"/><path class="cls-7" d="M863.36,1469.46l-.51-57.59c-3.57-15.67,7.35-31,24.39-34.29h0c17-3.27,33.76,6.78,37.34,22.44l9.26,40.61c5.88,27.7,4.11,49.69-23.33,54.94C871.75,1503,866.82,1484.61,863.36,1469.46Z" transform="translate(-91.01 -84.03)"/><path class="cls-9" d="M890.45,1427.47h-.1c-9.33,0-12.09-3.25-12.77-6-2.23-8.91,1.45-24.71,1.71-25.77a6.12,6.12,0,0,1,3.32-4c6.11-3.47,19.93-3.86,26.18-1.65,8.8,3.12,11.32,18.09,9.12,26.64C916.23,1423.33,900.57,1427.47,890.45,1427.47Zm-9-31.23,2.21.53c0,.16-3.72,15.7-1.73,23.64.31,1.24,3,2.5,8.38,2.52h.11c10.93,0,22.34-4.52,23-7.27,1.74-6.73-.42-19.17-6.24-21.23-5.51-2-17.58-1.3-22.28,1.24-1.12.59-1.26,1-1.26,1Zm0,0h0Z" transform="translate(-91.01 -84.03)"/><path class="cls-9" d="M928.55,1430.38a2.25,2.25,0,0,1-2.12-1.49c-.5-1.35-12.09-33.24-4.64-45.75a2.27,2.27,0,0,1,3.9,2.32c-5.27,8.85,1.82,33.23,5,41.87a2.27,2.27,0,0,1-1.34,2.91A2.44,2.44,0,0,1,928.55,1430.38Z" transform="translate(-91.01 -84.03)"/><path class="cls-7" d="M1025.32,1493.51,1012.44,1426c-7.53-17.73,2-37.71,21.3-44.61h0c19.29-6.91,41,1.87,48.56,19.61l19.53,46c12.79,31.43,15.41,57.55-15.66,68.65C1042.31,1531.32,1032.6,1510.66,1025.32,1493.51Z" transform="translate(-91.01 -84.03)"/><path class="cls-9" d="M1042.67,1439.41c-5.43,0-9.08-1.65-10.5-4.81-4.48-10-3.52-29.1-3.46-30.35,0-1.75,1-3.41,2.87-4.92,6.34-5.15,22.31-8.08,30.1-6.62,11,2.09,16.6,20,15.94,29.07-.56,7.81-17.23,15-28.54,17A36.57,36.57,0,0,1,1042.67,1439.41Zm14.26-42.55c-7.57,0-18.47,2.74-22.49,6-.87.7-1.19,1.27-1.2,1.52v.08c0,.2-1,19.21,3.06,28.28,1,2.08,5.63,2.71,12,1.58,12.23-2.17,24.54-9.19,24.8-12.86.63-8.57-4.62-22.84-12.26-24.28A21.65,21.65,0,0,0,1056.93,1396.86Zm-26,7.48h0Z" transform="translate(-91.01 -84.03)"/><path class="cls-9" d="M1016.43,1449.2a2.28,2.28,0,0,1-2.13-1.48c-.49-1.36-12.09-33.23-4.63-45.75a2.27,2.27,0,1,1,3.9,2.31c-5.28,8.86,1.81,33.23,5,41.87a2.26,2.26,0,0,1-1.35,2.91A2.33,2.33,0,0,1,1016.43,1449.2Z" transform="translate(-91.01 -84.03)"/><path class="cls-7" d="M1099.56,1487.65l-12.87-67.47c-7.53-17.73,2-37.71,21.29-44.61h0c19.29-6.91,41,1.87,48.57,19.61l19.52,46c12.79,31.43,15.41,57.55-15.65,68.65C1116.55,1525.46,1106.85,1504.8,1099.56,1487.65Z" transform="translate(-91.01 -84.03)"/><path class="cls-9" d="M1116.92,1433.55c-5.43,0-9.08-1.65-10.5-4.81-4.49-10-3.53-29.1-3.47-30.35a6.7,6.7,0,0,1,2.87-4.92c6.34-5.13,22.36-8.08,30.1-6.62,10.72,2,16.7,18.85,15.95,29.09-.57,7.8-17.25,15-28.55,17A37.54,37.54,0,0,1,1116.92,1433.55Zm14.26-42.55c-7.57,0-18.48,2.74-22.5,6-.87.71-1.19,1.28-1.19,1.53v.08c0,.2-1,19.21,3.06,28.27.94,2.08,5.64,2.72,12,1.59,12.23-2.16,24.55-9.19,24.82-12.84.62-8.56-4.63-22.85-12.28-24.3A21.61,21.61,0,0,0,1131.18,1391Zm-26,7.48h0Z" transform="translate(-91.01 -84.03)"/><path class="cls-9" d="M1090.67,1443.36a2.27,2.27,0,0,1-2.12-1.49c-.5-1.36-12.09-33.25-4.63-45.75a2.26,2.26,0,1,1,3.89,2.31c-5.27,8.87,1.81,33.23,5,41.87a2.27,2.27,0,0,1-1.34,2.91A2.45,2.45,0,0,1,1090.67,1443.36Z" transform="translate(-91.01 -84.03)"/><path class="cls-9" d="M864.58,1476.75a2.27,2.27,0,0,1-2.25-2c-.28-2.37-6.52-58.49-3-72.85,3.69-14.91,13.4-20.52,13.81-20.76a2.25,2.25,0,0,1,3.08.86,2.27,2.27,0,0,1-.84,3.09c-.09,0-8.45,5-11.65,17.9-3.36,13.59,3,70.69,3.06,71.26a2.27,2.27,0,0,1-2,2.51Z" transform="translate(-91.01 -84.03)"/><path class="cls-7" d="M719.69,1043.41s145.94,43,197.82,36.9c58.21-6.82,124.28-19.69,155.15,30.74s43.86,74.4,50.73,94.58-27.91,130.29-66.92,100.4c-37.16-28.46-10.79-79.24-17.72-91.89-27.48-50.17-87.89-36.08-87.89-36.08L807.69,1135.7l-58.27-42.58Z" transform="translate(-91.01 -84.03)"/><path class="cls-9" d="M1076.53,1286.47c-7.26,0-14.6-1.29-18.3-5-5.86-5.86-2.76-19.63.86-30.16a8.75,8.75,0,0,1,9.9-5.82h0l24.69,4.39a10.65,10.65,0,0,1,8.36,13.45c-3.87,13.26-4.27,16.12-4.31,16.68-.12,2.22-2.41,3.34-4.12,4C1090.09,1285.33,1083.35,1286.47,1076.53,1286.47Zm-9.08-36.59a4.31,4.31,0,0,0-4.07,2.91c-4.4,12.76-5.12,22.28-1.94,25.47,2.31,2.32,7.83,3.65,15.15,3.65h0c8.54,0,15.13-1.72,16.65-2.75.32-2.38,1.8-8.12,4.42-17.12a6.1,6.1,0,0,0-4.79-7.71l-24.69-4.38A4.88,4.88,0,0,0,1067.45,1249.88Zm25.76,29.85Z" transform="translate(-91.01 -84.03)"/><path class="cls-11" d="M583.18,1247.69c-27.71,32.32-64,65.46-104.83,77L91,1169.48V910.21c39.39,41.62,108.71,121.11,139.86,195.08C280.69,1223.59,563.69,1133.72,583.18,1247.69Z" transform="translate(-91.01 -84.03)"/><path class="cls-7" d="M720.43,1336a701.67,701.67,0,0,1,73.48-22.13c3.5-.84,2-6.25-1.49-5.4a701.62,701.62,0,0,0-73.48,22.12c-3.36,1.22-1.91,6.64,1.49,5.41Z" transform="translate(-91.01 -84.03)"/><path class="cls-7" d="M820,1390.33a135.32,135.32,0,0,1,33.67-9.35c3.55-.52,2-5.92-1.49-5.41a140.3,140.3,0,0,0-35,9.92c-3.3,1.41-.45,6.24,2.83,4.84Z" transform="translate(-91.01 -84.03)"/><path class="cls-7" d="M1240.05,1163.27a153.2,153.2,0,0,1,1.93,70.29c-.71,3.52,4.69,5,5.41,1.49a160.26,160.26,0,0,0-1.94-73.27c-.91-3.49-6.32-2-5.4,1.49Z" transform="translate(-91.01 -84.03)"/><path class="cls-12" d="M2386.18,967.54c-41-36.82-120.45-12.63-174.32-10.37-43.47,1.81-96.15-4.32-96.15-4.32s-17.14,25.91-4.95,45.16c0,0,43.6,18,95.33,26,55.51,8.61,111,2.09,104.35-1C2310.44,1023.07,2399.48,979.49,2386.18,967.54Z" transform="translate(-91.01 -84.03)"/><path class="cls-12" d="M2425.34,1030.8c-4.07-48.75-.05-60.36-47.12-76.2-6.23-2.1-35.95-6.36-42.61-6.46-38.75-.61-55.07,71.4-57.36,136.24.28,10.61,1.42,43.16,2.35,55.21,0,0,71.78-24.13,157.82,8.78C2438.43,1146.44,2429.24,1077.59,2425.34,1030.8Z" transform="translate(-91.01 -84.03)"/><path class="cls-3" d="M2438.53,1150.26c-1.58,10.31-37,23.63-81,16.09s-78.52-16.45-76.94-26.76,38.2-13.77,82.67-10.56C2410.84,1132.46,2440.11,1140,2438.53,1150.26Z" transform="translate(-91.01 -84.03)"/><path class="cls-3" d="M2324.35,859.9s-2.14-22.39,16.94-24.11,14.57,13.19,18,17.06-5.5,15-14.68,16.38S2324.35,859.9,2324.35,859.9Z" transform="translate(-91.01 -84.03)"/><path class="cls-2" d="M2370.85,951.22c-6.71,9.37-14.72,12.82-25.42,13.61-16.2,1.2-9.82-16.69-9.82-16.69,4-.4,6-2.65,6.06-6.8l0-5.09,0-2.53.1-8.07.08-7.25.34-29.72,9.5,29.53,1.62,5,5.57,17.31a15.66,15.66,0,0,0,11.81,10.66Z" transform="translate(-91.01 -84.03)"/><path class="cls-3" d="M2353.39,923.23s-4.19,9.09-11.64,10.49l.1-8.07C2346.46,924.34,2353.39,923.23,2353.39,923.23Z" transform="translate(-91.01 -84.03)"/><path class="cls-3" d="M2378.84,892.62s-2.25,4.41-2.07,14.77c.26,15.16-16.74,16.81-19.7,11.7-.36-.64,6.32-24.47,6.32-24.47l5.73-1.7Z" transform="translate(-91.01 -84.03)"/><ellipse class="cls-2" cx="2344.06" cy="893.06" rx="34.29" ry="26.87" transform="translate(883.22 2910.4) rotate(-77.76)"/><path class="cls-3" d="M2340.2,864.74c.46,1.22-7.92,17.21,21.55,29.62s20.8-31-1.48-38.05c-32.16-10.13-42.6,11.28-41.53,20.3S2340.2,864.74,2340.2,864.74Z" transform="translate(-91.01 -84.03)"/><path class="cls-3" d="M2359.75,888s9,17.06,1.2,29.83c0,0,9.29-6.23,10.22-9.25S2373,894,2373,894Z" transform="translate(-91.01 -84.03)"/><path class="cls-2" d="M2365.26,904.21c-3.67,2.12-7.85,1.29-9.34-1.84s.28-7.37,3.95-9.48,7.85-1.29,9.34,1.83S2368.93,902.1,2365.26,904.21Z" transform="translate(-91.01 -84.03)"/><path class="cls-13" d="M2341.47,892.7a.64.64,0,0,1-.3-.47.62.62,0,0,1,.52-.71,6.52,6.52,0,0,1,7.19,3.86.65.65,0,0,1-.23.86.66.66,0,0,1-.83-.25,10.35,10.35,0,0,0-6-3.21A.55.55,0,0,1,2341.47,892.7Z" transform="translate(-91.01 -84.03)"/><path class="cls-13" d="M2344.44,900.71c-.32,1.47-1.42,2.47-2.45,2.23s-1.6-1.64-1.28-3.12,1.42-2.47,2.45-2.22S2344.76,899.24,2344.44,900.71Z" transform="translate(-91.01 -84.03)"/><path class="cls-13" d="M2319.61,890.15a.64.64,0,0,1-.22-1.18,6.38,6.38,0,0,1,8.05.71.67.67,0,0,1,.1.9.65.65,0,0,1-.86.09,10.08,10.08,0,0,0-6.69-.6A.64.64,0,0,1,2319.61,890.15Z" transform="translate(-91.01 -84.03)"/><path class="cls-13" d="M2325.29,896.38c.25,1.49-.4,2.85-1.44,3s-2.08-.88-2.32-2.38.4-2.84,1.44-3S2325.05,894.89,2325.29,896.38Z" transform="translate(-91.01 -84.03)"/><g class="cls-14"><path class="cls-15" d="M2356.4,895.26c.39,8.54-4,16.8-9.8,18.46s-10.8-3.91-11.19-12.45,4-16.8,9.79-18.46S2356,886.73,2356.4,895.26Z" transform="translate(-91.01 -84.03)"/></g><g class="cls-14"><ellipse class="cls-15" cx="2319.87" cy="895.42" rx="15.61" ry="9" transform="translate(825.4 2864.17) rotate(-76.75)"/></g><path class="cls-12" d="M2357.12,894.08c0-.66-.09-1.3-.18-1.94-.59-4.44-2.42-8.07-5.18-10.15a8,8,0,0,0-7.25-1.42,9.41,9.41,0,0,0-1.55.58c-4,1.93-7.28,6.76-8.58,12.46h0a17.94,17.94,0,0,0-.37,1.94h0a23.16,23.16,0,0,0,.42,9.16,13.87,13.87,0,0,0,4.7,7.7,9,9,0,0,0,2.86,1.44,9.21,9.21,0,0,0,.91.2,8.27,8.27,0,0,0,3.48-.22,10,10,0,0,0,3.43-1.73l.06,0a18.79,18.79,0,0,0,6.16-9.48h0s0,0,0,0c.14-.4.25-.82.36-1.25a25.59,25.59,0,0,0,.53-2.69,25.1,25.1,0,0,0,.21-3.37C2357.15,894.86,2357.14,894.47,2357.12,894.08ZM2337.36,909a15.16,15.16,0,0,1-1.94-4.53,20.53,20.53,0,0,1-.64-4.17A23.84,23.84,0,0,1,2335,896h0a18.28,18.28,0,0,1,.36-2v0c1.23-5.56,4.35-10.24,8.28-12h0a7,7,0,0,1,1.16-.42,7.12,7.12,0,0,1,3.06-.21,7.52,7.52,0,0,1,3.34,1.46,11.43,11.43,0,0,1,3.44,4.61,15.39,15.39,0,0,1,.78,2.29s0,.06,0,.09l0,.1a.15.15,0,0,0,0,.08.15.15,0,0,0,0,.07.12.12,0,0,1,0,.08,12.23,12.23,0,0,1,.31,1.39h0a21.2,21.2,0,0,1,.29,2.58,22.57,22.57,0,0,1,0,2.85v0c0,.64-.12,1.26-.22,1.89s-.24,1.31-.38,2h0a18.55,18.55,0,0,1-5.78,10l-.22.17a9.44,9.44,0,0,1-3.36,1.76,7.29,7.29,0,0,1-3.93,0l-.18-.06a7.19,7.19,0,0,1-2.28-1.21,10.2,10.2,0,0,1-2.33-2.54A.09.09,0,0,0,2337.36,909Z" transform="translate(-91.01 -84.03)"/><path class="cls-12" d="M2328.83,895.32l-.08,0-.06,0a27.37,27.37,0,0,1-1.54,6.59l.24-.56,0-.11h0l.24-.59c0-.07,0-.16.07-.24a2.34,2.34,0,0,0,.09-.24c.13-.33.25-.68.35-1h0c.08-.25.15-.49.21-.74l0-.13a.43.43,0,0,1,0,0v0s0,0,0,0,.06-.2.09-.31l0-.17c.06-.25.12-.49.16-.75a2.33,2.33,0,0,0,.08-.36s0-.08,0-.11c.07-.35.14-.7.19-1.05a1.1,1.1,0,0,0,0-.16Zm0,0-.08,0-.06,0a27.37,27.37,0,0,1-1.54,6.59l.24-.56,0-.11h0l.24-.59c0-.07,0-.16.07-.24a2.34,2.34,0,0,0,.09-.24c.13-.33.25-.68.35-1h0c.08-.25.15-.49.21-.74l0-.13a.43.43,0,0,1,0,0v0s0,0,0,0,.06-.2.09-.31l0-.17c.06-.25.12-.49.16-.75a2.33,2.33,0,0,0,.08-.36s0-.08,0-.11c.07-.35.14-.7.19-1.05a1.1,1.1,0,0,0,0-.16Zm0,0-.08,0-.06,0a27.37,27.37,0,0,1-1.54,6.59l.24-.56,0-.11h0l.24-.59c0-.07,0-.16.07-.24a2.34,2.34,0,0,0,.09-.24c.13-.33.25-.68.35-1h0c.08-.25.15-.49.21-.74l0-.13a.43.43,0,0,1,0,0v0s0,0,0,0,.06-.2.09-.31l0-.17c.06-.25.12-.49.16-.75a2.33,2.33,0,0,0,.08-.36s0-.08,0-.11c.07-.35.14-.7.19-1.05a1.1,1.1,0,0,0,0-.16Zm0,0-.08,0-.06,0a27.37,27.37,0,0,1-1.54,6.59l.24-.56,0-.11h0l.24-.59c0-.07,0-.16.07-.24a2.34,2.34,0,0,0,.09-.24c.13-.33.25-.68.35-1h0c.08-.25.15-.49.21-.74l0-.13a.43.43,0,0,1,0,0v0s0,0,0,0,.06-.2.09-.31l0-.17c.06-.25.12-.49.16-.75a2.33,2.33,0,0,0,.08-.36s0-.08,0-.11c.07-.35.14-.7.19-1.05a1.1,1.1,0,0,0,0-.16Zm0,0-.08,0-.06,0a27.37,27.37,0,0,1-1.54,6.59l.24-.56,0-.11h0l.24-.59c0-.07,0-.16.07-.24a2.34,2.34,0,0,0,.09-.24c.13-.33.25-.68.35-1h0c.08-.25.15-.49.21-.74l0-.13a.43.43,0,0,1,0,0v0s0,0,0,0,.06-.2.09-.31l0-.17c.06-.25.12-.49.16-.75a2.33,2.33,0,0,0,.08-.36s0-.08,0-.11c.07-.35.14-.7.19-1.05a1.1,1.1,0,0,0,0-.16Zm0,0-.08,0-.06,0a27.37,27.37,0,0,1-1.54,6.59l.24-.56,0-.11h0l.24-.59c0-.07,0-.16.07-.24a2.34,2.34,0,0,0,.09-.24c.13-.33.25-.68.35-1h0c.08-.25.15-.49.21-.74l0-.13a.43.43,0,0,1,0,0v0s0,0,0,0,.06-.2.09-.31l0-.17c.06-.25.12-.49.16-.75a2.33,2.33,0,0,0,.08-.36s0-.08,0-.11c.07-.35.14-.7.19-1.05a1.1,1.1,0,0,0,0-.16Zm0,0-.08,0-.06,0a27.37,27.37,0,0,1-1.54,6.59l.24-.56,0-.11h0l.24-.59c0-.07,0-.16.07-.24a2.34,2.34,0,0,0,.09-.24c.13-.33.25-.68.35-1h0c.08-.25.15-.49.21-.74l0-.13a.43.43,0,0,1,0,0v0s0,0,0,0,.06-.2.09-.31l0-.17c.06-.25.12-.49.16-.75a2.33,2.33,0,0,0,.08-.36s0-.08,0-.11c.07-.35.14-.7.19-1.05a1.1,1.1,0,0,0,0-.16Zm0,0-.08,0-.06,0a27.37,27.37,0,0,1-1.54,6.59l.24-.56,0-.11h0l.24-.59c0-.07,0-.16.07-.24a2.34,2.34,0,0,0,.09-.24c.13-.33.25-.68.35-1h0c.08-.25.15-.49.21-.74l0-.13a.43.43,0,0,1,0,0v0s0,0,0,0,.06-.2.09-.31l0-.17c.06-.25.12-.49.16-.75a2.33,2.33,0,0,0,.08-.36s0-.08,0-.11c.07-.35.14-.7.19-1.05a1.1,1.1,0,0,0,0-.16Zm-3.86-15.7a7.13,7.13,0,0,0-2.18-1.14,6,6,0,0,0-1.89-.29,6.19,6.19,0,0,0-1.39.19h0c-.12,0-.24.07-.35.09-5.55,1.6-9.92,10.21-9.71,19.18.14,5.53,2,10.17,4.88,12.44a6.44,6.44,0,0,0,2.37,1.21,6.21,6.21,0,0,0,3,.06h0l0,0,.39-.09a10.73,10.73,0,0,0,5.4-4.18h0a22.79,22.79,0,0,0,3.46-7.72,25.12,25.12,0,0,0,.71-4.22,18.78,18.78,0,0,0,.12-2v-1.08C2329.72,886.54,2327.89,881.89,2325,879.62Zm2.15,22.43s0,0,0,0a.11.11,0,0,0,0,.06,2.21,2.21,0,0,0-.12.27,17.62,17.62,0,0,1-3.12,5.14,8.82,8.82,0,0,1-3.36,2.45h0s0,0,0,0l-.07,0h-.07a2.65,2.65,0,0,1-.44.17,5.23,5.23,0,0,1-.54.12h0a5.32,5.32,0,0,1-4.4-1.12c-2.61-2-4.28-6.2-4.47-11.24h0v-.12s0,0,0-.05v0s0,0,0,0,0-.07,0-.11c-.19-8.54,3.83-16.67,9-18.15a4.75,4.75,0,0,1,1-.19h0a5.2,5.2,0,0,1,1.93.14,5.83,5.83,0,0,1,2,1l.15.13h0a10.86,10.86,0,0,1,3,4.49,20.87,20.87,0,0,1,1.27,7c0,.41,0,.81,0,1.21v0c0,.69-.07,1.39-.13,2.07h0a27.37,27.37,0,0,1-1.54,6.59Zm1.71-6.73-.08,0-.06,0a27.37,27.37,0,0,1-1.54,6.59l.24-.56,0-.11h0l.24-.59c0-.07,0-.16.07-.24a2.34,2.34,0,0,0,.09-.24c.13-.33.25-.68.35-1h0c.08-.25.15-.49.21-.74l0-.13a.43.43,0,0,1,0,0v0s0,0,0,0,.06-.2.09-.31l0-.17c.06-.25.12-.49.16-.75a2.33,2.33,0,0,0,.08-.36s0-.08,0-.11c.07-.35.14-.7.19-1.05a1.1,1.1,0,0,0,0-.16Zm0,0-.08,0-.06,0a27.37,27.37,0,0,1-1.54,6.59l.24-.56,0-.11h0l.24-.59c0-.07,0-.16.07-.24a2.34,2.34,0,0,0,.09-.24c.13-.33.25-.68.35-1h0c.08-.25.15-.49.21-.74l0-.13a.43.43,0,0,1,0,0v0s0,0,0,0,.06-.2.09-.31l0-.17c.06-.25.12-.49.16-.75a2.33,2.33,0,0,0,.08-.36s0-.08,0-.11c.07-.35.14-.7.19-1.05a1.1,1.1,0,0,0,0-.16Zm0,0-.08,0-.06,0a27.37,27.37,0,0,1-1.54,6.59l.24-.56,0-.11h0l.24-.59c0-.07,0-.16.07-.24a2.34,2.34,0,0,0,.09-.24c.13-.33.25-.68.35-1h0c.08-.25.15-.49.21-.74l0-.13a.43.43,0,0,1,0,0v0s0,0,0,0,.06-.2.09-.31l0-.17c.06-.25.12-.49.16-.75a2.33,2.33,0,0,0,.08-.36s0-.08,0-.11c.07-.35.14-.7.19-1.05a1.1,1.1,0,0,0,0-.16Zm0,0-.08,0-.06,0a27.37,27.37,0,0,1-1.54,6.59l.24-.56,0-.11h0l.24-.59c0-.07,0-.16.07-.24a2.34,2.34,0,0,0,.09-.24c.13-.33.25-.68.35-1h0c.08-.25.15-.49.21-.74l0-.13a.43.43,0,0,1,0,0v0s0,0,0,0,.06-.2.09-.31l0-.17c.06-.25.12-.49.16-.75a2.33,2.33,0,0,0,.08-.36s0-.08,0-.11c.07-.35.14-.7.19-1.05a1.1,1.1,0,0,0,0-.16Zm0,0-.08,0-.06,0a27.37,27.37,0,0,1-1.54,6.59l.24-.56,0-.11h0l.24-.59c0-.07,0-.16.07-.24a2.34,2.34,0,0,0,.09-.24c.13-.33.25-.68.35-1h0c.08-.25.15-.49.21-.74l0-.13a.43.43,0,0,1,0,0v0s0,0,0,0,.06-.2.09-.31l0-.17c.06-.25.12-.49.16-.75a2.33,2.33,0,0,0,.08-.36s0-.08,0-.11c.07-.35.14-.7.19-1.05a1.1,1.1,0,0,0,0-.16Zm0,0-.08,0-.06,0a27.37,27.37,0,0,1-1.54,6.59l.24-.56,0-.11h0l.24-.59c0-.07,0-.16.07-.24a2.34,2.34,0,0,0,.09-.24c.13-.33.25-.68.35-1h0c.08-.25.15-.49.21-.74l0-.13a.43.43,0,0,1,0,0v0s0,0,0,0,.06-.2.09-.31l0-.17c.06-.25.12-.49.16-.75a2.33,2.33,0,0,0,.08-.36s0-.08,0-.11c.07-.35.14-.7.19-1.05a1.1,1.1,0,0,0,0-.16Zm0,0-.08,0-.06,0a27.37,27.37,0,0,1-1.54,6.59l.24-.56,0-.11h0l.24-.59c0-.07,0-.16.07-.24a2.34,2.34,0,0,0,.09-.24c.13-.33.25-.68.35-1h0c.08-.25.15-.49.21-.74l0-.13a.43.43,0,0,1,0,0v0s0,0,0,0,.06-.2.09-.31l0-.17c.06-.25.12-.49.16-.75a2.33,2.33,0,0,0,.08-.36s0-.08,0-.11c.07-.35.14-.7.19-1.05a1.1,1.1,0,0,0,0-.16Z" transform="translate(-91.01 -84.03)"/><path class="cls-3" d="M2328,895.45a1,1,0,0,1-.63-.56,1,1,0,0,1,.49-1.29,10,10,0,0,1,8.46.87,1,1,0,0,1,.4,1.33.92.92,0,0,1-1.27.41c-3.86-2.09-6.81-.82-6.84-.8A.86.86,0,0,1,2328,895.45Z" transform="translate(-91.01 -84.03)"/><path class="cls-3" d="M2365.92,864.31s7.87-20.94,25.63-13.45,11.29,17.24,8.56,23.67c-2,4.79-11.46,10.77-20.24,7.64S2365.92,864.31,2365.92,864.31Z" transform="translate(-91.01 -84.03)"/><path class="cls-3" d="M2367.79,934.11a.55.55,0,0,0,.33-.07.61.61,0,0,0,.25-.82,27,27,0,0,0-10.27-10.33.58.58,0,0,0-.8.25.64.64,0,0,0,.24.83,26,26,0,0,1,9.79,9.82A.61.61,0,0,0,2367.79,934.11Z" transform="translate(-91.01 -84.03)"/><path class="cls-15" d="M2335.61,948.14s-5.59,17.42,9.82,16.69c0,0-7.51,9-13.39,6.06s-.67-6.36-3.23-8.43-5.32-3.51-3.09-6.31.36-7.91.36-7.91S2329.65,944.14,2335.61,948.14Z" transform="translate(-91.01 -84.03)"/><path class="cls-15" d="M2333.08,990.58a2.45,2.45,0,0,0-2.59-2.33,2.5,2.5,0,0,0-2.25,2.69,2.46,2.46,0,0,0,2.59,2.33A2.48,2.48,0,0,0,2333.08,990.58Z" transform="translate(-91.01 -84.03)"/><path class="cls-15" d="M2328.39,1072.05a2.45,2.45,0,0,0-2.59-2.33,2.5,2.5,0,0,0-2.25,2.69,2.46,2.46,0,0,0,2.59,2.33A2.48,2.48,0,0,0,2328.39,1072.05Z" transform="translate(-91.01 -84.03)"/><path class="cls-15" d="M2325.92,1035.48a2.47,2.47,0,0,0-2.59-2.34,2.5,2.5,0,0,0-2.25,2.7,2.45,2.45,0,0,0,2.59,2.33A2.5,2.5,0,0,0,2325.92,1035.48Z" transform="translate(-91.01 -84.03)"/><path class="cls-16" d="M2332.82,916.18a9.64,9.64,0,0,1-7.23-3.55.29.29,0,0,1,0-.41.3.3,0,0,1,.41,0c5.81,6.42,11.92,1.82,12.18,1.62a.3.3,0,0,1,.41,0,.29.29,0,0,1-.05.4A10.24,10.24,0,0,1,2332.82,916.18Z" transform="translate(-91.01 -84.03)"/><path class="cls-15" d="M2370.85,951.22l11.1,1.41s2.34,5.77-2.89,8-6.31,2.35-7.74,6.79-8.09,5.13-10.54,3.8-6.18,4.61-10,4.89-6.53-6.56-5.36-11.33C2345.43,964.83,2359.56,961.22,2370.85,951.22Z" transform="translate(-91.01 -84.03)"/><path class="cls-3" d="M2284,1028.69h-.1a.38.38,0,0,1-.25-.47c4.52-15.71-1.68-26.94-1.74-27.05a.37.37,0,0,1,.64-.37c.07.12,6.41,11.59,1.8,27.64A.35.35,0,0,1,2284,1028.69Z" transform="translate(-91.01 -84.03)"/><path class="cls-3" d="M2265.85,1420.51s.24,19.45-9.94,17.56c-11.32-2.09-33.21.76-22.71,9.51,6,5,23.23,7.49,31,9.36,11.49,2.77,22.87,6.08,28.78.94,6.51-5.66-.66-37.47-.66-37.47s-6.87,3.46-13.07,3.33C2270.32,1423.55,2265.85,1420.51,2265.85,1420.51Z" transform="translate(-91.01 -84.03)"/><path class="cls-17" d="M2285.77,1143.26s-65.17,37.5-81.43,95.69c-15.89,56.91,40,174.55,49.15,186.16s50,19,53.37-4.7c5-34.77-26.78-142.6-18.35-156.27,15-24.37,139.13-68.9,137.75-65.12,0,0-8.14-49.92-35.65-57.72C2358.74,1132.26,2315.51,1133.64,2285.77,1143.26Z" transform="translate(-91.01 -84.03)"/><path class="cls-3" d="M2452.62,1474.54s-1.85,13.53-11.87,16.19-38.21,2.72-28.78,12.72c5.4,5.73,33.86,5.93,41.79,6.9s15,5.18,21.48.82c7.1-4.8,3.69-33.42,3.69-33.42s-7.23,2.58-13.37,1.68C2456.72,1478.12,2452.62,1474.54,2452.62,1474.54Z" transform="translate(-91.01 -84.03)"/><path class="cls-17" d="M2312,1155.67c87.29,225.85,125.15,310.07,136.33,329.14,7.23,12.34,54,3.61,50.23-21.92-5.44-36.8-49-257.53-68.88-303.72C2420.78,1138.48,2299.34,1122.93,2312,1155.67Z" transform="translate(-91.01 -84.03)"/><path class="cls-3" d="M2342.23,1233.93a.66.66,0,0,1-.63-.49c-6.6-25.27-17.88-32.35-18-32.42a.64.64,0,0,1-.22-.89.66.66,0,0,1,.88-.23c.48.3,11.83,7.37,18.58,33.22a.63.63,0,0,1-.46.78Z" transform="translate(-91.01 -84.03)"/><path class="cls-3" d="M2020.38,982.07c4.44,16.27-41.09,21.82-92,28.92s-91.07,5.51-92-1.62,39.18-21.89,90.1-29S2018.49,975.15,2020.38,982.07Z" transform="translate(-91.01 -84.03)"/><path class="cls-17" d="M1973.75,785.13s-15.23-35.45-81.25-23.57c-95.21,17.13-70.9,107.05-56.14,247.81,0,0,7.41-12.22,61-22.73,54.74-10.75,117.58-11.75,122.88-5.18C2020.19,981.46,2004,838,1973.75,785.13Z" transform="translate(-91.01 -84.03)"/><path class="cls-17" d="M2003.38,779.54l-45,28.72s-92.81,26.5-118.58,26.83-35.9-17.65-35.9-17.65,21.77-33.86,65.8-50c4.13-1.52,8.46-2.88,13-4.05a127.33,127.33,0,0,1,23-3.78C1964.24,755.72,2003.38,779.54,2003.38,779.54Z" transform="translate(-91.01 -84.03)"/><path class="cls-2" d="M1914.19,759.2c-5.33,10.08-17.8,11.11-28.14,8.46-8.31-2.14-7.2-2.27-6.35-3.77,2.06-3.69,4.09-4.87,3.61-8.59l-.64-4.88-.08-.61-.82-6.36-1.41-11-3.74-28.86L1890,730.84l2.28,4.63,7.82,15.91C1902.66,756.52,1914.13,759.2,1914.19,759.2Z" transform="translate(-91.01 -84.03)"/><path class="cls-3" d="M1894.06,739.59a19.69,19.69,0,0,1-11.39,10.83l-.08-.61-.82-6.36C1886.4,742.1,1894.06,739.59,1894.06,739.59Z" transform="translate(-91.01 -84.03)"/><path class="cls-17" d="M1912.28,769.82c-73.91-18.42-109.9,42.42-149.41,60.93-39.7,18.6-79.59,26.45-79.59,26.45s-1.5,27,5.6,35.37c0,0,66.87,11.11,102.11-.45,50.49-16.57,90-44.19,82.75-44.6C1873.74,847.52,1929.33,774.06,1912.28,769.82Z" transform="translate(-91.01 -84.03)"/><path class="cls-3" d="M1837.33,1304.89s.23,20.57-9.95,18.57c-11.32-2.22-33.2.81-22.7,10.06,6,5.3,23.22,7.91,31,9.9,11.49,2.92,22.86,6.42,28.78,1,6.5-6-.66-39.63-.66-39.63s-6.88,3.66-13.08,3.52C1841.8,1308.1,1837.33,1304.89,1837.33,1304.89Z" transform="translate(-91.01 -84.03)"/><path class="cls-10" d="M1847.63,1007.85s-55.56,43.46-71.81,105c-15.9,60.19,40,184.62,49.15,196.9s50,20.12,53.37-5c5-36.78-26.79-150.83-18.35-165.28,15-25.78,125.72-114.65,124.33-110.64,0,0,7.75-38.48-23.25-37C1915,994.11,1877.37,997.68,1847.63,1007.85Z" transform="translate(-91.01 -84.03)"/><path class="cls-3" d="M2024.1,1362s-1.86,14.32-11.88,17.13-38.21,2.87-28.78,13.45c5.41,6.07,33.86,6.27,41.8,7.3s15,5.48,21.47.87c7.1-5.08,3.69-35.35,3.69-35.35s-7.22,2.73-13.36,1.77C2028.19,1365.82,2024.1,1362,2024.1,1362Z" transform="translate(-91.01 -84.03)"/><path class="cls-10" d="M1878.27,1002c87.3,238.89,130.36,350.69,141.54,370.86,7.23,13,54,3.82,50.22-23.18-5.43-38.92-44.05-302.87-55.92-354.51C2010.9,981.25,1878.27,1002,1878.27,1002Z" transform="translate(-91.01 -84.03)"/><path class="cls-3" d="M1910.34,1090.17a.69.69,0,0,1-.63-.44,96,96,0,0,0-16.38-29.23.65.65,0,0,1,.05-.93.7.7,0,0,1,.95,0,97.58,97.58,0,0,1,16.65,29.66.67.67,0,0,1-.42.85A.78.78,0,0,1,1910.34,1090.17Z" transform="translate(-91.01 -84.03)"/><path class="cls-3" d="M1822.24,879.81c-.87-12.36-3.72-22.58-8.22-29.57l1-.61c4.6,7.13,7.5,17.55,8.38,30.1Z" transform="translate(-91.01 -84.03)"/><path class="cls-18" d="M1855.29,693.75a40.39,40.39,0,0,0,.11,16c1.82,8.86,10.3-13,10.3-13Z" transform="translate(-91.01 -84.03)"/><path class="cls-2" d="M1854.39,712.28c2-17.18,14.72-29.68,28.33-27.91s23,17.14,21,34.33-14.73,29.68-28.33,27.91S1852.35,729.47,1854.39,712.28Z" transform="translate(-91.01 -84.03)"/><path class="cls-18" d="M1904.23,709.72l-12-1.22a8.73,8.73,0,0,1-6.52-4.07c-2.48-4-5.46-6.07-16.67-5.55-14.19.66-23.62-8.14-25.2-15.91-1.62-7.93,5.61-13.36,12.76-9.62s4-5.53,10.88-6.57c12.8-1.93,15.27,8.4,25.76,8,13.75-.54,38.46,10.23,26.94,35.68Z" transform="translate(-91.01 -84.03)"/><path class="cls-13" d="M1874.48,714.68a.51.51,0,0,1-.39-.23.54.54,0,0,1,.13-.73,5.26,5.26,0,0,1,6.68,0,.52.52,0,0,1-.57.87,8.25,8.25,0,0,0-5.54,0A.45.45,0,0,1,1874.48,714.68Z" transform="translate(-91.01 -84.03)"/><path class="cls-13" d="M1877.93,719.82c-.31,1.21-1.24,2-2.08,1.78s-1.28-1.41-1-2.63,1.24-2,2.08-1.78S1878.24,718.6,1877.93,719.82Z" transform="translate(-91.01 -84.03)"/><path class="cls-13" d="M1859,710.79a.4.4,0,0,1-.19-.34.63.63,0,0,1,.4-.61,3.46,3.46,0,0,1,4.7,2.24.64.64,0,0,1-.21.7.36.36,0,0,1-.55-.1,5.16,5.16,0,0,0-3.9-1.87A.31.31,0,0,1,1859,710.79Z" transform="translate(-91.01 -84.03)"/><path class="cls-13" d="M1862.09,716.46c0,1.26-.69,2.29-1.56,2.29s-1.59-1-1.59-2.27.69-2.28,1.57-2.29S1862.09,715.21,1862.09,716.46Z" transform="translate(-91.01 -84.03)"/><path class="cls-18" d="M1920.15,710.44s-8.18,18.82-19.94,20.28c0,0,9.43-14.37-10.69-22.94C1889.52,707.78,1907.92,704.62,1920.15,710.44Z" transform="translate(-91.01 -84.03)"/><path class="cls-2" d="M1903.63,720.91a5,5,0,0,1-7.16-1.18,5.52,5.52,0,0,1,1.92-7.32,5,5,0,0,1,7.15,1.18A5.53,5.53,0,0,1,1903.63,720.91Z" transform="translate(-91.01 -84.03)"/><path class="cls-15" d="M1865,694.75c-.64-.2-15.52-4.71-16.22-13.09-.21-2.48.21-4.12,1.28-5,1.63-1.42,4.41-.76,6.87-.16.36.08.72.18,1.06.24l-.08.35-1.06-.25c-2.38-.55-5.06-1.19-6.57.07-1,.84-1.35,2.4-1.16,4.75.68,8.15,15.82,12.73,16,12.79Z" transform="translate(-91.01 -84.03)"/><path class="cls-15" d="M1894.37,678c-11.71,0-17.45-6.92-17.51-7l.27-.22c.08.1,7.23,8.72,21.95,6.52l.05.34A31,31,0,0,1,1894.37,678Z" transform="translate(-91.01 -84.03)"/><path class="cls-3" d="M1875.84,730.07a.64.64,0,0,1-.3-.08c-5.52-2.84-12.48-.38-12.54-.35a.62.62,0,0,1-.83-.39.66.66,0,0,1,.38-.83c.3-.12,7.55-2.73,13.59.42a.65.65,0,0,1,.28.87A.68.68,0,0,1,1875.84,730.07Z" transform="translate(-91.01 -84.03)"/><path class="cls-3" d="M489.25,849.36s-1.07,19.42-11.1,16.79c-11.15-2.93-33.18-1.7-23.29,7.8,5.67,5.45,22.66,9.18,30.3,11.63,11.27,3.61,22.4,7.75,28.64,3.06,6.87-5.15,1.87-37.42,1.87-37.42s-7.09,2.94-13.26,2.36C493.51,852.73,489.25,849.36,489.25,849.36Z" transform="translate(-91.01 -84.03)"/><path class="cls-17" d="M600.92,570.81s-142.2,36.64-162.33,93.48C418.89,719.88,472,840.78,480.41,853s43.24,14.79,48.22-8.63c7.3-34.31-11.15-131.52,6.84-152,18.75-21.37,149.89-40.8,148.25-37.12C683.72,655.26,631.85,565.68,600.92,570.81Z" transform="translate(-91.01 -84.03)"/><path class="cls-3" d="M697.68,952.1s-4.83,12.7,2.59,20.23,31.82,22.32,18.89,26.06c-7.42,2.15-32.17-12.55-39.51-15.85s-15.49-3.35-19-10.51c-3.87-7.87,12.72-30.89,12.72-30.89s5,6,10.78,8.43C692.43,953.06,697.68,952.1,697.68,952.1Z" transform="translate(-91.01 -84.03)"/><path class="cls-17" d="M604.85,600.3C631.47,846,653.67,933,660.05,954.4c4.13,13.81,51.51,17.35,53.82-8.37,3.34-37.07,1.16-307.48-7.31-357.37C702.77,566.33,601.05,565.21,604.85,600.3Z" transform="translate(-91.01 -84.03)"/><path class="cls-5" d="M609.52,399.39c75.84,4.6,110,76.66,144.55,102.59C789.42,528.52,833,559.67,833,559.67s1,27.23-19.81,34.78c0,0-56.66-12.18-99.9-43-43.74-31.17-77-68.56-70-66.78C643.27,484.68,592,398.33,609.52,399.39Z" transform="translate(-91.01 -84.03)"/><path class="cls-5" d="M510.53,463.27s-1.21-36.86,60.2-55.89c47.3-14.65,86.89,6.31,101.49,48.6,20.18,58.48,29.6,109.58,29.28,141.37,0,0-74.91,49-168.57-3.48,0,0,14.65-31.19-9.54-110.21C521,475.7,510,470,510.53,463.27Z" transform="translate(-91.01 -84.03)"/><path class="cls-2" d="M579.05,396.46l6.84-15.67,2-4.57,11.71-26.83-2.27,28L596,394.14l-.43,5.32c-.29,3.6,1.72,4.64,3.9,8.11.88,1.4,6.59,10-1.36,12.4-9.9,3-26.63-5.88-32.26-15.33C565.85,404.63,576.84,401.53,579.05,396.46Z" transform="translate(-91.01 -84.03)"/><path class="cls-17" d="M585.06,409.68s10.63-7.3,14.55-5.33,5.33,16,.29,18.81S580.64,414.51,585.06,409.68Z" transform="translate(-91.01 -84.03)"/><path class="cls-10" d="M603.13,507.94a3.13,3.13,0,0,1-1.12,4.14,2.83,2.83,0,0,1-4-1.13c-.78-1.46-.7-3.31.7-4.14A2.92,2.92,0,0,1,603.13,507.94Z" transform="translate(-91.01 -84.03)"/><path class="cls-10" d="M605.67,550.39a3.11,3.11,0,0,1-1.11,4.14,2.83,2.83,0,0,1-4-1.13c-.78-1.46-.71-3.31.7-4.14A2.9,2.9,0,0,1,605.67,550.39Z" transform="translate(-91.01 -84.03)"/><path class="cls-10" d="M609,589.28a3.09,3.09,0,0,1-1.75,3.9,2.87,2.87,0,0,1-3.72-1.81c-.55-1.58-.18-3.39,1.34-4A2.94,2.94,0,0,1,609,589.28Z" transform="translate(-91.01 -84.03)"/><path class="cls-17" d="M591.17,424.51c-2.25,16.79-16.39,82.73-101.29,122.16a36.86,36.86,0,0,0-13.94,11.26L461.3,577.4a6.67,6.67,0,0,0,2.82,10.2l23.82,8.9a33,33,0,0,0,25.11-.73c27.57-12.32,96.78-70.91,90.19-177.22-.28-4.54-3.65-.77-7.8.66h0A6.47,6.47,0,0,0,591.17,424.51Z" transform="translate(-91.01 -84.03)"/><path class="cls-3" d="M596.79,423.1a12.34,12.34,0,0,1-4.78-1.56.32.32,0,0,1-.11-.42.29.29,0,0,1,.4-.11s3.8,2.27,7,1.24,3.64-7.44,3.65-7.5a.29.29,0,0,1,.31-.28h0a.3.3,0,0,1,.27.32c0,.28-.55,6.9-4.06,8A7,7,0,0,1,596.79,423.1Z" transform="translate(-91.01 -84.03)"/><path class="cls-19" d="M695.28,541.08a.65.65,0,0,1-.64-.57,197,197,0,0,0-18.39-57.06.65.65,0,0,1,1.16-.59,198.45,198.45,0,0,1,18.52,57.49.65.65,0,0,1-.57.72Z" transform="translate(-91.01 -84.03)"/><path class="cls-20" d="M596.05,403.05s-12.27-5.64-15-11.09-17.2,8.74-17.36,12.47c-.46,10.67,24.24,22.82,26.07,20.25S599.57,406.66,596.05,403.05Z" transform="translate(-91.01 -84.03)"/><path class="cls-20" d="M594.72,403.91a44.65,44.65,0,0,0,1-7.26l.37-4.6c2.25-.05,15.38,7.82,16.71,10.39s2.75,15.14-1.08,16.48-14.6-11.16-15.84-12.38A3.81,3.81,0,0,1,594.72,403.91Z" transform="translate(-91.01 -84.03)"/><path class="cls-21" d="M626.84,347.86a38.12,38.12,0,0,1-3.74,14.87c-3.73,7.81-6.7-14.78-6.7-14.78Z" transform="translate(-91.01 -84.03)"/><ellipse class="cls-2" cx="599.6" cy="362.1" rx="30.21" ry="24.08" transform="translate(93.2 842.06) rotate(-84.76)"/><path class="cls-3" d="M577.26,350.28l11.57,1.93a8.2,8.2,0,0,0,7-2.14c3.26-3.11,6.52-4.27,16.92-.92,13.18,4.23,24-1.57,27.3-8.41,3.33-7-2.22-13.91-9.79-12.25s-2.53-6.19-8.72-8.9c-11.58-5.07-16.25,3.94-26,.88-12.79-4-38.45-.27-33.44,26.42Z" transform="translate(-91.01 -84.03)"/><path class="cls-13" d="M602.91,363.15a.45.45,0,0,0,.43-.08.52.52,0,0,0,.09-.71,5.18,5.18,0,0,0-6.1-2.2.52.52,0,0,0-.34.63.53.53,0,0,0,.59.36,8.14,8.14,0,0,1,5.08,1.82A.45.45,0,0,0,602.91,363.15Z" transform="translate(-91.01 -84.03)"/><path class="cls-13" d="M597.5,366.94c0,1.22.71,2.2,1.55,2.19s1.52-1,1.51-2.2-.7-2.19-1.55-2.19S597.49,365.73,597.5,366.94Z" transform="translate(-91.01 -84.03)"/><path class="cls-13" d="M618.18,364.39a.34.34,0,0,0,.26-.26.64.64,0,0,0-.21-.68,3.34,3.34,0,0,0-5,.74.63.63,0,0,0,0,.71.35.35,0,0,0,.54.06,5,5,0,0,1,4.12-.62A.31.31,0,0,0,618.18,364.39Z" transform="translate(-91.01 -84.03)"/><path class="cls-13" d="M613.38,368.46c-.43,1.13-.14,2.31.64,2.64s1.77-.31,2.2-1.44.15-2.3-.63-2.63S613.82,367.34,613.38,368.46Z" transform="translate(-91.01 -84.03)"/><path class="cls-21" d="M562.14,346.89s3.39,19.64,14.1,24c0,0-5.58-15.81,15.26-18.68C591.5,352.22,575,344.58,562.14,346.89Z" transform="translate(-91.01 -84.03)"/><path class="cls-2" d="M575.27,360.88c2,2.22,5.09,2.54,7,.72s1.83-5.09-.14-7.32-5.09-2.54-7-.72S573.3,358.65,575.27,360.88Z" transform="translate(-91.01 -84.03)"/><path class="cls-21" d="M591.5,352.22s-5.19,14.25-3,17.82,20.8,10.06,30.53,9h0c-2.22,9.46-10.69,16-20,15.06a26.89,26.89,0,0,1-9-2.56h0c-5.9-2.85-11.25-7.19-12.3-13.88-.31-2,4.75-12.58,4.75-12.58s2.5-6.33-.31-10.77C582.12,354.28,587.35,351.51,591.5,352.22Z" transform="translate(-91.01 -84.03)"/><path class="cls-3" d="M628.58,326.74a3.83,3.83,0,0,1-2.43-4l.65.11a3.14,3.14,0,0,0,2.7,3.5l-.15.67A5,5,0,0,1,628.58,326.74Z" transform="translate(-91.01 -84.03)"/><path class="cls-15" d="M617.54,346.32V346c.16,0,15.41-.42,17.9-7.84.71-2.1.72-3.61.05-4.64-1.08-1.66-3.8-1.76-6.19-1.84l-1.08,0,0-.34,1.07,0c2.47.09,5.28.18,6.45,2,.74,1.13.73,2.75,0,4.95-1.06,3.17-4.56,5.58-10.1,6.94A42.15,42.15,0,0,1,617.54,346.32Z" transform="translate(-91.01 -84.03)"/><path class="cls-15" d="M590.24,322l-.88-.37.13-.31c13.34,5.83,22-.42,22.1-.49l.19.28C611.69,321.2,603.24,327.26,590.24,322Z" transform="translate(-91.01 -84.03)"/><path class="cls-2" d="M602.42,383.61a14,14,0,0,1-5.18-3.55.59.59,0,0,1,0-.81.52.52,0,0,1,.77.05,13.58,13.58,0,0,0,11.78,4,.57.57,0,0,1,.63.49.57.57,0,0,1-.46.65A14.1,14.1,0,0,1,602.42,383.61Z" transform="translate(-91.01 -84.03)"/><path class="cls-3" d="M606.18,668.27a1.3,1.3,0,0,1-1.29-1.13c-1.5-12.45-10.35-22.74-10.44-22.85a1.29,1.29,0,1,1,1.95-1.7c.39.44,9.47,11,11.06,24.23a1.3,1.3,0,0,1-1.13,1.45Z" transform="translate(-91.01 -84.03)"/><path class="cls-22" d="M224,659.64c68.75,23,142,18.88,204.69-19.8,53.73-33.15,85-82.4,154.36-86.71,51.7-3.22,105,6.92,155.09,18.28,191.43,43.38,361.85,147,549.16,203.39,184.76,55.59,374.75,92.32,562.44,136.36,188.94,44.33,367.48,119.33,555.18,166.32,3.5.88,5-4.53,1.49-5.4-184.06-46.09-359.1-120-544.27-163.77-191.26-45.17-385-82.24-573.35-138.91C1105.21,714.16,938,613.81,751.09,568.78,682.88,552.35,592.2,530,525,560.55c-37.91,17.23-64.17,52.82-99.14,74.45-61.42,38-132.8,41.88-200.38,19.24-3.43-1.15-4.9,4.26-1.49,5.4Z" transform="translate(-91.01 -84.03)"/><path class="cls-23" d="M1660,889.93s10.09,7.11,15.48-2c6.86-11.65,4.12-34-.33-26.71-4,6.48-7.33,17.28-7.33,17.28s8.2-27.62,2-27.94-13,23.57-13,23.57,5.48-27.9-.34-26.21-12.07,23.33-12.07,23.33,6.79-26.84.09-24.7-7.46,17-9.17,23.1c-1.61,5.77,1.53,9,7.12,10.75,0,0,4.89,5,8.73,5.18,1.47.07,2.44,1.88,3.4,2.38A39.2,39.2,0,0,0,1660,889.93Z" transform="translate(-91.01 -84.03)"/><path class="cls-23" d="M2085.68,990.14s10.08,7.12,15.47-2c6.87-11.65,4.13-34-.33-26.72-3.94,6.49-7.32,17.29-7.32,17.29s8.2-27.63,2-27.94-13,23.56-13,23.56,5.48-27.9-.34-26.2-12.07,23.33-12.07,23.33,6.79-26.85.08-24.71-7.45,17-9.16,23.11c-1.61,5.76,1.53,9,7.11,10.75,0,0,4.89,5,8.74,5.18,1.47.06,2.44,1.88,3.4,2.38A38.66,38.66,0,0,0,2085.68,990.14Z" transform="translate(-91.01 -84.03)"/><path class="cls-2" d="M1976,920c-5.91-3-18.85-6-24.82-8.9-2.58-1.23-11.55-4.75-13.1-2.23-1.34,2.19,4.47,8.52,7.59,11.18-23,4.08-51.27,18.64-4.84,12.84,0,0,0,0,0,.07-4,.82-33.12,5.83-30.25,12.38,2.1,4.79,26-.1,32.49-1.39a1.33,1.33,0,0,0,0,.19c-6.51,1.9-26.46,6.51-24.67,11.2,2.37,6.17,27.9-.66,27.9-.66s-21.32,5.1-16.24,10.66c2.86,3.14,15.38-.32,23.14-2.59h0c1.63-.47,3.06-.9,4.13-1.2a10.67,10.67,0,0,0,2.33-.94,96.11,96.11,0,0,0,20.24-9.86s9.81-4.48,7.63-16.51C1986.14,926.6,1978.51,921.32,1976,920Z" transform="translate(-91.01 -84.03)"/><path class="cls-17" d="M1970.83,917.94c2.47-7.24,64.53-26.18,64.53-33.44,0-6.25-51.27-23.15-51.27-23.15l-18-92.42s49.82,7.48,99.18,44.25c42.71,31.81,51,59.06,39.66,85.73-13.94,32.72-98.82,66.08-114,59.55C1968,948.61,1968.37,925.18,1970.83,917.94Z" transform="translate(-91.01 -84.03)"/><path class="cls-10" d="M1894.05,776.35c7.62,15.12,40.9,86.44,134,95.91a36.83,36.83,0,0,1,16.85,6.08L2065.14,892a6.65,6.65,0,0,1,.67,10.55l-19.59,16.21a33,33,0,0,1-24,7.53c-30.08-2.62-122.51-44.36-143.43-147.85-.9-4.46,2.61-2.77,7-2.79l3.84-.28C1892.07,775.32,1892.92,774.13,1894.05,776.35Z" transform="translate(-91.01 -84.03)"/><path class="cls-10" d="M1893.72,767.58s-12-2.71-14.92.52.43,16.51,5.93,17.21S1899.31,770.34,1893.72,767.58Z" transform="translate(-91.01 -84.03)"/><path class="cls-24" d="M1886.58,765s14.89-7.08,17.44-13,19.42,5.67,19.44,9.6-26.88,28.26-29,25.69S1883.12,769.09,1886.58,765Z" transform="translate(-91.01 -84.03)"/><path class="cls-24" d="M1886.58,765s-2.74-5.74-1.88-9.07c0,0,.51-2.9-1.81-2.49s-14.31,10.86-15.21,13.8-.08,16.23,4.1,16.82,13-14.58,14-16.1A4.06,4.06,0,0,0,1886.58,765Z" transform="translate(-91.01 -84.03)"/><path class="cls-3" d="M1885.63,785.6c-3.29,0-6.49-5.88-6.63-6.14l.51-.27s3.58,6.51,6.6,5.78a6.34,6.34,0,0,0,4.23-3.08l.52.24a6.8,6.8,0,0,1-4.62,3.4A2.16,2.16,0,0,1,1885.63,785.6Z" transform="translate(-91.01 -84.03)"/><path class="cls-3" d="M2426.54,1038.43a.52.52,0,0,1-.24,0l-22.74-10.76a.56.56,0,0,1-.26-.75.57.57,0,0,1,.74-.26l22.74,10.76a.57.57,0,0,1,.27.75A.54.54,0,0,1,2426.54,1038.43Z" transform="translate(-91.01 -84.03)"/><path class="cls-23" d="M1213,756.9s10.09,7.12,15.48-2c6.86-11.65,4.12-34-.33-26.71-4,6.48-7.33,17.28-7.33,17.28s8.2-27.62,2-27.94-13,23.57-13,23.57,5.48-27.9-.34-26.21-12.07,23.33-12.07,23.33,6.79-26.84.09-24.7-7.46,17-9.16,23.1c-1.62,5.77,1.52,9,7.11,10.75,0,0,4.89,5,8.73,5.18,1.47.07,2.45,1.88,3.4,2.38A39.2,39.2,0,0,0,1213,756.9Z" transform="translate(-91.01 -84.03)"/><path class="cls-2" d="M1535.37,843.34s-19.67-20.32-29.79-21.9-24.28,4.41-18.21,6.79,14.64,3.18,14.64,3.18-18.4-.8-16.75,3.79,17.66,5.12,17.66,5.12-22,.88-19.08,4.67,19.59,3,19.59,3-20.42,1.68-17,6,16.87-1.5,18.52,3.09,12.16,10.62,25,8.41Z" transform="translate(-91.01 -84.03)"/><path class="cls-4" d="M1531.1,839.91c1.11-6.79,43.58-15.91,42.06-21.24-2.75-9.71-59.8-32.24-59.8-32.24l-24.75-69.85s48.29,4.31,89.51,32.34c49.31,33.53,59,69.75,46.83,97.21-12.88,29.15-73.47,38.36-87.86,35C1515.4,876.18,1530,846.7,1531.1,839.91Z" transform="translate(-91.01 -84.03)"/><path class="cls-3" d="M1552.41,881.13c-6.8,0-15.55-.44-20.14-2.45-8.24-3.63-7.55-12.69-7.54-12.79a.56.56,0,0,1,.56-.5h0a.56.56,0,0,1,.52.61c0,.33-.62,8.35,6.87,11.64,7.75,3.41,28.81,2.1,29,2.1h0a.57.57,0,0,1,.56.52.55.55,0,0,1-.53.6C1561.44,880.89,1557.47,881.13,1552.41,881.13Z" transform="translate(-91.01 -84.03)"/><path class="cls-3" d="M1531.1,840.47a.56.56,0,0,1-.18-1.09,6,6,0,0,0,1.19-1.23c2.35-2.81,7.85-9.38,23.63-10.92a.62.62,0,0,1,.61.5.55.55,0,0,1-.51.61c-15.31,1.49-20.42,7.59-22.88,10.53-.72.87-1.16,1.4-1.68,1.57Z" transform="translate(-91.01 -84.03)"/><path class="cls-3" d="M1553.84,805.19a.46.46,0,0,1-.23-.05l-22.75-10.77a.54.54,0,0,1-.26-.74.56.56,0,0,1,.74-.27l22.74,10.77a.56.56,0,0,1-.24,1.06Z" transform="translate(-91.01 -84.03)"/><path class="cls-25" d="M2059.23,1747.73c-65-.31-136.38-2.41-217.45-6-37.2-1.63-76.46-3.56-118.1-5.78q-25.7-1.37-52.65-2.88h0l-328.87-114.63c-9-33.89-14.14-71.6-16.76-110-2.2-19.73-2.21-51.12-2.21-51.12s0,.22.15.65a282.57,282.57,0,0,0,19.85,56c16.8,35,45.56,74.63,91.29,81.86,84.91,13.45,203.61-7.35,320.15,64.37C1842,1713.91,1957.05,1719.82,2059.23,1747.73Z" transform="translate(-91.01 -84.03)"/><path class="cls-2" d="M1498.16,718c-6.71,9.38-14.73,12.82-25.43,13.62-16.2,1.2-9.82-16.7-9.82-16.7,4-.39,6-2.65,6.06-6.79l0-5.1,0-2.52.1-8.07.08-7.25.34-29.73,9.5,29.54,1.62,5,5.57,17.31A15.69,15.69,0,0,0,1498.07,718Z" transform="translate(-91.01 -84.03)"/><path class="cls-3" d="M1480.69,690s-4.19,9.08-11.64,10.49l.1-8.07C1473.77,691.09,1480.69,690,1480.69,690Z" transform="translate(-91.01 -84.03)"/><path class="cls-3" d="M1506.15,659.37s-2.26,4.42-2.08,14.78c.27,15.15-16.74,16.8-19.7,11.69-.36-.63,6.32-24.46,6.32-24.46l5.73-1.71Z" transform="translate(-91.01 -84.03)"/><ellipse class="cls-2" cx="1471.36" cy="659.82" rx="34.29" ry="26.87" transform="translate(423.52 1873.77) rotate(-77.76)"/><path class="cls-3" d="M1467.5,631.49c.46,1.22-7.91,17.21,21.55,29.62s20.81-31-1.47-38.05c-32.17-10.12-42.6,11.28-41.53,20.31S1467.5,631.49,1467.5,631.49Z" transform="translate(-91.01 -84.03)"/><path class="cls-3" d="M1487.06,654.75s9,17,1.2,29.83c0,0,9.29-6.24,10.22-9.26s1.78-14.6,1.78-14.6Z" transform="translate(-91.01 -84.03)"/><path class="cls-2" d="M1492.56,671c-3.67,2.11-7.85,1.29-9.34-1.84s.28-7.38,4-9.49,7.85-1.29,9.34,1.84S1496.23,668.85,1492.56,671Z" transform="translate(-91.01 -84.03)"/><path class="cls-13" d="M1468.77,659.45a.6.6,0,0,1-.3-.47.62.62,0,0,1,.53-.7c.19,0,4.69-1.07,7.19,3.85a.66.66,0,0,1-.24.86.65.65,0,0,1-.83-.25,10.32,10.32,0,0,0-6-3.21A.55.55,0,0,1,1468.77,659.45Z" transform="translate(-91.01 -84.03)"/><path class="cls-13" d="M1471.74,667.46c-.32,1.48-1.41,2.48-2.44,2.23s-1.61-1.64-1.28-3.11,1.42-2.47,2.44-2.23S1472.07,666,1471.74,667.46Z" transform="translate(-91.01 -84.03)"/><path class="cls-13" d="M1446.91,656.9a.63.63,0,0,1-.45-.32.65.65,0,0,1,.23-.86,6.42,6.42,0,0,1,8.06.72.65.65,0,0,1,.09.89.66.66,0,0,1-.86.1,10.11,10.11,0,0,0-6.69-.61A.57.57,0,0,1,1446.91,656.9Z" transform="translate(-91.01 -84.03)"/><path class="cls-13" d="M1452.6,663.13c.24,1.5-.41,2.85-1.45,3s-2.08-.88-2.32-2.37.4-2.85,1.44-3S1452.36,661.64,1452.6,663.13Z" transform="translate(-91.01 -84.03)"/><g class="cls-14"><path class="cls-15" d="M1483.7,662c.39,8.53-4,16.8-9.79,18.46s-10.81-3.92-11.2-12.45,4-16.8,9.8-18.46S1483.32,653.48,1483.7,662Z" transform="translate(-91.01 -84.03)"/></g><g class="cls-14"><path class="cls-15" d="M1456.6,659.85c-.53,8.37-5.17,16.2-10.37,17.48s-9-4.47-8.47-12.84,5.16-16.19,10.37-17.47S1457.12,651.49,1456.6,659.85Z" transform="translate(-91.01 -84.03)"/></g><path class="cls-12" d="M1484.42,660.83c0-.66-.08-1.29-.17-1.92v0c-.6-4.43-2.43-8.06-5.18-10.15a8,8,0,0,0-7.25-1.42,10.75,10.75,0,0,0-1.55.59c-4,1.92-7.29,6.75-8.59,12.45h0a15.78,15.78,0,0,0-.36,1.94h0a22.92,22.92,0,0,0-.25,4.77,22.51,22.51,0,0,0,.68,4.39,13.63,13.63,0,0,0,4.68,7.7,8.86,8.86,0,0,0,2.86,1.44,6.83,6.83,0,0,0,.92.2,7.92,7.92,0,0,0,3.47-.22,10.07,10.07,0,0,0,3.43-1.72.18.18,0,0,1,.07,0,18.75,18.75,0,0,0,6.16-9.48h0c.13-.42.26-.83.36-1.26a26.64,26.64,0,0,0,.53-2.69,27,27,0,0,0,.22-3.38h0C1484.45,661.61,1484.44,661.23,1484.42,660.83Zm-19.76,14.91a15.65,15.65,0,0,1-1.94-4.53,20,20,0,0,1-.63-4.18,22.87,22.87,0,0,1,.18-4.31v0a18.46,18.46,0,0,1,.36-2h0c1.23-5.56,4.35-10.23,8.28-12h0a7,7,0,0,1,1.16-.42,7.12,7.12,0,0,1,3.06-.2,7.5,7.5,0,0,1,3.34,1.45,11.43,11.43,0,0,1,3.44,4.61,17.31,17.31,0,0,1,.84,2.49.24.24,0,0,0,0,.08.13.13,0,0,0,0,.06s0,0,0,0v0a11.1,11.1,0,0,1,.3,1.39h0a21.2,21.2,0,0,1,.29,2.58,22.7,22.7,0,0,1,0,2.86v0c0,.64-.12,1.27-.21,1.89s-.23,1.33-.39,2v0a18.53,18.53,0,0,1-5.77,10,1.81,1.81,0,0,1-.23.18,9.59,9.59,0,0,1-3.36,1.75,7.19,7.19,0,0,1-3.93,0l-.18-.05a7.4,7.4,0,0,1-2.28-1.21,10.2,10.2,0,0,1-2.32-2.55l0,0Z" transform="translate(-91.01 -84.03)"/><path class="cls-12" d="M1456.24,662.05l-.24.08a25.87,25.87,0,0,1-1.61,6.7v0h0a.65.65,0,0,0,0-.13c.09-.18.17-.37.25-.56h0a.38.38,0,0,1,0-.1c.06-.13.11-.27.17-.41s.1-.29.14-.43.15-.37.22-.56a.19.19,0,0,1,0-.07l.21-.64c.07-.22.13-.45.19-.68s.11-.43.17-.64c.11-.41.2-.84.29-1.28s.16-.87.23-1.32Zm0,0-.24.08a25.87,25.87,0,0,1-1.61,6.7v0h0a.65.65,0,0,0,0-.13c.09-.18.17-.37.25-.56h0a.38.38,0,0,1,0-.1c.06-.13.11-.27.17-.41s.1-.29.14-.43.15-.37.22-.56a.19.19,0,0,1,0-.07l.21-.64c.07-.22.13-.45.19-.68s.11-.43.17-.64c.11-.41.2-.84.29-1.28s.16-.87.23-1.32Zm0,0-.24.08a25.87,25.87,0,0,1-1.61,6.7v0h0a.65.65,0,0,0,0-.13c.09-.18.17-.37.25-.56h0a.38.38,0,0,1,0-.1c.06-.13.11-.27.17-.41s.1-.29.14-.43.15-.37.22-.56a.19.19,0,0,1,0-.07l.21-.64c.07-.22.13-.45.19-.68s.11-.43.17-.64c.11-.41.2-.84.29-1.28s.16-.87.23-1.32Zm0,0-.24.08a25.87,25.87,0,0,1-1.61,6.7v0h0a.65.65,0,0,0,0-.13c.09-.18.17-.37.25-.56h0a.38.38,0,0,1,0-.1c.06-.13.11-.27.17-.41s.1-.29.14-.43.15-.37.22-.56a.19.19,0,0,1,0-.07l.21-.64c.07-.22.13-.45.19-.68s.11-.43.17-.64c.11-.41.2-.84.29-1.28s.16-.87.23-1.32Zm0,0-.24.08a25.87,25.87,0,0,1-1.61,6.7v0h0a.65.65,0,0,0,0-.13c.09-.18.17-.37.25-.56h0a.38.38,0,0,1,0-.1c.06-.13.11-.27.17-.41s.1-.29.14-.43.15-.37.22-.56a.19.19,0,0,1,0-.07l.21-.64c.07-.22.13-.45.19-.68s.11-.43.17-.64c.11-.41.2-.84.29-1.28s.16-.87.23-1.32Zm0,0-.24.08a25.87,25.87,0,0,1-1.61,6.7v0h0a.65.65,0,0,0,0-.13c.09-.18.17-.37.25-.56h0a.38.38,0,0,1,0-.1c.06-.13.11-.27.17-.41s.1-.29.14-.43.15-.37.22-.56a.19.19,0,0,1,0-.07l.21-.64c.07-.22.13-.45.19-.68s.11-.43.17-.64c.11-.41.2-.84.29-1.28s.16-.87.23-1.32Zm0,0-.24.08a25.87,25.87,0,0,1-1.61,6.7v0h0a.65.65,0,0,0,0-.13c.09-.18.17-.37.25-.56h0a.38.38,0,0,1,0-.1c.06-.13.11-.27.17-.41s.1-.29.14-.43.15-.37.22-.56a.19.19,0,0,1,0-.07l.21-.64c.07-.22.13-.45.19-.68s.11-.43.17-.64c.11-.41.2-.84.29-1.28s.16-.87.23-1.32Zm0,0-.24.08a25.87,25.87,0,0,1-1.61,6.7v0h0a.65.65,0,0,0,0-.13c.09-.18.17-.37.25-.56h0a.38.38,0,0,1,0-.1c.06-.13.11-.27.17-.41s.1-.29.14-.43.15-.37.22-.56a.19.19,0,0,1,0-.07l.21-.64c.07-.22.13-.45.19-.68s.11-.43.17-.64c.11-.41.2-.84.29-1.28s.16-.87.23-1.32Zm-4-15.67a7.4,7.4,0,0,0-2.18-1.15h0a6.32,6.32,0,0,0-1.89-.29,6.73,6.73,0,0,0-1.39.19h0c-.12,0-.25.06-.36.08-5.55,1.6-9.91,10.21-9.71,19.2.14,5.51,2,10.16,4.88,12.43a6.76,6.76,0,0,0,2.37,1.21,6.25,6.25,0,0,0,3,.05h0l.38-.1a10.56,10.56,0,0,0,5.41-4.18h0a22.76,22.76,0,0,0,3.47-7.73,26.17,26.17,0,0,0,.7-4.22q.11-1,.12-2h0c0-.36,0-.71,0-1.07C1457,653.29,1455.19,648.64,1452.28,646.38Zm2.11,22.49h0c0,.09-.08.19-.11.28a17.85,17.85,0,0,1-3.11,5.13,9.07,9.07,0,0,1-3.38,2.46s0,0,0,0h0l-.13.05a2.51,2.51,0,0,1-.46.16,3.13,3.13,0,0,1-.53.12h0a5.26,5.26,0,0,1-4.4-1.12c-2.63-2.05-4.3-6.27-4.46-11.37v-.05s0,0,0,0v0a.37.37,0,0,0,0-.11c-.18-8.54,3.85-16.68,9-18.16a4.85,4.85,0,0,1,1-.19,5,5,0,0,1,1.93.15,5.66,5.66,0,0,1,2,1l.15.13a10.75,10.75,0,0,1,3,4.51,20.81,20.81,0,0,1,1.28,7v1.22c0,.69-.07,1.39-.13,2.08a25.87,25.87,0,0,1-1.61,6.7Zm1.85-6.82-.24.08a25.87,25.87,0,0,1-1.61,6.7v0h0a.65.65,0,0,0,0-.13c.09-.18.17-.37.25-.56h0a.38.38,0,0,1,0-.1c.06-.13.11-.27.17-.41s.1-.29.14-.43.15-.37.22-.56a.19.19,0,0,1,0-.07l.21-.64c.07-.22.13-.45.19-.68s.11-.43.17-.64c.11-.41.2-.84.29-1.28s.16-.87.23-1.32Zm0,0-.24.08a25.87,25.87,0,0,1-1.61,6.7v0h0a.65.65,0,0,0,0-.13c.09-.18.17-.37.25-.56h0a.38.38,0,0,1,0-.1c.06-.13.11-.27.17-.41s.1-.29.14-.43.15-.37.22-.56a.19.19,0,0,1,0-.07l.21-.64c.07-.22.13-.45.19-.68s.11-.43.17-.64c.11-.41.2-.84.29-1.28s.16-.87.23-1.32Zm0,0-.24.08a25.87,25.87,0,0,1-1.61,6.7v0h0a.65.65,0,0,0,0-.13c.09-.18.17-.37.25-.56h0a.38.38,0,0,1,0-.1c.06-.13.11-.27.17-.41s.1-.29.14-.43.15-.37.22-.56a.19.19,0,0,1,0-.07l.21-.64c.07-.22.13-.45.19-.68s.11-.43.17-.64c.11-.41.2-.84.29-1.28s.16-.87.23-1.32Zm0,0-.24.08a25.87,25.87,0,0,1-1.61,6.7v0h0a.65.65,0,0,0,0-.13c.09-.18.17-.37.25-.56h0a.38.38,0,0,1,0-.1c.06-.13.11-.27.17-.41s.1-.29.14-.43.15-.37.22-.56a.19.19,0,0,1,0-.07l.21-.64c.07-.22.13-.45.19-.68s.11-.43.17-.64c.11-.41.2-.84.29-1.28s.16-.87.23-1.32Zm0,0-.24.08a25.87,25.87,0,0,1-1.61,6.7v0h0a.65.65,0,0,0,0-.13c.09-.18.17-.37.25-.56h0a.38.38,0,0,1,0-.1c.06-.13.11-.27.17-.41s.1-.29.14-.43.15-.37.22-.56a.19.19,0,0,1,0-.07l.21-.64c.07-.22.13-.45.19-.68s.11-.43.17-.64c.11-.41.2-.84.29-1.28s.16-.87.23-1.32Zm0,0-.24.08a25.87,25.87,0,0,1-1.61,6.7v0h0a.65.65,0,0,0,0-.13c.09-.18.17-.37.25-.56h0a.38.38,0,0,1,0-.1c.06-.13.11-.27.17-.41s.1-.29.14-.43.15-.37.22-.56a.19.19,0,0,1,0-.07l.21-.64c.07-.22.13-.45.19-.68s.11-.43.17-.64c.11-.41.2-.84.29-1.28s.16-.87.23-1.32Zm0,0-.24.08a25.87,25.87,0,0,1-1.61,6.7v0h0a.65.65,0,0,0,0-.13c.09-.18.17-.37.25-.56h0a.38.38,0,0,1,0-.1c.06-.13.11-.27.17-.41s.1-.29.14-.43.15-.37.22-.56a.19.19,0,0,1,0-.07l.21-.64c.07-.22.13-.45.19-.68s.11-.43.17-.64c.11-.41.2-.84.29-1.28s.16-.87.23-1.32Z" transform="translate(-91.01 -84.03)"/><path class="cls-3" d="M1455.31,662.21a1,1,0,0,1-.63-.56,1,1,0,0,1,.49-1.29,10,10,0,0,1,8.47.86,1,1,0,0,1,.4,1.33.94.94,0,0,1-1.28.42,8.19,8.19,0,0,0-6.84-.81A.92.92,0,0,1,1455.31,662.21Z" transform="translate(-91.01 -84.03)"/><path class="cls-3" d="M1495.09,700.86a.59.59,0,0,0,.34-.06.64.64,0,0,0,.24-.83,27.12,27.12,0,0,0-10.27-10.33.59.59,0,0,0-.8.25.63.63,0,0,0,.25.83,26.21,26.21,0,0,1,9.78,9.82A.58.58,0,0,0,1495.09,700.86Z" transform="translate(-91.01 -84.03)"/><path class="cls-16" d="M1452.71,681.86a.3.3,0,0,1-.23-.48c4.55-5.72,10.61-2.17,10.67-2.16a.3.3,0,0,1,.11.4.31.31,0,0,1-.4.11,7.51,7.51,0,0,0-9.93,2A.28.28,0,0,1,1452.71,681.86Z" transform="translate(-91.01 -84.03)"/><path class="cls-22" d="M2458.75,1098.15c59.27,11.4,42.85,67,69.46,104.36,6.44,9,14.61,15.24,23,22.45,23.49,20.21,38.4,39.45,43.79,70.69.61,3.54,6,2,5.4-1.49-3-17.38-7.52-32.07-17.86-46.66-21.08-29.75-53.08-40.77-63-79.73-9.78-38.43-15.73-66.65-59.29-75-3.53-.68-5,4.72-1.49,5.4Z" transform="translate(-91.01 -84.03)"/><path class="cls-2" d="M2408.07,1075.33s-19.67-20.32-29.8-21.9-24.27,4.41-18.21,6.79,14.64,3.18,14.64,3.18-18.4-.8-16.75,3.79,17.66,5.12,17.66,5.12-22,.88-19.08,4.67,19.6,3,19.6,3-20.43,1.68-17,6,16.87-1.5,18.52,3.09,12.15,10.62,25,8.41Z" transform="translate(-91.01 -84.03)"/><path class="cls-12" d="M2403.8,1071.9c1.11-6.79,43.58-15.91,42.06-21.24-2.76-9.71-59.8-32.24-59.8-32.24L2383.31,955s26.28-2.16,67.51,25.87c49.31,33.53,59,69.75,46.82,97.21-12.88,29.15-73.46,38.36-87.85,35.05C2388.1,1108.17,2402.69,1078.69,2403.8,1071.9Z" transform="translate(-91.01 -84.03)"/><path class="cls-3" d="M2425.13,1113.12c-6.79,0-15.56-.44-20.16-2.46-8.24-3.61-7.55-12.68-7.54-12.77a.56.56,0,0,1,.56-.51h0a.56.56,0,0,1,.51.62c0,.33-.61,8.34,6.88,11.63,7.76,3.43,28.81,2.11,29,2.11h0a.57.57,0,0,1,.56.52.55.55,0,0,1-.52.6C2434.13,1112.88,2430.18,1113.12,2425.13,1113.12Z" transform="translate(-91.01 -84.03)"/><path class="cls-3" d="M2403.8,1072.46a.56.56,0,0,1-.18-1.09,6.22,6.22,0,0,0,1.18-1.22c2.34-2.82,7.85-9.38,23.64-10.94a.58.58,0,0,1,.61.51.56.56,0,0,1-.51.61c-15.33,1.5-20.43,7.6-22.88,10.54-.73.86-1.16,1.38-1.67,1.57Z" transform="translate(-91.01 -84.03)"/><path class="cls-23" d="M863.26,617s12.15,6.17,16.59-4.67c5.65-13.81-.9-37.81-4.6-29.12-3.28,7.7-5.26,20-5.26,20s4.58-31.47-2.29-30.83-10.43,27.8-10.43,27.8,1.57-31.34-4.53-28.57S843.26,599,843.26,599s3.16-30.39-3.82-27-5.44,19.75-6.34,26.69c-.85,6.55,3.1,9.62,9.47,10.6,0,0,6.13,4.7,10.36,4.28,1.62-.16,3,1.66,4.09,2.06A42.54,42.54,0,0,0,863.26,617Z" transform="translate(-91.01 -84.03)"/><path class="cls-2" d="M571.73,538.05c5.29-2.66,16.89-5.43,22.24-8,2.31-1.11,10.36-4.26,11.74-2,1.21,2-4,7.63-6.8,10,20.63,3.66,46,16.71,4.34,11.51v.06c3.54.74,29.69,5.23,27.12,11.1-1.89,4.3-23.29-.09-29.12-1.24a1,1,0,0,0,0,.16c5.83,1.71,23.72,5.84,22.11,10-2.12,5.53-25-.59-25-.59s19.11,4.57,14.56,9.56c-2.56,2.81-13.78-.28-20.74-2.32h0c-1.46-.43-2.73-.81-3.7-1.08a9.59,9.59,0,0,1-2.09-.84,86.38,86.38,0,0,1-18.14-8.84s-8.79-4-6.83-14.8C562.58,543.93,569.43,539.2,571.73,538.05Z" transform="translate(-91.01 -84.03)"/><path class="cls-5" d="M577.74,533.3c-2.21-6.49-59.85-16.62-55.75-25.58,4.18-9.14,42.43-36,42.43-36l14.63-75.23s-56.77,4.28-86.91,45S448,511.68,458.2,535.59c12.49,29.33,85.05,47.71,98.68,41.86C577.42,568.63,580,539.79,577.74,533.3Z" transform="translate(-91.01 -84.03)"/><path class="cls-19" d="M544.17,578.73a36.42,36.42,0,0,1-7.73-.74.64.64,0,1,1,.3-1.25c.22.06,20.66,4.64,32.63-10.44a.67.67,0,0,1,.91-.11.64.64,0,0,1,.1.9C562.64,576.85,551.54,578.73,544.17,578.73Z" transform="translate(-91.01 -84.03)"/><path class="cls-19" d="M578.21,536.16a.78.78,0,0,1-.36-.1.67.67,0,0,1-.2-.89,1.2,1.2,0,0,0,0-1c-.29-.81-1.51-2.45-6.3-4.15-8.55-3.06-39.43-13.28-39.74-13.38a.65.65,0,0,1-.41-.82.63.63,0,0,1,.82-.41c.31.1,31.21,10.33,39.77,13.39,4.09,1.46,6.49,3.15,7.11,5a2.44,2.44,0,0,1-.16,2.11A.61.61,0,0,1,578.21,536.16Z" transform="translate(-91.01 -84.03)"/><path class="cls-19" d="M528.12,501a.65.65,0,0,1-.49-.23.66.66,0,0,1,.07-.92l16.13-13.66a.63.63,0,0,1,.91.07.64.64,0,0,1-.08.91l-16.12,13.67A.67.67,0,0,1,528.12,501Z" transform="translate(-91.01 -84.03)"/><path class="cls-3" d="M1970.83,918.32a.13.13,0,0,1-.08,0,.36.36,0,0,1-.27-.43c.87-4.07,6.11-7.89,6.33-8.06a.38.38,0,0,1,.44.61c-.06,0-5.24,3.82-6.06,7.6A.36.36,0,0,1,1970.83,918.32Z" transform="translate(-91.01 -84.03)"/><path class="cls-3" d="M1996.38,959.73c-8.89,0-16.41-8.33-16.75-8.72a.36.36,0,0,1,0-.51.38.38,0,0,1,.52,0c.09.09,8.73,9.73,18.13,8.32s18.3-3.68,18.39-3.71.4.08.45.26a.38.38,0,0,1-.26.46c-.09,0-8.9,2.27-18.47,3.7A13,13,0,0,1,1996.38,959.73Z" transform="translate(-91.01 -84.03)"/><path class="cls-3" d="M2027.7,872.7c-16.4-14.33-59.42-28.44-61.69-28.92l.24-1.12c2.37.49,45.3,14.41,62.2,29.16Z" transform="translate(-91.01 -84.03)"/><g class="cls-26"><path class="cls-15" d="M1276.66,485.14s-13.58-26.13-48-22.85-30.29,29.46-46.66,27-39.29,0-44.2,16.37S1110.83,513,1110,527s25.37,23.74,55.66,11.46,45,9.54,87.58,5.59,47.84-8.86,73-6.41,24.59-14.79,13.13-26.25S1281.57,501,1276.66,485.14Z" transform="translate(-91.01 -84.03)"/></g><g class="cls-26"><path class="cls-15" d="M2289.41,541s-23.83-45.83-84.12-40.09-53.12,51.68-81.83,47.38-68.9,0-77.52,28.71-47.37,12.92-48.81,37.32,44.51,41.63,97.62,20.1,79,16.73,153.6,9.8,83.9-15.54,128.09-11.24,43.13-25.94,23-46S2298,568.77,2289.41,541Z" transform="translate(-91.01 -84.03)"/></g><g class="cls-14"><path class="cls-15" d="M1644.25,317.82s-27.54-53-97.25-46.34-61.41,59.75-94.6,54.77-79.67,0-89.62,33.19-54.77,14.94-56.43,43.16,51.45,48.13,112.85,23.23,91.29,19.34,177.59,11.33,97-18,148.08-13,49.87-30,26.63-53.23S1654.21,349.91,1644.25,317.82Z" transform="translate(-91.01 -84.03)"/></g></svg>